<?xml version="1.0" standalone="no"?>
<!DOCTYPE svg PUBLIC "-//W3C//DTD SVG 20010904//EN"
 "http://www.w3.org/TR/2001/REC-SVG-20010904/DTD/svg10.dtd">
<svg version="1.0" xmlns="http://www.w3.org/2000/svg"
 width="381.000000pt" height="91.000000pt" viewBox="0 0 381.000000 91.000000"
 preserveAspectRatio="xMidYMid meet">
<metadata>
Created by potrace 1.15, written by Peter Selinger 2001-2017
</metadata>
<g transform="translate(0.000000,91.000000) scale(0.100000,-0.100000)"
fill="#000000" stroke="none">
<path d="M149 616 c-83 -29 -128 -87 -134 -168 -1 -21 0 -37 2 -34 3 3 15 -13
27 -36 47 -89 166 -106 243 -35 l22 20 -10 -34 c-5 -19 -10 -61 -11 -95 -1
-107 49 -183 140 -213 38 -13 44 -12 95 12 67 32 97 75 97 141 0 53 -19 97
-52 122 -20 14 -20 15 -3 9 85 -32 176 -30 243 4 102 52 128 175 54 255 -33
35 -65 48 -118 48 -60 0 -100 -25 -139 -86 -32 -51 -87 -106 -105 -106 -5 0
-15 -3 -23 -6 -14 -5 -57 31 -57 48 0 5 12 13 27 19 22 8 30 7 40 -7 21 -28
24 -11 5 26 -50 97 -227 158 -343 116z"/>
<path d="M1733 500 c-47 -19 -56 -78 -18 -115 l24 -25 -78 0 -79 0 -20 44
c-12 24 -24 56 -28 70 -8 34 -30 33 -39 -1 -3 -16 -15 -47 -26 -70 l-21 -43
-64 0 c-41 0 -63 4 -59 10 3 6 1 10 -4 10 -15 0 -14 93 1 108 9 9 6 12 -14 12
-21 0 -29 -8 -45 -46 l-20 -46 -18 46 c-14 37 -22 46 -41 46 -13 0 -24 -4 -24
-10 0 -5 4 -10 10 -10 5 0 8 -6 6 -12 -3 -7 -7 -39 -10 -70 l-6 -58 1325 0
c769 0 1325 4 1325 9 0 5 -279 9 -656 10 -555 1 -657 3 -670 15 -21 21 -17 30
16 43 66 25 40 83 -37 83 -23 0 -43 -4 -43 -10 0 -5 5 -10 10 -10 16 0 12 -89
-4 -106 -10 -9 -37 -14 -81 -14 -64 0 -65 1 -55 21 16 28 6 34 -22 15 -30 -21
-38 -20 -38 5 0 16 4 19 20 14 16 -5 20 -2 20 19 0 14 5 26 10 26 6 0 10 9 10
20 0 18 -7 20 -55 20 -30 0 -55 -4 -55 -10 0 -5 5 -10 10 -10 16 0 12 -89 -4
-106 -20 -19 -152 -19 -172 0 -20 20 -19 106 1 106 8 0 15 -4 15 -10 0 -5 5
-10 10 -10 6 0 10 9 10 20 0 18 -7 20 -60 20 -53 0 -60 -2 -60 -20 0 -11 5
-20 10 -20 6 0 10 5 10 10 0 6 5 10 10 10 11 0 14 -78 4 -104 -5 -13 -23 -16
-97 -16 -86 0 -90 1 -69 16 12 8 22 22 22 31 0 14 -2 14 -19 -1 -11 -10 -30
-16 -43 -14 -20 3 -23 9 -23 43 0 34 3 40 23 43 14 2 29 -4 37 -15 13 -17 14
-16 15 8 0 35 -32 47 -77 29z"/>
</g>
</svg>
