<svg width="202" height="108" xmlns="http://www.w3.org/2000/svg" xmlns:svg="http://www.w3.org/2000/svg">
 <g>
  <title>Layer 1</title>
  <g id="svg_73">
   <g id="svg_1">
    <path id="svg_2" d="m12.47011,99.39101l-3.8,0l0,-0.4l0.8,0c0.2,0 0.3,-0.1 0.4,-0.2c0.1,-0.1 0.1,-0.3 0.1,-0.5l0,-7.2l-3.4,8.2l-0.3,0l-3.6,-8.5l0,4.5c0,1.2 0,2 0.1,2.5c0.1,0.8 0.4,1.2 0.8,1.2l0.3,0l0,0.4l-2.9,0l0,-0.4l0.3,0c0.4,0 0.6,-0.4 0.8,-1.2c0.1,-0.5 0.1,-1.4 0.1,-2.5l0,-4.3c0,-0.3 -0.1,-0.5 -0.2,-0.6c-0.1,-0.1 -0.2,-0.1 -0.3,-0.1l-0.7,0l0,-0.4l2.7,0l3.2,7.6l3.2,-7.6l2.4,0l0,0.4l-0.8,0c-0.2,0 -0.3,0.1 -0.4,0.2c-0.1,0.1 -0.1,0.3 -0.1,0.4l0,7.4c0,0.2 0,0.3 0.1,0.5c0.1,0.1 0.2,0.2 0.4,0.2l0.8,0l0,0.4l0,0z" fill="#BB2721"/>
    <path id="svg_3" d="m12.47011,99.39101l-3.8,0l0,-0.4l0.8,0c0.2,0 0.3,-0.1 0.4,-0.2c0.1,-0.1 0.1,-0.3 0.1,-0.5l0,-7.2l-3.4,8.2l-0.3,0l-3.6,-8.5l0,4.5c0,1.2 0,2 0.1,2.5c0.1,0.8 0.4,1.2 0.8,1.2l0.3,0l0,0.4l-2.9,0l0,-0.4l0.3,0c0.4,0 0.6,-0.4 0.8,-1.2c0.1,-0.5 0.1,-1.4 0.1,-2.5l0,-4.3c0,-0.3 -0.1,-0.5 -0.2,-0.6c-0.1,-0.1 -0.2,-0.1 -0.3,-0.1l-0.7,0l0,-0.4l2.7,0l3.2,7.6l3.2,-7.6l2.4,0l0,0.4l-0.8,0c-0.2,0 -0.3,0.1 -0.4,0.2c-0.1,0.1 -0.1,0.3 -0.1,0.4l0,7.4c0,0.2 0,0.3 0.1,0.5c0.1,0.1 0.2,0.2 0.4,0.2l0.8,0l0,0.4l0,0z" fill="none"/>
    <path id="svg_4" d="m104.27011,92.89101c0,0.9 -0.4,1.6 -1.1,2.1c-0.7,0.5 -1.6,0.7 -2.8,0.7c-0.4,0 -0.8,0 -1.2,-0.1l0,2.8c0,0.2 0,0.3 0.1,0.5c0.1,0.1 0.2,0.2 0.4,0.2l1,0l0,0.4l-4.1,0l0,-0.4l0.8,0c0.2,0 0.3,-0.1 0.4,-0.2c0.1,-0.1 0.1,-0.3 0.1,-0.5l0,-7.4c0,-0.2 0,-0.3 -0.1,-0.4c-0.1,-0.1 -0.2,-0.2 -0.4,-0.2l-0.8,0l0,-0.4l3.4,0c1.6,0 2.7,0.3 3.4,0.9c0.6,0.5 0.9,1.1 0.9,2l0,0zm-1.4,0c0,-0.7 -0.2,-1.3 -0.5,-1.7c-0.4,-0.5 -1.1,-0.8 -1.9,-0.8c-0.3,0 -0.5,0 -0.7,0.1c-0.2,0 -0.4,0.1 -0.6,0.2l0,4.5c0.1,0 0.2,0 0.4,0.1c0.2,0 0.4,0 0.5,0c0.7,0 1.3,-0.2 1.8,-0.5c0.7,-0.4 1,-1.1 1,-1.9l0,0z" fill="#BB2721"/>
    <path id="svg_5" d="m104.27011,92.89101c0,0.9 -0.4,1.6 -1.1,2.1c-0.7,0.5 -1.6,0.7 -2.8,0.7c-0.4,0 -0.8,0 -1.2,-0.1l0,2.8c0,0.2 0,0.3 0.1,0.5c0.1,0.1 0.2,0.2 0.4,0.2l1,0l0,0.4l-4.1,0l0,-0.4l0.8,0c0.2,0 0.3,-0.1 0.4,-0.2c0.1,-0.1 0.1,-0.3 0.1,-0.5l0,-7.4c0,-0.2 0,-0.3 -0.1,-0.4c-0.1,-0.1 -0.2,-0.2 -0.4,-0.2l-0.8,0l0,-0.4l3.4,0c1.6,0 2.7,0.3 3.4,0.9c0.6,0.5 0.9,1.1 0.9,2l0,0zm-1.4,0c0,-0.7 -0.2,-1.3 -0.5,-1.7c-0.4,-0.5 -1.1,-0.8 -1.9,-0.8c-0.3,0 -0.5,0 -0.7,0.1c-0.2,0 -0.4,0.1 -0.6,0.2l0,4.5c0.1,0 0.2,0 0.4,0.1c0.2,0 0.4,0 0.5,0c0.7,0 1.3,-0.2 1.8,-0.5c0.7,-0.4 1,-1.1 1,-1.9l0,0z" stroke-miterlimit="22.9256" stroke-width="0.216" stroke="#BB2721" fill="none"/>
    <path id="svg_6" d="m31.87011,99.39101l-3.5,0l0,-0.4l0.5,0c0.2,0 0.3,0 0.4,-0.1c0.1,0 0.1,-0.2 0.1,-0.3c0,-0.1 0,-0.3 -0.1,-0.5c-0.1,-0.2 -0.1,-0.4 -0.2,-0.5l-0.7,-1.9l-3,0l-0.3,0.8c-0.1,0.3 -0.2,0.6 -0.3,0.9c-0.1,0.4 -0.2,0.7 -0.2,0.9c0,0.2 0,0.3 0.1,0.4c0.1,0.1 0.2,0.2 0.3,0.2l0.5,0l0,0.4l-2.7,0l0,-0.4l0.3,0c0.2,0 0.4,-0.2 0.7,-0.5c0.4,-0.5 0.8,-1.4 1.3,-2.8l2.2,-5.9l0.4,0l3,8.4c0.1,0.2 0.2,0.4 0.2,0.5c0.2,0.2 0.4,0.3 0.7,0.3l0.3,0l0,0.5l0,0zm-3.5,-4.1l-1.4,-3.9l-1.4,3.9l2.8,0l0,0z" fill="#BB2721"/>
    <path id="svg_7" d="m31.87011,99.39101l-3.5,0l0,-0.4l0.5,0c0.2,0 0.3,0 0.4,-0.1c0.1,0 0.1,-0.2 0.1,-0.3c0,-0.1 0,-0.3 -0.1,-0.5c-0.1,-0.2 -0.1,-0.4 -0.2,-0.5l-0.7,-1.9l-3,0l-0.3,0.8c-0.1,0.3 -0.2,0.6 -0.3,0.9c-0.1,0.4 -0.2,0.7 -0.2,0.9c0,0.2 0,0.3 0.1,0.4c0.1,0.1 0.2,0.2 0.3,0.2l0.5,0l0,0.4l-2.7,0l0,-0.4l0.3,0c0.2,0 0.4,-0.2 0.7,-0.5c0.4,-0.5 0.8,-1.4 1.3,-2.8l2.2,-5.9l0.4,0l3,8.4c0.1,0.2 0.2,0.4 0.2,0.5c0.2,0.2 0.4,0.3 0.7,0.3l0.3,0l0,0.5l0,0zm-3.5,-4.1l-1.4,-3.9l-1.4,3.9l2.8,0l0,0z" stroke-miterlimit="22.9256" stroke-width="0.216" stroke="#BB2721" fill="none"/>
    <path id="svg_8" d="m49.77011,96.69101c-0.4,0.9 -1,1.6 -1.7,2.1c-0.6,0.4 -1.3,0.6 -2.2,0.6c-1.3,0 -2.4,-0.4 -3.2,-1.2c-0.9,-0.9 -1.4,-2.1 -1.4,-3.6c0,-1.4 0.4,-2.5 1.2,-3.5c0.9,-1 2,-1.5 3.5,-1.5c1.1,0 2,0.2 2.7,0.7l0,-0.5l0.4,0l0.2,2.6l-0.4,0l0,-0.3c0,-0.5 -0.3,-1 -0.8,-1.4c-0.6,-0.4 -1.3,-0.7 -2.1,-0.7c-1.1,0 -1.9,0.5 -2.5,1.5c-0.5,0.9 -0.7,1.9 -0.7,3.1c0,1.4 0.4,2.5 1.1,3.2c0.7,0.7 1.5,1 2.5,1c0.6,0 1.2,-0.2 1.7,-0.6c0.5,-0.4 1,-1 1.4,-1.8l0.3,0.3l0,0z" fill="#BB2721"/>
    <path id="svg_9" d="m49.77011,96.69101c-0.4,0.9 -1,1.6 -1.7,2.1c-0.6,0.4 -1.3,0.6 -2.2,0.6c-1.3,0 -2.4,-0.4 -3.2,-1.2c-0.9,-0.9 -1.4,-2.1 -1.4,-3.6c0,-1.4 0.4,-2.5 1.2,-3.5c0.9,-1 2,-1.5 3.5,-1.5c1.1,0 2,0.2 2.7,0.7l0,-0.5l0.4,0l0.2,2.6l-0.4,0l0,-0.3c0,-0.5 -0.3,-1 -0.8,-1.4c-0.6,-0.4 -1.3,-0.7 -2.1,-0.7c-1.1,0 -1.9,0.5 -2.5,1.5c-0.5,0.9 -0.7,1.9 -0.7,3.1c0,1.4 0.4,2.5 1.1,3.2c0.7,0.7 1.5,1 2.5,1c0.6,0 1.2,-0.2 1.7,-0.6c0.5,-0.4 1,-1 1.4,-1.8l0.3,0.3l0,0z" stroke-miterlimit="22.9256" stroke-width="0.216" stroke="#BB2721" fill="none"/>
    <path id="svg_10" d="m67.37011,92.09101l-0.4,0l0,-0.3c0,-0.4 -0.3,-0.7 -0.8,-1c-0.5,-0.3 -1.1,-0.4 -1.7,-0.4c-0.2,0 -0.3,0 -0.4,0c-0.1,0 -0.2,0.1 -0.2,0.2l0,7.8c0,0.2 0,0.3 0.1,0.5c0.1,0.1 0.2,0.2 0.4,0.2l0.8,0l0,0.4l-3.8,0l0,-0.4l0.8,0c0.2,0 0.3,-0.1 0.4,-0.2c0.1,-0.1 0.1,-0.3 0.1,-0.5l0,-7.8c0,-0.1 -0.1,-0.2 -0.2,-0.2c-0.1,0 -0.3,0 -0.4,0c-0.6,0 -1.2,0.1 -1.7,0.4c-0.5,0.3 -0.8,0.6 -0.8,1l0,0.3l-0.4,0l0,-2.1l8.3,0l0,2.1l-0.1,0z" fill="#BB2721"/>
    <path id="svg_11" d="m67.37011,92.09101l-0.4,0l0,-0.3c0,-0.4 -0.3,-0.7 -0.8,-1c-0.5,-0.3 -1.1,-0.4 -1.7,-0.4c-0.2,0 -0.3,0 -0.4,0c-0.1,0 -0.2,0.1 -0.2,0.2l0,7.8c0,0.2 0,0.3 0.1,0.5c0.1,0.1 0.2,0.2 0.4,0.2l0.8,0l0,0.4l-3.8,0l0,-0.4l0.8,0c0.2,0 0.3,-0.1 0.4,-0.2c0.1,-0.1 0.1,-0.3 0.1,-0.5l0,-7.8c0,-0.1 -0.1,-0.2 -0.2,-0.2c-0.1,0 -0.3,0 -0.4,0c-0.6,0 -1.2,0.1 -1.7,0.4c-0.5,0.3 -0.8,0.6 -0.8,1l0,0.3l-0.4,0l0,-2.1l8.3,0l0,2.1l-0.1,0z" stroke-miterlimit="22.9256" stroke-width="0.216" stroke="#BB2721" fill="none"/>
    <path id="svg_12" d="m85.97011,97.29101l-0.4,2.1l-7.2,0l0,-0.4l0.8,0c0.2,0 0.3,-0.1 0.4,-0.2c0.1,-0.1 0.1,-0.3 0.1,-0.5l0,-7.4c0,-0.2 0,-0.3 -0.1,-0.4c-0.1,-0.1 -0.2,-0.2 -0.4,-0.2l-0.8,0l0,-0.4l7.1,0l0.2,1.9l-0.4,0l-0.1,-0.4c0,-0.3 -0.3,-0.5 -0.7,-0.7c-0.6,-0.3 -1.5,-0.4 -2.7,-0.4l-0.5,0c-0.2,0 -0.3,0.1 -0.4,0.2c-0.1,0.1 -0.1,0.3 -0.1,0.4l0,3.3l0.6,0c1.1,0 1.7,-0.1 2.1,-0.3c0.2,-0.1 0.3,-0.3 0.3,-0.5l0,-0.3l0.4,0l0,2.6l-0.4,0l0,-0.3c0,-0.2 -0.1,-0.4 -0.3,-0.5c-0.3,-0.2 -1,-0.3 -2.1,-0.3l-0.6,0l0,3.8c0,0.2 0,0.3 0.1,0.5c0.1,0.1 0.2,0.2 0.4,0.2l0.2,0c1.3,0 2.3,-0.1 3,-0.4c0.6,-0.2 0.9,-0.6 1,-1l0.1,-0.3l0.4,0l0,-0.1z" fill="#BB2721"/>
    <path id="svg_13" d="m85.97011,97.29101l-0.4,2.1l-7.2,0l0,-0.4l0.8,0c0.2,0 0.3,-0.1 0.4,-0.2c0.1,-0.1 0.1,-0.3 0.1,-0.5l0,-7.4c0,-0.2 0,-0.3 -0.1,-0.4c-0.1,-0.1 -0.2,-0.2 -0.4,-0.2l-0.8,0l0,-0.4l7.1,0l0.2,1.9l-0.4,0l-0.1,-0.4c0,-0.3 -0.3,-0.5 -0.7,-0.7c-0.6,-0.3 -1.5,-0.4 -2.7,-0.4l-0.5,0c-0.2,0 -0.3,0.1 -0.4,0.2c-0.1,0.1 -0.1,0.3 -0.1,0.4l0,3.3l0.6,0c1.1,0 1.7,-0.1 2.1,-0.3c0.2,-0.1 0.3,-0.3 0.3,-0.5l0,-0.3l0.4,0l0,2.6l-0.4,0l0,-0.3c0,-0.2 -0.1,-0.4 -0.3,-0.5c-0.3,-0.2 -1,-0.3 -2.1,-0.3l-0.6,0l0,3.8c0,0.2 0,0.3 0.1,0.5c0.1,0.1 0.2,0.2 0.4,0.2l0.2,0c1.3,0 2.3,-0.1 3,-0.4c0.6,-0.2 0.9,-0.6 1,-1l0.1,-0.3l0.4,0l0,-0.1z" stroke-miterlimit="22.9256" stroke-width="0.216" stroke="#BB2721" fill="none"/>
    <path id="svg_14" d="m128.97011,98.19101c-0.1,0.8 -0.4,1.2 -1.1,1.2c-0.7,0 -1.3,-0.5 -1.9,-1.5c-0.5,-0.9 -0.9,-1.8 -1.4,-2.7c-0.2,-0.3 -0.4,-0.5 -0.6,-0.6c-0.2,-0.1 -0.5,-0.2 -0.8,-0.2l-0.5,0l0,3.9c0,0.2 0,0.3 0.1,0.4c0.1,0.1 0.2,0.2 0.4,0.2l0.8,0l0,0.4l-3.8,0l0,-0.4l0.8,0c0.2,0 0.3,-0.1 0.4,-0.2c0.1,-0.1 0.1,-0.3 0.1,-0.4l0,-7.4c0,-0.2 0,-0.3 -0.1,-0.5c-0.1,-0.1 -0.2,-0.2 -0.4,-0.2l-0.8,0l0,-0.4l3.8,0l0,0.4l-0.8,0c-0.2,0 -0.3,0.1 -0.4,0.2c-0.1,0.1 -0.1,0.3 -0.1,0.5l0,3.1l0.5,0c0.4,0 0.7,-0.1 1,-0.3c0.3,-0.3 0.7,-0.9 1.2,-1.8c0.4,-0.9 0.8,-1.5 1.1,-1.7c0.3,-0.3 0.7,-0.4 1.1,-0.4c0.3,0 0.5,0.1 0.7,0.2c0.2,0.2 0.3,0.4 0.3,0.6c0,0.2 -0.1,0.4 -0.2,0.5c-0.1,0.1 -0.3,0.2 -0.5,0.2c-0.2,0 -0.3,-0.1 -0.5,-0.2c-0.1,-0.1 -0.2,-0.3 -0.2,-0.5l0,-0.2c0,-0.1 0,-0.2 -0.1,-0.2c-0.2,0 -0.4,0.3 -0.7,0.9c-0.4,0.9 -0.6,1.5 -0.8,1.8c-0.4,0.7 -0.9,1.1 -1.6,1.3l0,0.1c0.6,0.1 1.1,0.3 1.6,0.7c0.4,0.3 0.7,0.7 1,1.3c0.2,0.3 0.4,0.8 0.7,1.5c0.1,0.3 0.2,0.6 0.4,0.8c0.1,0.2 0.3,0.4 0.5,0.4c0.1,0 0.2,-0.1 0.3,-0.2c0.1,-0.1 0.1,-0.3 0.1,-0.4l0.4,0l0,-0.2z" fill="#C5C5C5"/>
    <path id="svg_15" d="m128.97011,98.19101c-0.1,0.8 -0.4,1.2 -1.1,1.2c-0.7,0 -1.3,-0.5 -1.9,-1.5c-0.5,-0.9 -0.9,-1.8 -1.4,-2.7c-0.2,-0.3 -0.4,-0.5 -0.6,-0.6c-0.2,-0.1 -0.5,-0.2 -0.8,-0.2l-0.5,0l0,3.9c0,0.2 0,0.3 0.1,0.4c0.1,0.1 0.2,0.2 0.4,0.2l0.8,0l0,0.4l-3.8,0l0,-0.4l0.8,0c0.2,0 0.3,-0.1 0.4,-0.2c0.1,-0.1 0.1,-0.3 0.1,-0.4l0,-7.4c0,-0.2 0,-0.3 -0.1,-0.5c-0.1,-0.1 -0.2,-0.2 -0.4,-0.2l-0.8,0l0,-0.4l3.8,0l0,0.4l-0.8,0c-0.2,0 -0.3,0.1 -0.4,0.2c-0.1,0.1 -0.1,0.3 -0.1,0.5l0,3.1l0.5,0c0.4,0 0.7,-0.1 1,-0.3c0.3,-0.3 0.7,-0.9 1.2,-1.8c0.4,-0.9 0.8,-1.5 1.1,-1.7c0.3,-0.3 0.7,-0.4 1.1,-0.4c0.3,0 0.5,0.1 0.7,0.2c0.2,0.2 0.3,0.4 0.3,0.6c0,0.2 -0.1,0.4 -0.2,0.5c-0.1,0.1 -0.3,0.2 -0.5,0.2c-0.2,0 -0.3,-0.1 -0.5,-0.2c-0.1,-0.1 -0.2,-0.3 -0.2,-0.5l0,-0.2c0,-0.1 0,-0.2 -0.1,-0.2c-0.2,0 -0.4,0.3 -0.7,0.9c-0.4,0.9 -0.6,1.5 -0.8,1.8c-0.4,0.7 -0.9,1.1 -1.6,1.3l0,0.1c0.6,0.1 1.1,0.3 1.6,0.7c0.4,0.3 0.7,0.7 1,1.3c0.2,0.3 0.4,0.8 0.7,1.5c0.1,0.3 0.2,0.6 0.4,0.8c0.1,0.2 0.3,0.4 0.5,0.4c0.1,0 0.2,-0.1 0.3,-0.2c0.1,-0.1 0.1,-0.3 0.1,-0.4l0.4,0l0,-0.2z" stroke-miterlimit="22.9256" stroke-width="0.216" stroke="#C5C5C5" fill="none"/>
    <path id="svg_16" d="m147.67011,99.19101l-3.8,0l0,-0.4l0.8,0c0.2,0 0.3,-0.1 0.4,-0.2c0.1,-0.1 0.1,-0.3 0.1,-0.4l0,-7.4c0,-0.2 0,-0.3 -0.1,-0.5c-0.1,-0.1 -0.2,-0.2 -0.4,-0.2l-0.8,0c-0.7,0 -1.1,0.2 -1.2,0.5c-0.1,1 -0.3,2.1 -0.5,3.4c-0.3,1.9 -0.7,3.3 -1.1,4.1c-0.4,0.8 -0.9,1.2 -1.5,1.2c-0.4,0 -0.7,-0.1 -0.9,-0.3c-0.3,-0.2 -0.4,-0.5 -0.4,-0.8c0,-0.2 0.1,-0.4 0.2,-0.6c0.1,-0.2 0.3,-0.2 0.5,-0.2c0.3,0 0.4,0.1 0.5,0.2c0.1,0.1 0.2,0.3 0.2,0.5l0,0.2l-0.1,0.2c0,0.2 0.1,0.3 0.2,0.3c0.2,0 0.3,-0.1 0.5,-0.3c0.2,-0.3 0.4,-0.8 0.7,-1.5c0.2,-0.7 0.5,-1.7 0.7,-3.1c0.2,-1.4 0.3,-2.3 0.3,-2.8c0,-0.3 -0.1,-0.5 -0.2,-0.6c-0.1,-0.2 -0.3,-0.2 -0.5,-0.2l-0.9,0l0,-0.4l7.1,0l0,0.4l-0.8,0c-0.2,0 -0.3,0.1 -0.4,0.2c-0.1,0.1 -0.1,0.3 -0.1,0.5l0,7.4c0,0.2 0,0.3 0.1,0.4c0.1,0.1 0.2,0.2 0.4,0.2l0.8,0l0,0.2l0.2,0z" fill="#C5C5C5"/>
    <path id="svg_17" d="m147.67011,99.19101l-3.8,0l0,-0.4l0.8,0c0.2,0 0.3,-0.1 0.4,-0.2c0.1,-0.1 0.1,-0.3 0.1,-0.4l0,-7.4c0,-0.2 0,-0.3 -0.1,-0.5c-0.1,-0.1 -0.2,-0.2 -0.4,-0.2l-0.8,0c-0.7,0 -1.1,0.2 -1.2,0.5c-0.1,1 -0.3,2.1 -0.5,3.4c-0.3,1.9 -0.7,3.3 -1.1,4.1c-0.4,0.8 -0.9,1.2 -1.5,1.2c-0.4,0 -0.7,-0.1 -0.9,-0.3c-0.3,-0.2 -0.4,-0.5 -0.4,-0.8c0,-0.2 0.1,-0.4 0.2,-0.6c0.1,-0.2 0.3,-0.2 0.5,-0.2c0.3,0 0.4,0.1 0.5,0.2c0.1,0.1 0.2,0.3 0.2,0.5l0,0.2l-0.1,0.2c0,0.2 0.1,0.3 0.2,0.3c0.2,0 0.3,-0.1 0.5,-0.3c0.2,-0.3 0.4,-0.8 0.7,-1.5c0.2,-0.7 0.5,-1.7 0.7,-3.1c0.2,-1.4 0.3,-2.3 0.3,-2.8c0,-0.3 -0.1,-0.5 -0.2,-0.6c-0.1,-0.2 -0.3,-0.2 -0.5,-0.2l-0.9,0l0,-0.4l7.1,0l0,0.4l-0.8,0c-0.2,0 -0.3,0.1 -0.4,0.2c-0.1,0.1 -0.1,0.3 -0.1,0.5l0,7.4c0,0.2 0,0.3 0.1,0.4c0.1,0.1 0.2,0.2 0.4,0.2l0.8,0l0,0.2l0.2,0z" stroke-miterlimit="22.9256" stroke-width="0.216" stroke="#C5C5C5" fill="none"/>
    <path id="svg_18" d="m166.67011,99.39101l-3.4,0l0,-0.4l0.5,0c0.2,0 0.3,0 0.4,-0.1c0.1,0 0.1,-0.2 0.1,-0.3c0,-0.1 0,-0.3 -0.1,-0.5c-0.1,-0.2 -0.1,-0.4 -0.2,-0.5l-0.7,-1.9l-3,0l-0.3,0.8c-0.1,0.3 -0.2,0.6 -0.3,0.9c-0.1,0.4 -0.2,0.7 -0.2,0.9c0,0.2 0,0.3 0.1,0.4c0.1,0.1 0.2,0.2 0.3,0.2l0.5,0l0,0.4l-2.7,0l0,-0.4l0.3,0c0.2,0 0.4,-0.2 0.7,-0.5c0.4,-0.5 0.8,-1.4 1.3,-2.8l2.2,-5.9l0.4,0l3,8.4c0.1,0.2 0.2,0.4 0.2,0.5c0.2,0.2 0.4,0.3 0.7,0.3l0.3,0l0,0.5l-0.1,0zm-3.4,-4l-1.4,-3.9l-1.4,3.9l2.8,0l0,0z" fill="#C5C5C5"/>
    <path id="svg_19" d="m166.67011,99.39101l-3.4,0l0,-0.4l0.5,0c0.2,0 0.3,0 0.4,-0.1c0.1,0 0.1,-0.2 0.1,-0.3c0,-0.1 0,-0.3 -0.1,-0.5c-0.1,-0.2 -0.1,-0.4 -0.2,-0.5l-0.7,-1.9l-3,0l-0.3,0.8c-0.1,0.3 -0.2,0.6 -0.3,0.9c-0.1,0.4 -0.2,0.7 -0.2,0.9c0,0.2 0,0.3 0.1,0.4c0.1,0.1 0.2,0.2 0.3,0.2l0.5,0l0,0.4l-2.7,0l0,-0.4l0.3,0c0.2,0 0.4,-0.2 0.7,-0.5c0.4,-0.5 0.8,-1.4 1.3,-2.8l2.2,-5.9l0.4,0l3,8.4c0.1,0.2 0.2,0.4 0.2,0.5c0.2,0.2 0.4,0.3 0.7,0.3l0.3,0l0,0.5l-0.1,0zm-3.4,-4l-1.4,-3.9l-1.4,3.9l2.8,0l0,0z" stroke-miterlimit="22.9256" stroke-width="0.216" stroke="#C5C5C5" fill="none"/>
    <path id="svg_20" d="m184.17011,96.69101c-0.4,0.9 -1,1.6 -1.7,2.1c-0.6,0.4 -1.3,0.6 -2.2,0.6c-1.3,0 -2.4,-0.4 -3.2,-1.2c-0.9,-0.9 -1.4,-2.1 -1.4,-3.6c0,-1.4 0.4,-2.5 1.2,-3.5c0.9,-1 2,-1.5 3.5,-1.5c1.1,0 2,0.2 2.7,0.7l0,-0.5l0.4,0l0.2,2.6l-0.4,0l0,-0.3c0,-0.5 -0.3,-1 -0.8,-1.4c-0.6,-0.4 -1.3,-0.7 -2.1,-0.7c-1.1,0 -1.9,0.5 -2.5,1.5c-0.5,0.8 -0.7,1.9 -0.7,3.1c0,1.4 0.4,2.5 1.1,3.2c0.7,0.7 1.5,1 2.5,1c0.6,0 1.2,-0.2 1.7,-0.6c0.5,-0.4 1,-1 1.4,-1.8l0.3,0.3l0,0z" fill="#C5C5C5"/>
    <path id="svg_21" d="m184.17011,96.69101c-0.4,0.9 -1,1.6 -1.7,2.1c-0.6,0.4 -1.3,0.6 -2.2,0.6c-1.3,0 -2.4,-0.4 -3.2,-1.2c-0.9,-0.9 -1.4,-2.1 -1.4,-3.6c0,-1.4 0.4,-2.5 1.2,-3.5c0.9,-1 2,-1.5 3.5,-1.5c1.1,0 2,0.2 2.7,0.7l0,-0.5l0.4,0l0.2,2.6l-0.4,0l0,-0.3c0,-0.5 -0.3,-1 -0.8,-1.4c-0.6,-0.4 -1.3,-0.7 -2.1,-0.7c-1.1,0 -1.9,0.5 -2.5,1.5c-0.5,0.8 -0.7,1.9 -0.7,3.1c0,1.4 0.4,2.5 1.1,3.2c0.7,0.7 1.5,1 2.5,1c0.6,0 1.2,-0.2 1.7,-0.6c0.5,-0.4 1,-1 1.4,-1.8l0.3,0.3l0,0z" stroke-miterlimit="22.9256" stroke-width="0.216" stroke="#C5C5C5" fill="none"/>
    <path id="svg_22" d="m201.37011,96.69101c-0.4,0.9 -1,1.6 -1.7,2.1c-0.6,0.4 -1.3,0.6 -2.2,0.6c-1.3,0 -2.4,-0.4 -3.2,-1.2c-0.9,-0.9 -1.4,-2.1 -1.4,-3.6c0,-1.4 0.4,-2.5 1.2,-3.5c0.9,-1 2,-1.5 3.5,-1.5c1.1,0 2,0.2 2.7,0.7l0,-0.5l0.4,0l0.2,2.6l-0.4,0l0,-0.3c0,-0.5 -0.3,-1 -0.8,-1.4c-0.6,-0.4 -1.3,-0.7 -2,-0.7c-1.1,0 -1.9,0.5 -2.5,1.5c-0.5,0.8 -0.7,1.9 -0.7,3.1c0,1.4 0.4,2.5 1.1,3.2c0.7,0.7 1.5,1 2.5,1c0.6,0 1.2,-0.2 1.7,-0.6c0.5,-0.4 1,-1 1.4,-1.8l0.2,0.3l0,0z" fill="#C5C5C5"/>
    <path id="svg_23" d="m201.37011,96.69101c-0.4,0.9 -1,1.6 -1.7,2.1c-0.6,0.4 -1.3,0.6 -2.2,0.6c-1.3,0 -2.4,-0.4 -3.2,-1.2c-0.9,-0.9 -1.4,-2.1 -1.4,-3.6c0,-1.4 0.4,-2.5 1.2,-3.5c0.9,-1 2,-1.5 3.5,-1.5c1.1,0 2,0.2 2.7,0.7l0,-0.5l0.4,0l0.2,2.6l-0.4,0l0,-0.3c0,-0.5 -0.3,-1 -0.8,-1.4c-0.6,-0.4 -1.3,-0.7 -2,-0.7c-1.1,0 -1.9,0.5 -2.5,1.5c-0.5,0.8 -0.7,1.9 -0.7,3.1c0,1.4 0.4,2.5 1.1,3.2c0.7,0.7 1.5,1 2.5,1c0.6,0 1.2,-0.2 1.7,-0.6c0.5,-0.4 1,-1 1.4,-1.8l0.2,0.3l0,0z" stroke-miterlimit="22.9256" stroke-width="0.216" stroke="#C5C5C5" fill="none"/>
    <polygon id="svg_24" points="4.070117950439453,107.09101104736328 3.670116424560547,107.09101104736328 3.670116424560547,104.1910171508789 2.670116424560547,107.09101104736328 2.2701187133789062,107.09101104736328 1.2701187133789062,104.1910171508789 1.2701187133789062,107.09101104736328 0.8701171875,107.09101104736328 0.8701171875,103.6910171508789 1.5701181888580322,103.6910171508789 2.4701156616210938,106.49101257324219 3.3701171875,103.6910171508789 4.070117950439453,103.6910171508789 4.070117950439453,107.09101104736328 " fill="#6F6F6E"/>
    <path id="svg_25" d="m22.87011,105.69101l-0.6,-1.6l-0.6,1.6l1.2,0l0,0zm1,1.4l-0.5,0l-0.4,-1l-1.4,0l-0.4,1l-0.5,0l1.3,-3.4l0.5,0l1.4,3.4l0,0z" fill="#6F6F6E"/>
    <path id="svg_26" d="m41.77011,107.09101c-0.5,0 -0.8,-0.1 -1.1,-0.3c-0.2,-0.2 -0.4,-0.5 -0.4,-0.8l0.4,0c0,0.3 0.1,0.4 0.3,0.6c0.2,0.1 0.4,0.2 0.7,0.2c0.3,0 0.5,-0.1 0.6,-0.2c0.2,-0.1 0.2,-0.2 0.2,-0.4c0,-0.2 -0.1,-0.3 -0.2,-0.4c-0.2,-0.1 -0.4,-0.2 -0.8,-0.2c-0.4,-0.1 -0.7,-0.2 -0.8,-0.3c-0.2,-0.1 -0.3,-0.3 -0.3,-0.6c0,-0.3 0.1,-0.5 0.3,-0.7c0.2,-0.2 0.5,-0.3 0.9,-0.3c0.4,0 0.7,0.1 0.9,0.3c0.2,0.2 0.4,0.4 0.4,0.7l-0.4,0c0,-0.4 -0.3,-0.6 -0.8,-0.6c-0.2,0 -0.4,0 -0.6,0.1c-0.1,0.1 -0.2,0.2 -0.2,0.4c0,0.1 0.1,0.2 0.2,0.3c0.1,0.1 0.3,0.1 0.6,0.2c0.3,0.1 0.5,0.1 0.7,0.2c0.2,0.1 0.3,0.2 0.5,0.3c0.1,0.1 0.2,0.3 0.2,0.5c0,0.3 -0.1,0.5 -0.3,0.7c-0.3,0.2 -0.6,0.3 -1,0.3l0,0z" fill="#6F6F6E"/>
    <polygon id="svg_27" points="62.3701171875,104.09101104736328 61.270118713378906,104.09101104736328 61.270118713378906,107.09101104736328 60.770118713378906,107.09101104736328 60.770118713378906,104.09101104736328 59.67012023925781,104.09101104736328 59.67012023925781,103.6910171508789 62.3701171875,103.6910171508789 62.3701171875,104.09101104736328 " fill="#6F6F6E"/>
    <polygon id="svg_28" points="81.67012023925781,107.09101104736328 79.07011413574219,107.09101104736328 79.07011413574219,103.6910171508789 81.57011413574219,103.6910171508789 81.57011413574219,104.09101104736328 79.57011413574219,104.09101104736328 79.57011413574219,105.09101104736328 81.3701171875,105.09101104736328 81.3701171875,105.49101257324219 79.57011413574219,105.49101257324219 79.57011413574219,106.6910171508789 81.67012023925781,106.6910171508789 81.67012023925781,107.09101104736328 " fill="#6F6F6E"/>
    <path id="svg_29" d="m101.37011,107.09101l-0.5,0l-0.3,-0.9c-0.1,-0.2 -0.2,-0.3 -0.3,-0.4c-0.1,-0.1 -0.3,-0.2 -0.5,-0.2l-0.8,0l0,1.4l-0.4,0l0,-3.4l1.5,0c0.3,0 0.5,0 0.6,0.1c0.2,0 0.3,0.2 0.4,0.3c0.1,0.2 0.2,0.3 0.2,0.5c0,0.2 -0.1,0.4 -0.2,0.6c-0.1,0.2 -0.3,0.3 -0.6,0.3l0,0c0.2,0.1 0.4,0.3 0.5,0.6l0.4,1.1l0,0zm-2.4,-1.9l1,0c0.3,0 0.5,0 0.6,-0.1c0.1,-0.1 0.2,-0.2 0.2,-0.5c0,-0.4 -0.2,-0.6 -0.7,-0.6l-1.1,0l0,1.2l0,0z" fill="#6F6F6E"/>
    <path id="svg_30" d="m122.17011,107.09101c-0.5,0 -0.9,-0.2 -1.1,-0.5c-0.3,-0.3 -0.4,-0.7 -0.4,-1.3c0,-0.5 0.1,-1 0.4,-1.3c0.3,-0.3 0.7,-0.5 1.1,-0.5c0.4,0 0.7,0.1 0.9,0.3c0.3,0.2 0.4,0.5 0.4,0.8l-0.5,0c0,-0.2 -0.1,-0.4 -0.3,-0.5c-0.2,-0.1 -0.4,-0.2 -0.6,-0.2c-0.3,0 -0.6,0.1 -0.8,0.4c-0.2,0.2 -0.3,0.6 -0.3,1c0,0.4 0.1,0.8 0.3,1c0.2,0.2 0.5,0.4 0.8,0.4c0.3,0 0.5,-0.1 0.6,-0.2c0.2,-0.1 0.3,-0.3 0.3,-0.6l0.5,0c0,0.4 -0.2,0.6 -0.4,0.8c-0.2,0.3 -0.5,0.4 -0.9,0.4l0,0z" fill="#6F6F6E"/>
    <polygon id="svg_31" points="142.47012329101562,107.09101104736328 140.3701171875,107.09101104736328 140.3701171875,103.6910171508789 140.8701171875,103.6910171508789 140.8701171875,106.6910171508789 142.47012329101562,106.6910171508789 142.47012329101562,107.09101104736328 " fill="#6F6F6E"/>
    <path id="svg_32" d="m161.07011,105.69101l-0.6,-1.6l-0.6,1.6l1.2,0l0,0zm1,1.4l-0.5,0l-0.4,-1l-1.4,0l-0.4,1l-0.5,0l1.3,-3.4l0.5,0l1.4,3.4l0,0z" fill="#6F6F6E"/>
    <path id="svg_33" d="m180.07011,107.09101c-0.5,0 -0.8,-0.1 -1.1,-0.3c-0.2,-0.2 -0.4,-0.5 -0.4,-0.8l0.4,0c0,0.3 0.1,0.4 0.3,0.6c0.2,0.1 0.4,0.2 0.7,0.2c0.3,0 0.5,-0.1 0.6,-0.2c0.2,-0.1 0.2,-0.2 0.2,-0.4c0,-0.2 -0.1,-0.3 -0.2,-0.4c-0.2,-0.1 -0.4,-0.2 -0.8,-0.2c-0.4,-0.1 -0.7,-0.2 -0.8,-0.3c-0.2,-0.1 -0.3,-0.3 -0.3,-0.6c0,-0.3 0.1,-0.5 0.3,-0.7c0.2,-0.2 0.5,-0.3 0.9,-0.3c0.4,0 0.7,0.1 0.9,0.3c0.2,0.2 0.4,0.4 0.4,0.7l-0.4,0c0,-0.4 -0.3,-0.6 -0.8,-0.6c-0.2,0 -0.4,0 -0.6,0.1c-0.1,0.1 -0.2,0.2 -0.2,0.4c0,0.1 0.1,0.2 0.2,0.3c0.1,0.1 0.3,0.1 0.6,0.2c0.3,0.1 0.5,0.1 0.7,0.2c0.2,0.1 0.3,0.2 0.5,0.3c0.1,0.1 0.2,0.3 0.2,0.5c0,0.3 -0.1,0.5 -0.3,0.7c-0.4,0.2 -0.7,0.3 -1,0.3l0,0z" fill="#6F6F6E"/>
    <path id="svg_34" d="m199.77011,107.09101c-0.5,0 -0.8,-0.1 -1.1,-0.3c-0.2,-0.2 -0.4,-0.5 -0.4,-0.8l0.4,0c0,0.3 0.1,0.4 0.3,0.6c0.2,0.1 0.4,0.2 0.7,0.2c0.3,0 0.5,-0.1 0.6,-0.2c0.2,-0.1 0.2,-0.2 0.2,-0.4c0,-0.2 -0.1,-0.3 -0.2,-0.4c-0.2,-0.1 -0.4,-0.2 -0.8,-0.2c-0.4,-0.1 -0.7,-0.2 -0.8,-0.3c-0.2,-0.1 -0.3,-0.3 -0.3,-0.6c0,-0.3 0.1,-0.5 0.3,-0.7c0.2,-0.2 0.5,-0.3 0.9,-0.3c0.4,0 0.7,0.1 0.9,0.3c0.2,0.2 0.4,0.4 0.4,0.7l-0.4,0c0,-0.4 -0.3,-0.6 -0.8,-0.6c-0.2,0 -0.4,0 -0.6,0.1c-0.1,0.1 -0.2,0.2 -0.2,0.4c0,0.1 0.1,0.2 0.2,0.3c0.1,0.1 0.3,0.1 0.6,0.2c0.3,0.1 0.5,0.1 0.7,0.2c0.2,0.1 0.3,0.2 0.5,0.3c0.1,0.1 0.2,0.3 0.2,0.5c0,0.3 -0.1,0.5 -0.3,0.7c-0.4,0.2 -0.7,0.3 -1,0.3l0,0z" fill="#6F6F6E"/>
    <polygon id="svg_35" points="4.070117950439453,85.791015625 3.670116424560547,85.791015625 3.670116424560547,83.09101104736328 2.7701187133789062,85.791015625 2.4701156616210938,85.791015625 1.5701181888580322,83.09101104736328 1.5701181888580322,85.791015625 1.1701164245605469,85.791015625 1.1701164245605469,82.6910171508789 1.7701187133789062,82.6910171508789 2.670116424560547,85.291015625 3.4701156616210938,82.6910171508789 4.070117950439453,82.6910171508789 4.070117950439453,85.791015625 " fill="#6F6F6E"/>
    <polygon id="svg_36" points="10.670116424560547,85.791015625 8.3701171875,85.791015625 8.3701171875,82.6910171508789 10.570117950439453,82.6910171508789 10.570117950439453,82.99101257324219 8.770118713378906,82.99101257324219 8.770118713378906,83.99101257324219 10.470115661621094,83.99101257324219 10.470115661621094,84.3910140991211 8.770118713378906,84.3910140991211 8.770118713378906,85.3910140991211 10.670116424560547,85.3910140991211 10.670116424560547,85.791015625 " fill="#6F6F6E"/>
    <polygon id="svg_37" points="18.3701171875,85.791015625 17.8701171875,85.791015625 16.670120239257812,84.291015625 16.670120239257812,85.791015625 16.270118713378906,85.791015625 16.270118713378906,84.291015625 14.970115661621094,85.791015625 14.470115661621094,85.791015625 15.970115661621094,84.09101104736328 14.470115661621094,82.6910171508789 15.070114135742188,82.6910171508789 16.270118713378906,83.8910140991211 16.270118713378906,82.6910171508789 16.670120239257812,82.6910171508789 16.670120239257812,83.8910140991211 17.770118713378906,82.6910171508789 18.3701171875,82.6910171508789 16.8701171875,84.09101104736328 18.3701171875,85.791015625 " fill="#6F6F6E"/>
    <path id="svg_38" d="m24.87011,85.39101l0.4,0l0,1.1l-0.4,0l0,-0.7l-2.4,0l0,0.7l-0.4,0l0,-1.1l0.3,0c0.1,-0.2 0.2,-0.4 0.3,-0.8c0.1,-0.3 0.1,-0.8 0.1,-1.5l0,-0.5l2.2,0l0,2.8l-0.1,0zm-0.4,0l0,-2.4l-1.3,0l0,0.2c0,0.6 0,1.1 -0.1,1.4c-0.1,0.3 -0.2,0.6 -0.3,0.8l1.7,0l0,0z" fill="#6F6F6E"/>
    <path id="svg_39" d="m31.67011,82.69101l-1.2,2.3c-0.2,0.4 -0.4,0.6 -0.5,0.7c-0.1,0.1 -0.3,0.2 -0.4,0.2c-0.1,0 -0.3,0 -0.4,-0.1l0,-0.4c0.1,0 0.2,0.1 0.4,0.1c0.2,0 0.4,-0.2 0.5,-0.5l-0.6,-1.2l-0.6,-1.2l0.5,0l0.5,0.9l0.5,0.9l0.9,-1.9l0.4,0l0,0.2z" fill="#6F6F6E"/>
    <polygon id="svg_40" points="38.07011413574219,85.791015625 37.67012023925781,85.791015625 37.67012023925781,84.291015625 35.970115661621094,84.291015625 35.970115661621094,85.791015625 35.57011413574219,85.791015625 35.57011413574219,82.6910171508789 35.970115661621094,82.6910171508789 35.970115661621094,83.99101257324219 37.67012023925781,83.99101257324219 37.67012023925781,82.6910171508789 38.07011413574219,82.6910171508789 38.07011413574219,85.791015625 " fill="#6F6F6E"/>
    <path id="svg_41" d="m43.87011,84.49101l-0.5,-1.4l-0.5,1.5l1,0l0,-0.1zm1,1.3l-0.5,0l-0.4,-1l-1.3,0l-0.3,1l-0.4,0l1.2,-3.2l0.5,0l1.2,3.2l0,0z" fill="#6F6F6E"/>
    <path id="svg_42" d="m48.77011,82.69101l1.2,0c0.3,0 0.5,0 0.6,0.1c0.2,0 0.3,0.2 0.4,0.3c0.1,0.2 0.2,0.3 0.2,0.5c0,0.3 -0.1,0.6 -0.3,0.7c-0.2,0.2 -0.5,0.2 -0.9,0.2l-0.8,0l0,1.3l-0.4,0l0,-3.1l0,0zm0.4,1.5l0.8,0c0.3,0 0.5,0 0.6,-0.2c0.1,-0.1 0.2,-0.2 0.2,-0.4c0,-0.1 0,-0.2 -0.1,-0.3c-0.1,-0.1 -0.1,-0.2 -0.2,-0.2c-0.1,0 -0.2,0 -0.4,0l-0.8,0l0,1.1l-0.1,0z" fill="#6F6F6E"/>
    <path id="svg_43" d="m56.57011,82.59101c0.4,0 0.8,0.1 1.1,0.4c0.3,0.3 0.4,0.7 0.4,1.2c0,0.5 -0.1,0.9 -0.4,1.2c-0.3,0.3 -0.6,0.4 -1.1,0.4c-0.4,0 -0.8,-0.1 -1.1,-0.5c-0.3,-0.3 -0.4,-0.7 -0.4,-1.2c0,-0.5 0.1,-0.9 0.4,-1.2c0.3,-0.1 0.7,-0.3 1.1,-0.3l0,0zm0,2.9c0.3,0 0.6,-0.1 0.8,-0.3c0.2,-0.2 0.3,-0.5 0.3,-0.9c0,-0.4 -0.1,-0.7 -0.3,-0.9c-0.2,-0.2 -0.5,-0.3 -0.8,-0.3c-0.3,0 -0.6,0.1 -0.8,0.3c-0.2,0.2 -0.3,0.5 -0.3,0.9c0,0.4 0.1,0.7 0.3,0.9c0.2,0.2 0.5,0.3 0.8,0.3l0,0z" fill="#6F6F6E"/>
    <path id="svg_44" d="m64.67011,85.39101l0.4,0l0,1.1l-0.4,0l0,-0.7l-2.4,0l0,0.7l-0.4,0l0,-1.1l0.3,0c0.1,-0.2 0.2,-0.4 0.3,-0.8c0.1,-0.3 0.1,-0.8 0.1,-1.5l0,-0.5l2.2,0l0,2.8l-0.1,0zm-0.4,0l0,-2.4l-1.3,0l0,0.2c0,0.6 0,1.1 -0.1,1.4c-0.1,0.3 -0.2,0.6 -0.3,0.8l1.7,0l0,0z" fill="#6F6F6E"/>
    <polygon id="svg_45" points="71.57011413574219,85.791015625 71.17012023925781,85.791015625 71.17012023925781,84.291015625 69.4701156616211,84.291015625 69.4701156616211,85.791015625 69.07011413574219,85.791015625 69.07011413574219,82.6910171508789 69.4701156616211,82.6910171508789 69.4701156616211,83.99101257324219 71.17012023925781,83.99101257324219 71.17012023925781,82.6910171508789 71.57011413574219,82.6910171508789 71.57011413574219,85.791015625 " fill="#6F6F6E"/>
    <path id="svg_46" d="m76.27011,83.99101l0.7,0c0.8,0 1.2,0.3 1.2,0.9c0,0.3 -0.1,0.5 -0.3,0.7c-0.2,0.2 -0.5,0.2 -0.9,0.2l-1.2,0l0,-3.2l0.4,0l0,1.4l0.1,0zm0,1.4l0.8,0c0.5,0 0.8,-0.2 0.8,-0.5c0,-0.2 -0.1,-0.3 -0.2,-0.4c-0.1,-0.1 -0.3,-0.1 -0.6,-0.1l-0.7,0l0,1l-0.1,0zm2.7,0.4l-0.4,0l0,-3.2l0.4,0l0,3.2l0,0z" fill="#6F6F6E"/>
    <path id="svg_47" d="m85.67011,85.79101l-0.4,0l0,-2.5l-1.7,2.5l-0.4,0l0,-3.2l0.4,0l0,2.5l1.7,-2.5l0.4,0l0,3.2l0,0zm-0.6,-3.9c0,0.2 -0.1,0.3 -0.2,0.4c-0.1,0.1 -0.3,0.1 -0.4,0.1c-0.2,0 -0.3,0 -0.4,-0.1c-0.1,-0.1 -0.2,-0.2 -0.2,-0.4l0.3,0c0,0.2 0.2,0.3 0.4,0.3c0.2,0 0.3,-0.1 0.4,-0.3l0.1,0l0,0z" fill="#6F6F6E"/>
    <path id="svg_48" d="m93.97011,82.99101c0.5,0 0.8,0.1 1.1,0.3c0.3,0.2 0.4,0.5 0.4,0.9c0,0.4 -0.1,0.7 -0.4,0.9c-0.3,0.2 -0.6,0.3 -1.1,0.3l0,0.5l-0.4,0l0,-0.4c-0.5,0 -0.8,-0.1 -1.1,-0.3c-0.3,-0.2 -0.4,-0.5 -0.4,-0.9c0,-0.4 0.1,-0.7 0.4,-0.9c0.3,-0.2 0.6,-0.3 1.1,-0.3l0,-0.3l0.4,0l0,0.2l0,0zm0,2.1c0.3,0 0.6,-0.1 0.8,-0.2c0.2,-0.1 0.3,-0.4 0.3,-0.7c0,-0.3 -0.1,-0.5 -0.3,-0.7c-0.2,-0.1 -0.4,-0.2 -0.8,-0.2l0,1.8l0,0zm-0.4,0l0,-1.7c-0.3,0 -0.6,0.1 -0.8,0.2c-0.2,0.1 -0.3,0.4 -0.3,0.7c0,0.3 0.1,0.5 0.3,0.7c0.2,0 0.5,0.1 0.8,0.1l0,0z" fill="#6F6F6E"/>
    <polygon id="svg_49" points="101.8701171875,85.791015625 99.57011413574219,85.791015625 99.57011413574219,82.6910171508789 101.77011108398438,82.6910171508789 101.77011108398438,82.99101257324219 99.97012329101562,82.99101257324219 99.97012329101562,83.99101257324219 101.67012023925781,83.99101257324219 101.67012023925781,84.3910140991211 99.97012329101562,84.3910140991211 99.97012329101562,85.3910140991211 101.8701171875,85.3910140991211 101.8701171875,85.791015625 " fill="#6F6F6E"/>
    <path id="svg_50" d="m107.37011,85.89101c-0.4,0 -0.8,-0.1 -1.1,-0.4c-0.3,-0.3 -0.4,-0.7 -0.4,-1.2c0,-0.5 0.1,-0.9 0.4,-1.2c0.3,-0.3 0.6,-0.4 1.1,-0.4c0.3,0 0.6,0.1 0.9,0.3c0.2,0.2 0.4,0.4 0.4,0.7l-0.4,0c0,-0.2 -0.1,-0.4 -0.3,-0.5c-0.2,-0.1 -0.4,-0.2 -0.6,-0.2c-0.3,0 -0.6,0.1 -0.8,0.3c-0.2,0.2 -0.3,0.5 -0.3,0.9c0,0.4 0.1,0.7 0.3,0.9c0.2,0.2 0.4,0.3 0.8,0.3c0.2,0 0.4,-0.1 0.6,-0.2c0.2,-0.1 0.2,-0.3 0.3,-0.5l0.4,0c0,0.3 -0.2,0.6 -0.4,0.8c-0.3,0.3 -0.6,0.4 -0.9,0.4l0,0z" fill="#6F6F6E"/>
    <polygon id="svg_51" points="114.97012329101562,82.99101257324219 113.8701171875,82.99101257324219 113.8701171875,85.791015625 113.47012329101562,85.791015625 113.47012329101562,82.99101257324219 112.47012329101562,82.99101257324219 112.47012329101562,82.6910171508789 114.97012329101562,82.6910171508789 114.97012329101562,82.99101257324219 " fill="#6F6F6E"/>
    <polygon id="svg_52" points="121.3701171875,85.791015625 120.97012329101562,85.791015625 120.97012329101562,83.291015625 119.3701171875,85.791015625 118.8701171875,85.791015625 118.8701171875,82.6910171508789 119.27011108398438,82.6910171508789 119.27011108398438,85.1910171508789 120.97012329101562,82.6910171508789 121.3701171875,82.6910171508789 121.3701171875,85.791015625 " fill="#6F6F6E"/>
    <path id="svg_53" d="m127.97011,84.89101c0,0.3 -0.1,0.5 -0.3,0.7c-0.2,0.2 -0.5,0.2 -0.9,0.2l-1.2,0l0,-3.2l1.1,0c0.3,0 0.6,0.1 0.8,0.2c0.2,0.1 0.3,0.3 0.3,0.6c0,0.3 -0.2,0.5 -0.5,0.7c0.2,0.1 0.4,0.1 0.5,0.3c0.2,0.2 0.2,0.3 0.2,0.5l0,0zm-1.9,-0.9l0.7,0c0.2,0 0.4,0 0.5,-0.1c0.1,-0.1 0.2,-0.2 0.2,-0.4c0,-0.2 -0.1,-0.3 -0.2,-0.3c-0.1,-0.1 -0.3,-0.1 -0.6,-0.1l-0.7,0l0,0.9l0.1,0zm0,1.4l0.8,0c0.5,0 0.8,-0.2 0.8,-0.5c0,-0.2 -0.1,-0.3 -0.2,-0.4c-0.1,-0.1 -0.3,-0.1 -0.6,-0.1l-0.7,0l0,1l-0.1,0z" fill="#6F6F6E"/>
    <path id="svg_54" d="m133.77011,84.49101l-0.6,-1.5l-0.5,1.5l1.1,0l0,0zm0.9,1.3l-0.5,0l-0.4,-1l-1.3,0l-0.3,1l-0.4,0l1.2,-3.2l0.5,0l1.2,3.2l0,0z" fill="#6F6F6E"/>
    <path id="svg_55" d="m140.97011,85.79101l-0.4,0l0,-2.8l-1.4,0l0,2c0,0.6 -0.2,0.9 -0.6,0.9c-0.1,0 -0.2,0 -0.3,0l0,-0.4c0.1,0 0.1,0 0.2,0c0.1,0 0.2,0 0.2,-0.1c0,-0.1 0.1,-0.2 0.1,-0.4l0,-2.4l2.2,0l0,3.2l0,0z" fill="#6F6F6E"/>
    <path id="svg_56" d="m145.57011,83.99101l0.7,0c0.8,0 1.2,0.3 1.2,0.9c0,0.3 -0.1,0.5 -0.3,0.7c-0.2,0.2 -0.5,0.2 -0.9,0.2l-1.2,0l0,-3.2l0.4,0l0,1.4l0.1,0zm0,1.4l0.8,0c0.5,0 0.8,-0.2 0.8,-0.5c0,-0.2 -0.1,-0.3 -0.2,-0.4c-0.1,-0.1 -0.3,-0.1 -0.6,-0.1l-0.7,0l0,1l-0.1,0z" fill="#6F6F6E"/>
    <polygon id="svg_57" points="155.27011108398438,85.791015625 154.8701171875,85.791015625 154.8701171875,83.291015625 153.1701202392578,85.791015625 152.77011108398438,85.791015625 152.77011108398438,82.6910171508789 153.1701202392578,82.6910171508789 153.1701202392578,85.1910171508789 154.77011108398438,82.6910171508789 155.27011108398438,82.6910171508789 155.27011108398438,85.791015625 " fill="#6F6F6E"/>
    <path id="svg_58" d="m160.77011,85.89101c-0.4,0 -0.8,-0.1 -1.1,-0.4c-0.3,-0.3 -0.4,-0.7 -0.4,-1.2c0,-0.5 0.1,-0.9 0.4,-1.2c0.3,-0.3 0.6,-0.4 1.1,-0.4c0.3,0 0.6,0.1 0.9,0.3c0.2,0.2 0.4,0.4 0.4,0.7l-0.4,0c0,-0.2 -0.1,-0.4 -0.3,-0.5c-0.2,-0.1 -0.4,-0.2 -0.6,-0.2c-0.3,0 -0.6,0.1 -0.8,0.3c-0.2,0.2 -0.3,0.5 -0.3,0.9c0,0.4 0.1,0.7 0.3,0.9c0.2,0.2 0.4,0.3 0.8,0.3c0.2,0 0.4,-0.1 0.6,-0.2c0.2,-0.1 0.2,-0.3 0.3,-0.5l0.4,0c0,0.3 -0.2,0.6 -0.4,0.8c-0.2,0.3 -0.5,0.4 -0.9,0.4l0,0z" fill="#6F6F6E"/>
    <polygon id="svg_59" points="168.77011108398438,85.791015625 168.1701202392578,85.791015625 167.0701141357422,84.1910171508789 166.5701141357422,84.6910171508789 166.5701141357422,85.791015625 166.1701202392578,85.791015625 166.1701202392578,82.6910171508789 166.5701141357422,82.6910171508789 166.5701141357422,84.1910171508789 168.1701202392578,82.6910171508789 168.6701202392578,82.6910171508789 167.3701171875,83.99101257324219 168.77011108398438,85.791015625 " fill="#6F6F6E"/>
    <path id="svg_60" d="m175.07011,82.69101l-1.2,2.3c-0.2,0.4 -0.4,0.6 -0.5,0.7c-0.1,0.1 -0.3,0.2 -0.4,0.2c-0.1,0 -0.3,0 -0.4,-0.1l0,-0.4c0.1,0 0.2,0.1 0.4,0.1c0.2,0 0.4,-0.2 0.5,-0.5l-0.6,-1.2l-0.6,-1.2l0.5,0l0.5,0.9l0.5,0.9l0.9,-1.9l0.4,0l0,0.2z" fill="#6F6F6E"/>
    <path id="svg_61" d="m180.27011,85.89101c-0.4,0 -0.8,-0.1 -1.1,-0.4c-0.3,-0.3 -0.4,-0.7 -0.4,-1.2c0,-0.5 0.1,-0.9 0.4,-1.2c0.3,-0.3 0.6,-0.4 1.1,-0.4c0.3,0 0.6,0.1 0.9,0.3c0.2,0.2 0.4,0.4 0.4,0.7l-0.4,0c0,-0.2 -0.1,-0.4 -0.3,-0.5c-0.2,-0.1 -0.4,-0.2 -0.6,-0.2c-0.3,0 -0.6,0.1 -0.8,0.3c-0.2,0.2 -0.3,0.5 -0.3,0.9c0,0.4 0.1,0.7 0.3,0.9c0.2,0.2 0.4,0.3 0.8,0.3c0.2,0 0.4,-0.1 0.6,-0.2c0.2,-0.1 0.2,-0.3 0.3,-0.5l0.4,0c0,0.3 -0.2,0.6 -0.4,0.8c-0.2,0.3 -0.5,0.4 -0.9,0.4l0,0z" fill="#6F6F6E"/>
    <path id="svg_62" d="m186.97011,85.89101c-0.4,0 -0.8,-0.1 -1.1,-0.4c-0.3,-0.3 -0.4,-0.7 -0.4,-1.2c0,-0.5 0.1,-0.9 0.4,-1.2c0.3,-0.3 0.6,-0.4 1.1,-0.4c0.3,0 0.6,0.1 0.9,0.3c0.2,0.2 0.4,0.4 0.4,0.7l-0.4,0c0,-0.2 -0.1,-0.4 -0.3,-0.5c-0.2,-0.1 -0.4,-0.2 -0.6,-0.2c-0.3,0 -0.6,0.1 -0.8,0.3c-0.2,0.2 -0.3,0.5 -0.3,0.9c0,0.4 0.1,0.7 0.3,0.9c0.2,0.2 0.4,0.3 0.8,0.3c0.2,0 0.4,-0.1 0.6,-0.2c0.2,-0.1 0.2,-0.3 0.3,-0.5l0.4,0c0,0.3 -0.2,0.6 -0.4,0.8c-0.2,0.3 -0.5,0.4 -0.9,0.4l0,0z" fill="#6F6F6E"/>
    <polygon id="svg_63" points="194.6701202392578,82.99101257324219 193.5701141357422,82.99101257324219 193.5701141357422,85.791015625 193.1701202392578,85.791015625 193.1701202392578,82.99101257324219 192.1701202392578,82.99101257324219 192.1701202392578,82.6910171508789 194.6701202392578,82.6910171508789 194.6701202392578,82.99101257324219 " fill="#6F6F6E"/>
    <path id="svg_64" d="m200.97011,84.89101c0,0.3 -0.1,0.5 -0.3,0.7c-0.2,0.2 -0.5,0.2 -0.9,0.2l-1.2,0l0,-3.2l1.1,0c0.3,0 0.6,0.1 0.8,0.2c0.2,0.1 0.3,0.3 0.3,0.6c0,0.3 -0.2,0.5 -0.5,0.7c0.2,0.1 0.4,0.1 0.5,0.3c0.1,0.2 0.2,0.3 0.2,0.5l0,0zm-1.9,-0.9l0.7,0c0.2,0 0.4,0 0.5,-0.1c0.1,-0.1 0.2,-0.2 0.2,-0.4c0,-0.2 -0.1,-0.3 -0.2,-0.3c-0.1,-0.1 -0.3,-0.1 -0.6,-0.1l-0.7,0l0,0.9l0.1,0zm0,1.4l0.8,0c0.5,0 0.8,-0.2 0.8,-0.5c0,-0.2 -0.1,-0.3 -0.2,-0.4c-0.1,-0.1 -0.3,-0.1 -0.6,-0.1l-0.7,0l0,1l-0.1,0z" fill="#6F6F6E"/>
    <line id="svg_65" y2="101.19101" x2="200.97011" y1="101.19101" x1="0.87011" stroke-miterlimit="22.9256" stroke-width="0.216" stroke="#A22224" fill="none"/>
   </g>
   <g id="svg_66">
    <path id="svg_67" d="m101.17011,0.79101c19.2,0 34.7,15.4 34.7,34.4c0,19 -15.6,34.4 -34.7,34.4c-19.2,0 -34.7,-15.4 -34.7,-34.4c-0.1,-19 15.5,-34.4 34.7,-34.4l0,0z" stroke-miterlimit="22.9256" stroke-width="0.75" stroke="#D67C1B" fill="none"/>
    <polygon id="svg_68" points="112.3701171875,60.191017150878906 112.07011413574219,60.99101257324219 111.77011108398438,61.69102096557617 111.3701171875,62.49101257324219 110.8701171875,63.09101486206055 110.3701171875,63.791015625 109.8701171875,64.3910140991211 109.27011108398438,64.99101257324219 108.67012023925781,65.49101257324219 107.97012329101562,65.99101257324219 107.27011108398438,66.49101257324219 106.47012329101562,66.791015625 105.67012023925781,67.1910171508789 104.97012329101562,67.49101257324219 104.17012023925781,67.6910171508789 103.27011108398438,67.8910140991211 102.47012329101562,68.09101104736328 101.57011413574219,68.09101104736328 100.77011108398438,68.09101104736328 99.8701171875,68.09101104736328 98.97012329101562,67.99101257324219 98.17012023925781,67.791015625 97.27011108398438,67.49101257324219 96.47012329101562,67.1910171508789 95.67012023925781,66.791015625 94.8701171875,66.3910140991211 94.07011413574219,65.791015625 93.27011108398438,65.1910171508789 92.57011413574219,64.49101257324219 91.8701171875,63.69102096557617 91.17012023925781,62.791019439697266 90.57011413574219,61.891014099121094 90.07011413574219,60.791019439697266 89.57011413574219,59.791019439697266 89.07011413574219,58.59101104736328 88.77011108398438,57.49101257324219 88.47012329101562,56.291015625 88.27011108398438,55.09101486206055 88.17012023925781,53.891014099121094 88.07011413574219,52.69102096557617 88.07011413574219,51.49101257324219 88.17012023925781,50.291015625 88.27011108398438,49.09101867675781 88.47012329101562,47.891014099121094 88.77011108398438,46.69101333618164 89.07011413574219,45.49101257324219 89.3701171875,44.391014099121094 89.77011108398438,43.291015625 90.17012023925781,42.191017150878906 90.67012023925781,41.09101867675781 91.17012023925781,40.09101867675781 91.77011108398438,39.09101867675781 92.3701171875,38.191017150878906 92.97012329101562,37.291015625 93.67012023925781,36.49101257324219 94.27011108398438,35.69101333618164 94.97012329101562,34.99101257324219 95.67012023925781,34.391014099121094 96.47012329101562,33.791019439697266 97.17012023925781,33.291015625 97.97012329101562,32.891014099121094 98.77011108398438,32.59101867675781 99.57011413574219,32.39101791381836 100.3701171875,32.291019439697266 101.17012023925781,32.191017150878906 100.07011413574219,32.39101791381836 99.27011108398438,32.691017150878906 98.57011413574219,33.191017150878906 98.07011413574219,33.791019439697266 97.77011108398438,34.49101257324219 97.57011413574219,35.391014099121094 97.57011413574219,36.291015625 97.77011108398438,37.291015625 98.17012023925781,38.291015625 98.67012023925781,39.391014099121094 99.3701171875,40.49101257324219 100.27011108398438,41.59101867675781 101.27011108398438,42.59101867675781 102.47012329101562,43.59101867675781 103.8701171875,44.59101867675781 105.47012329101562,45.49101257324219 106.07011413574219,45.891014099121094 106.77011108398438,46.291015625 107.47012329101562,46.69101333618164 108.17012023925781,47.191017150878906 108.97012329101562,47.891014099121094 109.67012023925781,48.49101257324219 110.3701171875,49.291015625 111.07011413574219,50.09101867675781 111.67012023925781,51.09101867675781 112.17012023925781,52.09101486206055 112.57011413574219,53.191017150878906 112.8701171875,54.391014099121094 112.97012329101562,55.69102096557617 112.97012329101562,57.09101486206055 112.77011108398438,58.59101104736328 112.3701171875,60.191017150878906 " fill="#312E81" clip-rule="evenodd" fill-rule="evenodd"/>
    <polygon id="svg_69" points="75.8701171875,46.291015625 75.07011413574219,45.99101257324219 74.2701187133789,45.69101333618164 73.57011413574219,45.291015625 72.8701171875,44.891014099121094 72.17012023925781,44.391014099121094 71.57011413574219,43.791019439697266 70.9701156616211,43.191017150878906 70.4701156616211,42.59101867675781 69.9701156616211,41.891014099121094 69.57011413574219,41.191017150878906 69.17012023925781,40.49101257324219 68.7701187133789,39.69101333618164 68.4701156616211,38.99101257324219 68.2701187133789,38.191017150878906 68.07011413574219,37.291015625 67.8701171875,36.49101257324219 67.8701171875,35.59101867675781 67.8701171875,34.791019439697266 67.8701171875,33.891014099121094 67.9701156616211,33.09101867675781 68.17012023925781,32.291019439697266 68.4701156616211,31.391016006469727 68.7701187133789,30.59101676940918 69.17012023925781,29.791017532348633 69.67012023925781,28.99101448059082 70.17012023925781,28.191015243530273 70.7701187133789,27.391016006469727 71.4701156616211,26.691015243530273 72.2701187133789,25.99101448059082 73.17012023925781,25.391016006469727 74.17012023925781,24.691015243530273 75.17012023925781,24.191015243530273 76.2701187133789,23.691015243530273 77.47012329101562,23.291017532348633 78.57011413574219,22.891016006469727 79.77011108398438,22.691015243530273 80.97012329101562,22.49101448059082 82.17012023925781,22.291017532348633 83.3701171875,22.291017532348633 84.57011413574219,22.291017532348633 85.8701171875,22.391016006469727 87.07011413574219,22.49101448059082 88.27011108398438,22.691015243530273 89.47012329101562,22.891016006469727 90.67012023925781,23.191015243530273 91.77011108398438,23.49101448059082 92.97012329101562,23.891016006469727 93.97012329101562,24.391016006469727 95.07011413574219,24.791017532348633 96.17012023925781,25.391016006469727 97.17012023925781,25.891016006469727 98.07011413574219,26.49101448059082 98.97012329101562,27.09101676940918 99.77011108398438,27.691015243530273 100.57011413574219,28.391016006469727 101.27011108398438,29.09101676940918 101.8701171875,29.791017532348633 102.47012329101562,30.59101676940918 102.97012329101562,31.291017532348633 103.3701171875,32.09101867675781 103.67012023925781,32.791019439697266 103.8701171875,33.59101867675781 104.07011413574219,34.391014099121094 104.07011413574219,35.191017150878906 103.97012329101562,34.191017150878906 103.57011413574219,33.291015625 103.07011413574219,32.59101867675781 102.47012329101562,32.191017150878906 101.77011108398438,31.791015625 100.8701171875,31.691015243530273 99.97012329101562,31.691015243530273 98.97012329101562,31.891014099121094 97.8701171875,32.191017150878906 96.8701171875,32.691017150878906 95.77011108398438,33.391014099121094 94.67012023925781,34.291015625 93.57011413574219,35.291015625 92.57011413574219,36.49101257324219 91.57011413574219,37.891014099121094 90.67012023925781,39.49101257324219 90.27011108398438,40.09101867675781 89.97012329101562,40.69101333618164 89.47012329101562,41.49101257324219 88.97012329101562,42.191017150878906 88.27011108398438,42.891014099121094 87.57011413574219,43.59101867675781 86.8701171875,44.391014099121094 85.97012329101562,44.99101257324219 85.07011413574219,45.59101867675781 84.07011413574219,46.09101867675781 82.97012329101562,46.49101257324219 81.77011108398438,46.791019439697266 80.3701171875,46.891014099121094 78.97012329101562,46.891014099121094 77.47012329101562,46.69101333618164 75.8701171875,46.291015625 " fill="#C31520" clip-rule="evenodd" fill-rule="evenodd"/>
    <polygon id="svg_70" points="126.3701171875,24.09101676940918 127.17012023925781,24.291017532348633 127.97012329101562,24.691015243530273 128.6701202392578,24.99101448059082 129.3701171875,25.49101448059082 130.0701141357422,25.99101448059082 130.6701202392578,26.49101448059082 131.27011108398438,27.09101676940918 131.77011108398438,27.791017532348633 132.27011108398438,28.391016006469727 132.77011108398438,29.09101676940918 133.1701202392578,29.891016006469727 133.47012329101562,30.59101676940918 133.77011108398438,31.391016006469727 133.97012329101562,32.191017150878906 134.1701202392578,32.99101257324219 134.3701171875,33.891014099121094 134.3701171875,34.69101333618164 134.3701171875,35.59101867675781 134.3701171875,36.391014099121094 134.27011108398438,37.291015625 134.0701141357422,38.09101867675781 133.77011108398438,38.99101257324219 133.47012329101562,39.791019439697266 133.0701141357422,40.59101867675781 132.6701202392578,41.391014099121094 132.0701141357422,42.191017150878906 131.47012329101562,42.891014099121094 130.77011108398438,43.59101867675781 129.97012329101562,44.291015625 129.0701141357422,44.99101257324219 128.0701141357422,45.59101867675781 127.07011413574219,46.191017150878906 125.97012329101562,46.69101333618164 124.8701171875,47.09101867675781 123.67012023925781,47.391014099121094 122.47012329101562,47.69101333618164 121.27011108398438,47.891014099121094 120.07011413574219,47.99101257324219 118.8701171875,48.09101867675781 117.67012023925781,48.09101867675781 116.47012329101562,47.99101257324219 115.17012023925781,47.891014099121094 113.97012329101562,47.69101333618164 112.77011108398438,47.49101257324219 111.57011413574219,47.191017150878906 110.47012329101562,46.791019439697266 109.3701171875,46.391014099121094 108.27011108398438,45.99101257324219 107.17012023925781,45.49101257324219 106.07011413574219,44.99101257324219 105.17012023925781,44.49101257324219 104.17012023925781,43.891014099121094 103.27011108398438,43.291015625 102.47012329101562,42.59101867675781 101.67012023925781,41.891014099121094 100.97012329101562,41.291015625 100.3701171875,40.49101257324219 99.77011108398438,39.791019439697266 99.27011108398438,39.09101867675781 98.8701171875,38.291015625 98.57011413574219,37.49101257324219 98.3701171875,36.791019439697266 98.17012023925781,35.99101257324219 98.17012023925781,35.191017150878906 98.3701171875,36.191017150878906 98.67012023925781,36.99101257324219 99.17012023925781,37.69101333618164 99.77011108398438,38.191017150878906 100.47012329101562,38.49101257324219 101.3701171875,38.69101333618164 102.27011108398438,38.69101333618164 103.27011108398438,38.49101257324219 104.3701171875,38.09101867675781 105.3701171875,37.59101867675781 106.47012329101562,36.891014099121094 107.57011413574219,36.09101867675781 108.67012023925781,34.99101257324219 109.67012023925781,33.791019439697266 110.67012023925781,32.49101257324219 111.57011413574219,30.891016006469727 111.97012329101562,30.291017532348633 112.3701171875,29.59101676940918 112.77011108398438,28.891016006469727 113.3701171875,28.191015243530273 113.97012329101562,27.391016006469727 114.67012023925781,26.691015243530273 115.3701171875,25.99101448059082 116.27011108398438,25.391016006469727 117.17012023925781,24.791017532348633 118.17012023925781,24.291017532348633 119.27011108398438,23.891016006469727 120.57011413574219,23.59101676940918 121.8701171875,23.49101448059082 123.27011108398438,23.49101448059082 124.77011108398438,23.691015243530273 126.3701171875,24.09101676940918 " fill="#437441" clip-rule="evenodd" fill-rule="evenodd"/>
    <polygon id="svg_71" points="89.8701171875,10.191015243530273 90.17012023925781,9.391016006469727 90.47012329101562,8.59101676940918 90.8701171875,7.891016006469727 91.3701171875,7.191015243530273 91.8701171875,6.59101676940918 92.3701171875,5.891016006469727 92.97012329101562,5.391016006469727 93.67012023925781,4.791015625 94.27011108398438,4.291015625 95.07011413574219,3.8910160064697266 95.77011108398438,3.491016387939453 96.57011413574219,3.19101619720459 97.27011108398438,2.8910160064697266 98.17012023925781,2.5910158157348633 98.97012329101562,2.491016387939453 99.77011108398438,2.291015625 100.67012023925781,2.19101619720459 101.47012329101562,2.19101619720459 102.3701171875,2.291015625 103.27011108398438,2.3910160064697266 104.07011413574219,2.5910158157348633 104.97012329101562,2.791015625 105.77011108398438,3.0910158157348633 106.57011413574219,3.491016387939453 107.47012329101562,3.991016387939453 108.17012023925781,4.491016387939453 108.97012329101562,5.191015243530273 109.67012023925781,5.891016006469727 110.3701171875,6.691015243530273 111.07011413574219,7.491016387939453 111.67012023925781,8.491016387939453 112.27011108398438,9.491016387939453 112.77011108398438,10.59101676940918 113.17012023925781,11.691015243530273 113.47012329101562,12.891016006469727 113.77011108398438,13.991016387939453 113.97012329101562,15.191015243530273 114.07011413574219,16.391016006469727 114.17012023925781,17.59101676940918 114.17012023925781,18.791015625 114.07011413574219,19.99101448059082 113.97012329101562,21.191015243530273 113.77011108398438,22.49101448059082 113.57011413574219,23.59101676940918 113.27011108398438,24.791017532348633 112.8701171875,25.891016006469727 112.47012329101562,27.09101676940918 112.07011413574219,28.191015243530273 111.57011413574219,29.191015243530273 111.07011413574219,30.291017532348633 110.47012329101562,31.191015243530273 109.8701171875,32.191017150878906 109.27011108398438,32.99101257324219 108.67012023925781,33.891014099121094 107.97012329101562,34.59101867675781 107.27011108398438,35.291015625 106.57011413574219,35.99101257324219 105.77011108398438,36.49101257324219 105.07011413574219,36.99101257324219 104.27011108398438,37.391014099121094 103.47012329101562,37.69101333618164 102.77011108398438,37.99101257324219 101.97012329101562,38.09101867675781 101.17012023925781,38.09101867675781 102.17012023925781,37.99101257324219 102.97012329101562,37.59101867675781 103.67012023925781,37.191017150878906 104.17012023925781,36.49101257324219 104.47012329101562,35.791019439697266 104.67012023925781,34.99101257324219 104.67012023925781,34.09101867675781 104.47012329101562,33.09101867675781 104.07011413574219,31.991016387939453 103.57011413574219,30.99101448059082 102.8701171875,29.891016006469727 102.07011413574219,28.791017532348633 100.97012329101562,27.691015243530273 99.77011108398438,26.691015243530273 98.3701171875,25.691015243530273 96.77011108398438,24.791017532348633 96.17012023925781,24.49101448059082 95.57011413574219,24.09101676940918 94.77011108398438,23.59101676940918 94.07011413574219,23.09101676940918 93.27011108398438,22.49101448059082 92.57011413574219,21.791017532348633 91.8701171875,21.09101676940918 91.27011108398438,20.191015243530273 90.67012023925781,19.291015625 90.17012023925781,18.291015625 89.77011108398438,17.191015243530273 89.47012329101562,15.991016387939453 89.27011108398438,14.691015243530273 89.27011108398438,13.291015625 89.47012329101562,11.791015625 89.8701171875,10.191015243530273 " fill="#EDC628" clip-rule="evenodd" fill-rule="evenodd"/>
   </g>
  </g>
 </g>
</svg>