<svg xmlns="http://www.w3.org/2000/svg" width="20" height="20"><defs><filter id="a" x="438" y="2231" width="20" height="20" filterUnits="userSpaceOnUse"><feFlood result="flood" flood-color="#212121"/><feComposite result="composite" operator="in" in2="SourceGraphic"/><feBlend result="blend" in2="SourceGraphic"/></filter></defs><path data-name="Presentation 3" d="M442.546 2237.36h3.636v4.55h-3.636v-4.55zm0 5.46h3.636a.911.911 0 0 0 .909-.91v-4.55a.911.911 0 0 0-.909-.91h-3.636a.911.911 0 0 0-.909.91v4.55a.911.911 0 0 0 .909.91zm14.545-9.09H438.91v-.91h18.181v.91zm-.909 11.82h-16.363v-10.91h16.363v10.91zm.909-13.64h-8.181a.91.91 0 1 0-1.819 0h-8.181a.9.9 0 0 0-.909.91v.91a.911.911 0 0 0 .909.91v10.91a.911.911 0 0 0 .909.91h7.727v1.17l-2.594 2.59a.481.481 0 0 0-.133.33.451.451 0 0 0 .454.45.46.46 0 0 0 .322-.13l2.4-2.41 2.406 2.41a.462.462 0 0 0 .322.13.451.451 0 0 0 .454-.45.481.481 0 0 0-.133-.33l-2.594-2.59v-1.17h7.727a.911.911 0 0 0 .909-.91v-10.91a.911.911 0 0 0 .909-.91v-.91a.9.9 0 0 0-.904-.91zm-7.727 10.91h4.545a.46.46 0 0 0 .455-.46.452.452 0 0 0-.455-.45h-4.545a.451.451 0 0 0-.454.45.459.459 0 0 0 .454.46zm0-3.64h4.545a.452.452 0 0 0 .455-.45.46.46 0 0 0-.455-.46h-4.545a.459.459 0 0 0-.454.46.451.451 0 0 0 .454.45zm0 1.82h1.818a.455.455 0 1 0 0-.91h-1.818a.455.455 0 0 0 0 .91zm0-3.64h2.727a.452.452 0 0 0 .455-.45.46.46 0 0 0-.455-.46h-2.727a.459.459 0 0 0-.454.46.451.451 0 0 0 .454.45z" transform="translate(-438 -2231)" fill="#212121" fill-rule="evenodd"/></svg>