<svg xmlns="http://www.w3.org/2000/svg" width="20" height="16"><defs><filter id="a" x="409.656" y="2231.66" width="20" height="16" filterUnits="userSpaceOnUse"><feFlood result="flood" flood-color="#212121"/><feComposite result="composite" operator="in" in2="SourceGraphic"/><feBlend result="blend" in2="SourceGraphic"/></filter></defs><path data-name="Video Camera 4" d="M415.566 2239.66a.4.4 0 1 0-.454-.4.431.431 0 0 0 .454.4zm-1.364-4a.807.807 0 1 0-.909-.8.861.861 0 0 0 .907.8zm8.636 9.6H411.93a.424.424 0 0 0-.455.4.431.431 0 0 0 .455.4h10.908a.43.43 0 0 0 .455-.4.424.424 0 0 0-.455-.4zm-10-5.6a.4.4 0 1 1-.455.4.43.43 0 0 1 .456-.4zm0 1.6a1.21 1.21 0 1 0-1.364-1.2 1.291 1.291 0 0 0 1.365 1.2zm7.727-5.6a.807.807 0 1 0-.909-.8.861.861 0 0 0 .91.8zm8.181 9.41l-3.636-1.28v-2.66l3.636-1.28v5.22zm-4.545-4.21v5.2a.861.861 0 0 1-.909.8h-11.817a.861.861 0 0 1-.909-.8v-7.2a.854.854 0 0 1 .909-.8h11.818a.854.854 0 0 1 .909.8v2zm-12.727-6a2.75 2.75 0 1 1 2.727 2.4 2.576 2.576 0 0 1-2.726-2.4zm6.691 2.4H416.6a3.536 3.536 0 0 0 .779-.86 3.542 3.542 0 0 0 .787.86zm2.4-4.8a2.42 2.42 0 1 1-2.727 2.4 2.576 2.576 0 0 1 2.728-2.4zm8.636 6.4a.444.444 0 0 0-.2.04l-3.887 1.37v-1.41a1.715 1.715 0 0 0-1.818-1.6h-.328a3.057 3.057 0 0 0 1.237-2.4 3.437 3.437 0 0 0-3.636-3.2 3.722 3.722 0 0 0-3.182 1.65 3.722 3.722 0 0 0-3.182-1.65 3.437 3.437 0 0 0-3.636 3.2 3.06 3.06 0 0 0 1.237 2.4h-.328a1.715 1.715 0 0 0-1.818 1.6v7.2a1.722 1.722 0 0 0 1.818 1.6h11.818a1.722 1.722 0 0 0 1.818-1.6v-1.42l3.887 1.37a.457.457 0 0 0 .2.05.43.43 0 0 0 .454-.4v-6.4a.43.43 0 0 0-.455-.4z" transform="translate(-409.656 -2231.66)" fill="#212121" fill-rule="evenodd"/></svg>