<svg xmlns="http://www.w3.org/2000/svg" width="20" height="16"><defs><filter id="a" x="758.656" y="2232" width="20" height="16" filterUnits="userSpaceOnUse"><feFlood result="flood" flood-color="#212121"/><feComposite result="composite" operator="in" in2="SourceGraphic"/><feBlend result="blend" in2="SourceGraphic"/></filter></defs><path data-name="Airplay Logo" d="M778.2 2232h-19.09a.45.45 0 0 0-.455.44v12.45a.45.45 0 0 0 .455.44h3.636a.445.445 0 1 0 0-.89h-3.182v-11.55h18.181v11.55h-3.181a.445.445 0 1 0 0 .89h3.636a.449.449 0 0 0 .454-.44v-12.45a.449.449 0 0 0-.454-.44zm-14.011 15.11l4.466-5.09 4.466 5.09h-8.932zm10.265.16l-5.454-6.23v.01a.443.443 0 0 0-.682 0v-.01l-5.455 6.23a.437.437 0 0 0 .342.73h10.908a.436.436 0 0 0 .341-.73z" transform="translate(-758.656 -2232)" fill="#212121" fill-rule="evenodd"/></svg>