<svg xmlns="http://www.w3.org/2000/svg" width="15" height="15"><defs><filter id="a" x="853" y="2484" width="15" height="15" filterUnits="userSpaceOnUse"><feFlood result="flood" flood-color="#212121"/><feComposite result="composite" operator="in" in2="SourceGraphic"/><feBlend result="blend" in2="SourceGraphic"/></filter></defs><path data-name="Photos@2x.png" d="M864.591 2497.64a.684.684 0 0 1-.682.68h-9.545a.684.684 0 0 1-.681-.68v-9.55a.678.678 0 0 1 .681-.68h9.545a.678.678 0 0 1 .682.68v9.55zm-.682-10.91h-9.545a1.362 1.362 0 0 0-1.363 1.36v9.55a1.362 1.362 0 0 0 1.363 1.36h9.545a1.363 1.363 0 0 0 1.364-1.36v-9.55a1.363 1.363 0 0 0-1.364-1.36zm2.727-2.73h-9.544a1.362 1.362 0 0 0-1.364 1.36v.34a.341.341 0 0 0 .682 0v-.34a.684.684 0 0 1 .682-.68h9.544a.684.684 0 0 1 .682.68v9.55a.678.678 0 0 1-.682.68h-.336a.34.34 0 1 0 0 .68h.341a1.363 1.363 0 0 0 1.364-1.36v-9.55a1.363 1.363 0 0 0-1.369-1.36zm-10.612 12.27l2.094-3.14 1.045 1.57a.341.341 0 0 0 .556.11l1.058-1.06 1.512 2.52h-6.265zm7.179.22v-.01a.029.029 0 0 1-.012-.02l-2.032-3.38a.339.339 0 0 0-.316-.22.348.348 0 0 0-.241.1l-1.074 1.08-1.1-1.65a.331.331 0 0 0-.592-.05v-.01l-2.728 4.09.006.01a.3.3 0 0 0-.063.18.339.339 0 0 0 .341.34h7.5a.338.338 0 0 0 .34-.34.323.323 0 0 0-.025-.12zm-6.793-7.04a.685.685 0 1 1-.682.69.687.687 0 0 1 .682-.69zm0 2.05a1.365 1.365 0 1 0-1.364-1.36 1.362 1.362 0 0 0 1.364 1.36z" transform="translate(-853 -2484)" fill="#212121" fill-rule="evenodd" filter="url(#a)"/></svg>