<svg width="290" height="70" xmlns="http://www.w3.org/2000/svg" xmlns:svg="http://www.w3.org/2000/svg">
 <g>
  <title>Layer 1</title>
  <g id="svg_1">
   <path id="svg_2" d="m99.87051,40.80781l-3.8,0l0,-0.3l0.8,0c0.2,0 0.3,-0.1 0.4,-0.2c0.1,-0.1 0.1,-0.3 0.1,-0.5l0,-7.2l-3.4,8.2l-0.3,0l-3.6,-8.5l0,4.5c0,1.2 0,2 0.1,2.5c0.1,0.8 0.4,1.2 0.8,1.2l0.3,0l0,0.4l-2.9,0l0,-0.4l0.3,0c0.4,0 0.6,-0.4 0.8,-1.2c0.1,-0.5 0.1,-1.4 0.1,-2.5l0,-4.3c0,-0.3 -0.1,-0.5 -0.2,-0.6c-0.1,-0.1 -0.2,-0.1 -0.3,-0.1l-0.7,0l0,-0.3l2.7,0l3.2,7.6l3.2,-7.6l2.4,0l0,0.4l-0.8,0c-0.2,0 -0.3,0.1 -0.4,0.2c-0.1,0.1 -0.1,0.3 -0.1,0.4l0,7.4c0,0.2 0,0.3 0.1,0.5c0.1,0.1 0.2,0.2 0.4,0.2l0.8,0l0,0.2l0,0z" fill="#BB2721"/>
   <path id="svg_3" d="m99.87051,40.80781l-3.8,0l0,-0.3l0.8,0c0.2,0 0.3,-0.1 0.4,-0.2c0.1,-0.1 0.1,-0.3 0.1,-0.5l0,-7.2l-3.4,8.2l-0.3,0l-3.6,-8.5l0,4.5c0,1.2 0,2 0.1,2.5c0.1,0.8 0.4,1.2 0.8,1.2l0.3,0l0,0.4l-2.9,0l0,-0.4l0.3,0c0.4,0 0.6,-0.4 0.8,-1.2c0.1,-0.5 0.1,-1.4 0.1,-2.5l0,-4.3c0,-0.3 -0.1,-0.5 -0.2,-0.6c-0.1,-0.1 -0.2,-0.1 -0.3,-0.1l-0.7,0l0,-0.3l2.7,0l3.2,7.6l3.2,-7.6l2.4,0l0,0.4l-0.8,0c-0.2,0 -0.3,0.1 -0.4,0.2c-0.1,0.1 -0.1,0.3 -0.1,0.4l0,7.4c0,0.2 0,0.3 0.1,0.5c0.1,0.1 0.2,0.2 0.4,0.2l0.8,0l0,0.2l0,0z" fill="none"/>
   <path id="svg_4" d="m191.67051,34.30781c0,0.9 -0.4,1.6 -1.1,2.1c-0.7,0.5 -1.6,0.7 -2.8,0.7c-0.4,0 -0.8,0 -1.2,-0.1l0,2.8c0,0.2 0,0.3 0.1,0.5c0.1,0.1 0.2,0.2 0.4,0.2l1,0l0,0.4l-4.1,0l0,-0.4l0.8,0c0.2,0 0.3,-0.1 0.4,-0.2c0.1,-0.1 0.1,-0.3 0.1,-0.5l0,-7.4c0,-0.2 0,-0.3 -0.1,-0.4c-0.1,-0.1 -0.2,-0.2 -0.4,-0.2l-0.8,0l0,-0.3l3.4,0c1.6,0 2.7,0.3 3.4,0.9c0.6,0.5 0.9,1.1 0.9,1.9l0,0zm-1.4,0c0,-0.7 -0.2,-1.3 -0.5,-1.7c-0.4,-0.5 -1.1,-0.8 -1.9,-0.8c-0.3,0 -0.5,0 -0.7,0.1c-0.2,0 -0.4,0.1 -0.6,0.2l0,4.5c0.1,0 0.2,0 0.4,0.1c0.2,0 0.4,0 0.5,0c0.7,0 1.3,-0.2 1.8,-0.5c0.7,-0.4 1,-1 1,-1.9l0,0z" fill="#BB2721"/>
   <path id="svg_5" d="m191.67051,34.30781c0,0.9 -0.4,1.6 -1.1,2.1c-0.7,0.5 -1.6,0.7 -2.8,0.7c-0.4,0 -0.8,0 -1.2,-0.1l0,2.8c0,0.2 0,0.3 0.1,0.5c0.1,0.1 0.2,0.2 0.4,0.2l1,0l0,0.4l-4.1,0l0,-0.4l0.8,0c0.2,0 0.3,-0.1 0.4,-0.2c0.1,-0.1 0.1,-0.3 0.1,-0.5l0,-7.4c0,-0.2 0,-0.3 -0.1,-0.4c-0.1,-0.1 -0.2,-0.2 -0.4,-0.2l-0.8,0l0,-0.3l3.4,0c1.6,0 2.7,0.3 3.4,0.9c0.6,0.5 0.9,1.1 0.9,1.9l0,0zm-1.4,0c0,-0.7 -0.2,-1.3 -0.5,-1.7c-0.4,-0.5 -1.1,-0.8 -1.9,-0.8c-0.3,0 -0.5,0 -0.7,0.1c-0.2,0 -0.4,0.1 -0.6,0.2l0,4.5c0.1,0 0.2,0 0.4,0.1c0.2,0 0.4,0 0.5,0c0.7,0 1.3,-0.2 1.8,-0.5c0.7,-0.4 1,-1 1,-1.9l0,0z" stroke-miterlimit="22.9256" stroke-width="0.216" stroke="#BB2721" fill="none"/>
   <path id="svg_6" d="m119.27051,40.80781l-3.4,0l0,-0.3l0.5,0c0.2,0 0.3,0 0.4,-0.1c0.1,0 0.1,-0.2 0.1,-0.3c0,-0.1 0,-0.3 -0.1,-0.5c-0.1,-0.2 -0.1,-0.4 -0.2,-0.5l-0.7,-1.9l-3,0l-0.3,0.8c-0.1,0.3 -0.2,0.6 -0.3,0.9c-0.1,0.4 -0.2,0.7 -0.2,0.9c0,0.2 0,0.3 0.1,0.4c0.1,0.1 0.2,0.2 0.3,0.2l0.5,0l0,0.4l-2.7,0l0,-0.3l0.3,0c0.2,0 0.4,-0.2 0.7,-0.5c0.4,-0.5 0.8,-1.4 1.3,-2.8l2.2,-5.9l0.4,0l3,8.4c0.1,0.2 0.2,0.4 0.2,0.5c0.2,0.2 0.4,0.3 0.7,0.3l0.3,0l0,0.3l-0.1,0zm-3.4,-4l-1.4,-3.9l-1.4,3.9l2.8,0l0,0z" fill="#BB2721"/>
   <path id="svg_7" d="m119.27051,40.80781l-3.4,0l0,-0.3l0.5,0c0.2,0 0.3,0 0.4,-0.1c0.1,0 0.1,-0.2 0.1,-0.3c0,-0.1 0,-0.3 -0.1,-0.5c-0.1,-0.2 -0.1,-0.4 -0.2,-0.5l-0.7,-1.9l-3,0l-0.3,0.8c-0.1,0.3 -0.2,0.6 -0.3,0.9c-0.1,0.4 -0.2,0.7 -0.2,0.9c0,0.2 0,0.3 0.1,0.4c0.1,0.1 0.2,0.2 0.3,0.2l0.5,0l0,0.4l-2.7,0l0,-0.3l0.3,0c0.2,0 0.4,-0.2 0.7,-0.5c0.4,-0.5 0.8,-1.4 1.3,-2.8l2.2,-5.9l0.4,0l3,8.4c0.1,0.2 0.2,0.4 0.2,0.5c0.2,0.2 0.4,0.3 0.7,0.3l0.3,0l0,0.3l-0.1,0zm-3.4,-4l-1.4,-3.9l-1.4,3.9l2.8,0l0,0z" stroke-miterlimit="22.9256" stroke-width="0.216" stroke="#BB2721" fill="none"/>
   <path id="svg_8" d="m137.17051,38.20781c-0.4,0.9 -1,1.6 -1.7,2.1c-0.6,0.4 -1.3,0.6 -2.2,0.6c-1.3,0 -2.4,-0.4 -3.2,-1.2c-0.9,-0.9 -1.4,-2.1 -1.4,-3.6c0,-1.4 0.4,-2.5 1.2,-3.5c0.9,-1 2,-1.5 3.5,-1.5c1.1,0 2,0.2 2.7,0.7l0,-0.5l0.4,0l0.2,2.6l-0.4,0l0,-0.3c0,-0.5 -0.3,-1 -0.8,-1.4c-0.6,-0.4 -1.3,-0.7 -2.1,-0.7c-1.1,0 -1.9,0.5 -2.5,1.5c-0.5,0.9 -0.7,1.9 -0.7,3.1c0,1.4 0.4,2.5 1.1,3.2c0.7,0.7 1.5,1 2.5,1c0.6,0 1.2,-0.2 1.7,-0.6c0.5,-0.4 1,-1 1.4,-1.8l0.3,0.3l0,0z" fill="#BB2721"/>
   <path id="svg_9" d="m137.17051,38.20781c-0.4,0.9 -1,1.6 -1.7,2.1c-0.6,0.4 -1.3,0.6 -2.2,0.6c-1.3,0 -2.4,-0.4 -3.2,-1.2c-0.9,-0.9 -1.4,-2.1 -1.4,-3.6c0,-1.4 0.4,-2.5 1.2,-3.5c0.9,-1 2,-1.5 3.5,-1.5c1.1,0 2,0.2 2.7,0.7l0,-0.5l0.4,0l0.2,2.6l-0.4,0l0,-0.3c0,-0.5 -0.3,-1 -0.8,-1.4c-0.6,-0.4 -1.3,-0.7 -2.1,-0.7c-1.1,0 -1.9,0.5 -2.5,1.5c-0.5,0.9 -0.7,1.9 -0.7,3.1c0,1.4 0.4,2.5 1.1,3.2c0.7,0.7 1.5,1 2.5,1c0.6,0 1.2,-0.2 1.7,-0.6c0.5,-0.4 1,-1 1.4,-1.8l0.3,0.3l0,0z" stroke-miterlimit="22.9256" stroke-width="0.216" stroke="#BB2721" fill="none"/>
   <path id="svg_10" d="m154.77051,33.50781l-0.4,0l0,-0.3c0,-0.4 -0.3,-0.7 -0.8,-1c-0.5,-0.3 -1.1,-0.4 -1.7,-0.4c-0.2,0 -0.3,0 -0.4,0c-0.1,0 -0.2,0.1 -0.2,0.2l0,7.8c0,0.2 0,0.3 0.1,0.5c0.1,0.1 0.2,0.2 0.4,0.2l0.8,0l0,0.4l-3.8,0l0,-0.4l0.8,0c0.2,0 0.3,-0.1 0.4,-0.2c0.1,-0.1 0.1,-0.3 0.1,-0.5l0,-7.8c0,-0.1 -0.1,-0.2 -0.2,-0.2c-0.1,0 -0.3,0 -0.4,0c-0.6,0 -1.2,0.1 -1.7,0.4c-0.5,0.3 -0.8,0.6 -0.8,1l0,0.3l-0.4,0l0,-2l8.3,0l0,2l-0.1,0z" fill="#BB2721"/>
   <path id="svg_11" d="m154.77051,33.50781l-0.4,0l0,-0.3c0,-0.4 -0.3,-0.7 -0.8,-1c-0.5,-0.3 -1.1,-0.4 -1.7,-0.4c-0.2,0 -0.3,0 -0.4,0c-0.1,0 -0.2,0.1 -0.2,0.2l0,7.8c0,0.2 0,0.3 0.1,0.5c0.1,0.1 0.2,0.2 0.4,0.2l0.8,0l0,0.4l-3.8,0l0,-0.4l0.8,0c0.2,0 0.3,-0.1 0.4,-0.2c0.1,-0.1 0.1,-0.3 0.1,-0.5l0,-7.8c0,-0.1 -0.1,-0.2 -0.2,-0.2c-0.1,0 -0.3,0 -0.4,0c-0.6,0 -1.2,0.1 -1.7,0.4c-0.5,0.3 -0.8,0.6 -0.8,1l0,0.3l-0.4,0l0,-2l8.3,0l0,2l-0.1,0z" stroke-miterlimit="22.9256" stroke-width="0.216" stroke="#BB2721" fill="none"/>
   <path id="svg_12" d="m173.37051,38.80781l-0.4,2.1l-7.2,0l0,-0.4l0.8,0c0.2,0 0.3,-0.1 0.4,-0.2c0.1,-0.1 0.1,-0.3 0.1,-0.5l0,-7.4c0,-0.2 0,-0.3 -0.1,-0.4c-0.1,-0.1 -0.2,-0.2 -0.4,-0.2l-0.8,0l0,-0.3l7.1,0l0.2,1.9l-0.4,0l-0.1,-0.4c0,-0.3 -0.3,-0.5 -0.7,-0.7c-0.6,-0.3 -1.5,-0.4 -2.7,-0.4l-0.5,0c-0.2,0 -0.3,0.1 -0.4,0.2c-0.1,0.1 -0.1,0.3 -0.1,0.4l0,3.3l0.6,0c1.1,0 1.7,-0.1 2.1,-0.3c0.2,-0.1 0.3,-0.3 0.3,-0.5l0,-0.3l0.4,0l0,2.6l-0.4,0l0,-0.3c0,-0.2 -0.1,-0.4 -0.3,-0.5c-0.3,-0.2 -1,-0.3 -2.1,-0.3l-0.5,0l0,3.8c0,0.2 0,0.3 0.1,0.5c0.1,0.1 0.2,0.2 0.4,0.2l0.2,0c1.3,0 2.3,-0.1 3,-0.4c0.6,-0.2 0.9,-0.6 1,-1l0.1,-0.3l0.3,0l0,-0.2z" fill="#BB2721"/>
   <path id="svg_13" d="m173.37051,38.80781l-0.4,2.1l-7.2,0l0,-0.4l0.8,0c0.2,0 0.3,-0.1 0.4,-0.2c0.1,-0.1 0.1,-0.3 0.1,-0.5l0,-7.4c0,-0.2 0,-0.3 -0.1,-0.4c-0.1,-0.1 -0.2,-0.2 -0.4,-0.2l-0.8,0l0,-0.3l7.1,0l0.2,1.9l-0.4,0l-0.1,-0.4c0,-0.3 -0.3,-0.5 -0.7,-0.7c-0.6,-0.3 -1.5,-0.4 -2.7,-0.4l-0.5,0c-0.2,0 -0.3,0.1 -0.4,0.2c-0.1,0.1 -0.1,0.3 -0.1,0.4l0,3.3l0.6,0c1.1,0 1.7,-0.1 2.1,-0.3c0.2,-0.1 0.3,-0.3 0.3,-0.5l0,-0.3l0.4,0l0,2.6l-0.4,0l0,-0.3c0,-0.2 -0.1,-0.4 -0.3,-0.5c-0.3,-0.2 -1,-0.3 -2.1,-0.3l-0.5,0l0,3.8c0,0.2 0,0.3 0.1,0.5c0.1,0.1 0.2,0.2 0.4,0.2l0.2,0c1.3,0 2.3,-0.1 3,-0.4c0.6,-0.2 0.9,-0.6 1,-1l0.1,-0.3l0.3,0l0,-0.2z" stroke-miterlimit="22.9256" stroke-width="0.216" stroke="#BB2721" fill="none"/>
   <path id="svg_14" d="m216.47051,39.70781c-0.1,0.8 -0.4,1.2 -1.1,1.2c-0.7,0 -1.3,-0.5 -1.9,-1.5c-0.5,-0.9 -0.9,-1.8 -1.4,-2.7c-0.2,-0.3 -0.4,-0.5 -0.6,-0.6c-0.2,-0.1 -0.5,-0.2 -0.8,-0.2l-0.5,0l0,3.9c0,0.2 0,0.3 0.1,0.4c0.1,0.1 0.2,0.2 0.4,0.2l0.8,0l0,0.4l-3.8,0l0,-0.4l0.8,0c0.2,0 0.3,-0.1 0.4,-0.2c0.1,-0.1 0.1,-0.3 0.1,-0.4l0,-7.4c0,-0.2 0,-0.3 -0.1,-0.5c-0.1,-0.1 -0.2,-0.2 -0.4,-0.2l-0.8,0l0,-0.4l3.8,0l0,0.4l-0.8,0c-0.2,0 -0.3,0.1 -0.4,0.2c-0.1,0.1 -0.1,0.3 -0.1,0.5l0,3.1l0.5,0c0.4,0 0.7,-0.1 1,-0.3c0.3,-0.3 0.7,-0.9 1.2,-1.8c0.4,-0.9 0.8,-1.5 1.1,-1.7c0.3,-0.3 0.7,-0.4 1.1,-0.4c0.3,0 0.5,0.1 0.7,0.2c0.2,0.2 0.3,0.4 0.3,0.6c0,0.2 -0.1,0.4 -0.2,0.5c-0.1,0.1 -0.3,0.2 -0.5,0.2c-0.2,0 -0.3,-0.1 -0.5,-0.2c-0.1,-0.1 -0.2,-0.3 -0.2,-0.5l0,-0.2c0,-0.1 0,-0.2 -0.1,-0.2c-0.2,0 -0.4,0.3 -0.7,0.9c-0.4,0.9 -0.6,1.5 -0.8,1.8c-0.4,0.7 -0.9,1.1 -1.6,1.3l0,0.1c0.6,0.1 1.1,0.3 1.6,0.7c0.4,0.3 0.7,0.7 1,1.3c0.2,0.3 0.4,0.8 0.7,1.5c0.1,0.3 0.2,0.6 0.4,0.8c0.1,0.2 0.3,0.4 0.5,0.4c0.1,0 0.2,-0.1 0.3,-0.2c0.1,-0.1 0.1,-0.3 0.1,-0.4l0.4,0l0,-0.2z" fill="#C5C5C5"/>
   <path id="svg_15" d="m216.47051,39.70781c-0.1,0.8 -0.4,1.2 -1.1,1.2c-0.7,0 -1.3,-0.5 -1.9,-1.5c-0.5,-0.9 -0.9,-1.8 -1.4,-2.7c-0.2,-0.3 -0.4,-0.5 -0.6,-0.6c-0.2,-0.1 -0.5,-0.2 -0.8,-0.2l-0.5,0l0,3.9c0,0.2 0,0.3 0.1,0.4c0.1,0.1 0.2,0.2 0.4,0.2l0.8,0l0,0.4l-3.8,0l0,-0.4l0.8,0c0.2,0 0.3,-0.1 0.4,-0.2c0.1,-0.1 0.1,-0.3 0.1,-0.4l0,-7.4c0,-0.2 0,-0.3 -0.1,-0.5c-0.1,-0.1 -0.2,-0.2 -0.4,-0.2l-0.8,0l0,-0.4l3.8,0l0,0.4l-0.8,0c-0.2,0 -0.3,0.1 -0.4,0.2c-0.1,0.1 -0.1,0.3 -0.1,0.5l0,3.1l0.5,0c0.4,0 0.7,-0.1 1,-0.3c0.3,-0.3 0.7,-0.9 1.2,-1.8c0.4,-0.9 0.8,-1.5 1.1,-1.7c0.3,-0.3 0.7,-0.4 1.1,-0.4c0.3,0 0.5,0.1 0.7,0.2c0.2,0.2 0.3,0.4 0.3,0.6c0,0.2 -0.1,0.4 -0.2,0.5c-0.1,0.1 -0.3,0.2 -0.5,0.2c-0.2,0 -0.3,-0.1 -0.5,-0.2c-0.1,-0.1 -0.2,-0.3 -0.2,-0.5l0,-0.2c0,-0.1 0,-0.2 -0.1,-0.2c-0.2,0 -0.4,0.3 -0.7,0.9c-0.4,0.9 -0.6,1.5 -0.8,1.8c-0.4,0.7 -0.9,1.1 -1.6,1.3l0,0.1c0.6,0.1 1.1,0.3 1.6,0.7c0.4,0.3 0.7,0.7 1,1.3c0.2,0.3 0.4,0.8 0.7,1.5c0.1,0.3 0.2,0.6 0.4,0.8c0.1,0.2 0.3,0.4 0.5,0.4c0.1,0 0.2,-0.1 0.3,-0.2c0.1,-0.1 0.1,-0.3 0.1,-0.4l0.4,0l0,-0.2z" stroke-miterlimit="22.9256" stroke-width="0.216" stroke="#C5C5C5" fill="none"/>
   <path id="svg_16" d="m235.07051,40.70781l-3.8,0l0,-0.4l0.8,0c0.2,0 0.3,-0.1 0.4,-0.2c0.1,-0.1 0.1,-0.3 0.1,-0.4l0,-7.4c0,-0.2 0,-0.3 -0.1,-0.5c-0.1,-0.1 -0.2,-0.2 -0.4,-0.2l-0.8,0c-0.7,0 -1.1,0.2 -1.2,0.5c-0.1,1 -0.3,2.1 -0.5,3.4c-0.3,1.9 -0.7,3.3 -1.1,4.1c-0.4,0.8 -0.9,1.2 -1.5,1.2c-0.4,0 -0.7,-0.1 -0.9,-0.3c-0.3,-0.2 -0.4,-0.5 -0.4,-0.8c0,-0.2 0.1,-0.4 0.2,-0.6c0.1,-0.2 0.3,-0.2 0.5,-0.2c0.3,0 0.4,0.1 0.5,0.2c0.1,0.1 0.2,0.3 0.2,0.5l0,0.2l-0.1,0.2c0,0.2 0.1,0.3 0.2,0.3c0.2,0 0.3,-0.1 0.5,-0.3c0.2,-0.3 0.4,-0.8 0.7,-1.5c0.2,-0.7 0.5,-1.7 0.7,-3.1c0.2,-1.4 0.3,-2.3 0.3,-2.8c0,-0.3 -0.1,-0.5 -0.2,-0.6c-0.1,-0.2 -0.3,-0.2 -0.5,-0.2l-0.9,0l0,-0.4l7.1,0l0,0.4l-0.6,0c-0.2,0 -0.3,0.1 -0.4,0.2c-0.1,0.1 -0.1,0.3 -0.1,0.5l0,7.4c0,0.2 0,0.3 0.1,0.4c0.1,0.1 0.2,0.2 0.4,0.2l0.8,0l0,0.2l0,0z" fill="#C5C5C5"/>
   <path id="svg_17" d="m235.07051,40.70781l-3.8,0l0,-0.4l0.8,0c0.2,0 0.3,-0.1 0.4,-0.2c0.1,-0.1 0.1,-0.3 0.1,-0.4l0,-7.4c0,-0.2 0,-0.3 -0.1,-0.5c-0.1,-0.1 -0.2,-0.2 -0.4,-0.2l-0.8,0c-0.7,0 -1.1,0.2 -1.2,0.5c-0.1,1 -0.3,2.1 -0.5,3.4c-0.3,1.9 -0.7,3.3 -1.1,4.1c-0.4,0.8 -0.9,1.2 -1.5,1.2c-0.4,0 -0.7,-0.1 -0.9,-0.3c-0.3,-0.2 -0.4,-0.5 -0.4,-0.8c0,-0.2 0.1,-0.4 0.2,-0.6c0.1,-0.2 0.3,-0.2 0.5,-0.2c0.3,0 0.4,0.1 0.5,0.2c0.1,0.1 0.2,0.3 0.2,0.5l0,0.2l-0.1,0.2c0,0.2 0.1,0.3 0.2,0.3c0.2,0 0.3,-0.1 0.5,-0.3c0.2,-0.3 0.4,-0.8 0.7,-1.5c0.2,-0.7 0.5,-1.7 0.7,-3.1c0.2,-1.4 0.3,-2.3 0.3,-2.8c0,-0.3 -0.1,-0.5 -0.2,-0.6c-0.1,-0.2 -0.3,-0.2 -0.5,-0.2l-0.9,0l0,-0.4l7.1,0l0,0.4l-0.6,0c-0.2,0 -0.3,0.1 -0.4,0.2c-0.1,0.1 -0.1,0.3 -0.1,0.5l0,7.4c0,0.2 0,0.3 0.1,0.4c0.1,0.1 0.2,0.2 0.4,0.2l0.8,0l0,0.2l0,0z" stroke-miterlimit="22.9256" stroke-width="0.216" stroke="#C5C5C5" fill="none"/>
   <path id="svg_18" d="m254.17051,40.80781l-3.4,0l0,-0.3l0.5,0c0.2,0 0.3,0 0.4,-0.1c0.1,0 0.1,-0.2 0.1,-0.3c0,-0.1 0,-0.3 -0.1,-0.5c-0.1,-0.2 -0.1,-0.4 -0.2,-0.5l-0.7,-1.9l-3,0l-0.3,0.8c-0.1,0.3 -0.2,0.6 -0.3,0.9c-0.1,0.4 -0.2,0.7 -0.2,0.9c0,0.2 0,0.3 0.1,0.4c0.1,0.1 0.2,0.2 0.3,0.2l0.5,0l0,0.4l-2.7,0l0,-0.3l0.3,0c0.2,0 0.4,-0.2 0.7,-0.5c0.4,-0.5 0.8,-1.4 1.3,-2.8l2.2,-5.9l0.4,0l3,8.4c0.1,0.2 0.2,0.4 0.2,0.5c0.2,0.2 0.4,0.3 0.7,0.3l0.3,0l0,0.3l-0.1,0zm-3.5,-4l-1.4,-3.9l-1.4,3.9l2.8,0l0,0z" fill="#C5C5C5"/>
   <path id="svg_19" d="m254.17051,40.80781l-3.4,0l0,-0.3l0.5,0c0.2,0 0.3,0 0.4,-0.1c0.1,0 0.1,-0.2 0.1,-0.3c0,-0.1 0,-0.3 -0.1,-0.5c-0.1,-0.2 -0.1,-0.4 -0.2,-0.5l-0.7,-1.9l-3,0l-0.3,0.8c-0.1,0.3 -0.2,0.6 -0.3,0.9c-0.1,0.4 -0.2,0.7 -0.2,0.9c0,0.2 0,0.3 0.1,0.4c0.1,0.1 0.2,0.2 0.3,0.2l0.5,0l0,0.4l-2.7,0l0,-0.3l0.3,0c0.2,0 0.4,-0.2 0.7,-0.5c0.4,-0.5 0.8,-1.4 1.3,-2.8l2.2,-5.9l0.4,0l3,8.4c0.1,0.2 0.2,0.4 0.2,0.5c0.2,0.2 0.4,0.3 0.7,0.3l0.3,0l0,0.3l-0.1,0zm-3.5,-4l-1.4,-3.9l-1.4,3.9l2.8,0l0,0z" stroke-miterlimit="22.9256" stroke-width="0.216" stroke="#C5C5C5" fill="none"/>
   <path id="svg_20" d="m271.67051,38.20781c-0.4,0.9 -1,1.6 -1.7,2.1c-0.6,0.4 -1.3,0.6 -2.2,0.6c-1.3,0 -2.4,-0.4 -3.2,-1.2c-0.9,-0.9 -1.4,-2.1 -1.4,-3.6c0,-1.4 0.4,-2.5 1.2,-3.5c0.9,-1 2,-1.5 3.5,-1.5c1.1,0 2,0.2 2.7,0.7l0,-0.5l0.4,0l0.2,2.6l-0.4,0l0,-0.3c0,-0.5 -0.3,-1 -0.8,-1.4c-0.6,-0.4 -1.3,-0.7 -2.1,-0.7c-1.1,0 -1.9,0.5 -2.5,1.5c-0.5,0.8 -0.7,1.9 -0.7,3.1c0,1.4 0.4,2.5 1.1,3.2c0.7,0.7 1.5,1 2.5,1c0.6,0 1.2,-0.2 1.7,-0.6c0.5,-0.4 1,-1 1.4,-1.8l0.3,0.3l0,0z" fill="#C5C5C5"/>
   <path id="svg_21" d="m271.67051,38.20781c-0.4,0.9 -1,1.6 -1.7,2.1c-0.6,0.4 -1.3,0.6 -2.2,0.6c-1.3,0 -2.4,-0.4 -3.2,-1.2c-0.9,-0.9 -1.4,-2.1 -1.4,-3.6c0,-1.4 0.4,-2.5 1.2,-3.5c0.9,-1 2,-1.5 3.5,-1.5c1.1,0 2,0.2 2.7,0.7l0,-0.5l0.4,0l0.2,2.6l-0.4,0l0,-0.3c0,-0.5 -0.3,-1 -0.8,-1.4c-0.6,-0.4 -1.3,-0.7 -2.1,-0.7c-1.1,0 -1.9,0.5 -2.5,1.5c-0.5,0.8 -0.7,1.9 -0.7,3.1c0,1.4 0.4,2.5 1.1,3.2c0.7,0.7 1.5,1 2.5,1c0.6,0 1.2,-0.2 1.7,-0.6c0.5,-0.4 1,-1 1.4,-1.8l0.3,0.3l0,0z" stroke-miterlimit="22.9256" stroke-width="0.216" stroke="#C5C5C5" fill="none"/>
   <path id="svg_22" d="m288.77051,38.20781c-0.4,0.9 -1,1.6 -1.7,2.1c-0.6,0.4 -1.3,0.6 -2.2,0.6c-1.3,0 -2.4,-0.4 -3.2,-1.2c-0.9,-0.9 -1.4,-2.1 -1.4,-3.6c0,-1.4 0.4,-2.5 1.2,-3.5c0.9,-1 2,-1.5 3.5,-1.5c1.1,0 2,0.2 2.7,0.7l0,-0.5l0.4,0l0.2,2.6l-0.4,0l0,-0.3c0,-0.5 -0.3,-1 -0.8,-1.4c-0.6,-0.4 -1.3,-0.7 -2,-0.7c-1.1,0 -1.9,0.5 -2.5,1.5c-0.5,0.8 -0.7,1.9 -0.7,3.1c0,1.4 0.4,2.5 1.1,3.2c0.7,0.7 1.5,1 2.5,1c0.6,0 1.2,-0.2 1.7,-0.6c0.5,-0.4 1,-1 1.4,-1.8l0.2,0.3l0,0z" fill="#C5C5C5"/>
   <path id="svg_23" d="m288.77051,38.20781c-0.4,0.9 -1,1.6 -1.7,2.1c-0.6,0.4 -1.3,0.6 -2.2,0.6c-1.3,0 -2.4,-0.4 -3.2,-1.2c-0.9,-0.9 -1.4,-2.1 -1.4,-3.6c0,-1.4 0.4,-2.5 1.2,-3.5c0.9,-1 2,-1.5 3.5,-1.5c1.1,0 2,0.2 2.7,0.7l0,-0.5l0.4,0l0.2,2.6l-0.4,0l0,-0.3c0,-0.5 -0.3,-1 -0.8,-1.4c-0.6,-0.4 -1.3,-0.7 -2,-0.7c-1.1,0 -1.9,0.5 -2.5,1.5c-0.5,0.8 -0.7,1.9 -0.7,3.1c0,1.4 0.4,2.5 1.1,3.2c0.7,0.7 1.5,1 2.5,1c0.6,0 1.2,-0.2 1.7,-0.6c0.5,-0.4 1,-1 1.4,-1.8l0.2,0.3l0,0z" stroke-miterlimit="22.9256" stroke-width="0.216" stroke="#C5C5C5" fill="none"/>
   <polygon id="svg_24" points="91.47050476074219,48.5078125 91.07051086425781,48.5078125 91.07051086425781,45.70780944824219 90.07051086425781,48.5078125 89.6705093383789,48.5078125 88.7705078125,45.70780944824219 88.7705078125,48.5078125 88.2705078125,48.5078125 88.2705078125,45.20780944824219 88.97050476074219,45.20780944824219 89.8705062866211,48.0078125 90.7705078125,45.20780944824219 91.47050476074219,45.20780944824219 91.47050476074219,48.5078125 " fill="#6F6F6E"/>
   <path id="svg_25" d="m110.27051,47.10781l-0.6,-1.6l-0.6,1.6l1.2,0l0,0zm1,1.4l-0.5,0l-0.4,-1l-1.4,0l-0.4,1l-0.5,0l1.3,-3.4l0.5,0l1.4,3.4l0,0z" fill="#6F6F6E"/>
   <path id="svg_26" d="m129.27051,48.60781c-0.5,0 -0.8,-0.1 -1.1,-0.3c-0.2,-0.2 -0.4,-0.5 -0.4,-0.8l0.4,0c0,0.3 0.1,0.4 0.3,0.6c0.2,0.1 0.4,0.2 0.7,0.2c0.3,0 0.5,-0.1 0.6,-0.2c0.2,-0.1 0.2,-0.2 0.2,-0.4c0,-0.2 -0.1,-0.3 -0.2,-0.4c-0.2,-0.1 -0.4,-0.2 -0.8,-0.2c-0.4,-0.1 -0.7,-0.2 -0.8,-0.3c-0.2,-0.1 -0.3,-0.3 -0.3,-0.6c0,-0.3 0.1,-0.5 0.3,-0.7c0.2,-0.2 0.5,-0.3 0.9,-0.3c0.4,0 0.7,0.1 0.9,0.3c0.2,0.2 0.4,0.4 0.4,0.7l-0.4,0c0,-0.4 -0.3,-0.6 -0.8,-0.6c-0.2,0 -0.4,0 -0.6,0.1c-0.1,0.1 -0.2,0.2 -0.2,0.4c0,0.1 0.1,0.2 0.2,0.3c0.1,0.1 0.3,0.1 0.6,0.2c0.3,0.1 0.5,0.1 0.7,0.2c0.2,0.1 0.3,0.2 0.5,0.3c0.1,0.1 0.2,0.3 0.2,0.5c0,0.3 -0.1,0.5 -0.3,0.7c-0.4,0.2 -0.7,0.3 -1,0.3l0,0z" fill="#6F6F6E"/>
   <polygon id="svg_27" points="149.7705078125,45.607810974121094 148.67050170898438,45.607810974121094 148.67050170898438,48.5078125 148.17050170898438,48.5078125 148.17050170898438,45.607810974121094 147.0705108642578,45.607810974121094 147.0705108642578,45.20780944824219 149.7705078125,45.20780944824219 149.7705078125,45.607810974121094 " fill="#6F6F6E"/>
   <polygon id="svg_28" points="169.0705108642578,48.5078125 166.5705108642578,48.5078125 166.5705108642578,45.20780944824219 168.9705047607422,45.20780944824219 168.9705047607422,45.607810974121094 166.9705047607422,45.607810974121094 166.9705047607422,46.607810974121094 168.87051391601562,46.607810974121094 168.87051391601562,47.0078125 166.9705047607422,47.0078125 166.9705047607422,48.107810974121094 169.0705108642578,48.107810974121094 169.0705108642578,48.5078125 " fill="#6F6F6E"/>
   <path id="svg_29" d="m188.77051,48.50781l-0.5,0l-0.3,-0.9c-0.1,-0.2 -0.2,-0.3 -0.3,-0.4c-0.1,-0.1 -0.3,-0.2 -0.5,-0.2l-0.8,0l0,1.5l-0.4,0l0,-3.4l1.5,0c0.3,0 0.5,0 0.6,0.1c0.2,0 0.3,0.2 0.4,0.3c0.1,0.2 0.2,0.3 0.2,0.5c0,0.2 -0.1,0.4 -0.2,0.6c-0.1,0.2 -0.3,0.3 -0.6,0.3l0,0c0.2,0.1 0.4,0.3 0.5,0.6l0.4,1l0,0zm-2.4,-1.8l1,0c0.3,0 0.5,0 0.6,-0.1c0.1,-0.1 0.2,-0.2 0.2,-0.5c0,-0.4 -0.2,-0.6 -0.7,-0.6l-1.1,0l0,1.2l0,0z" fill="#6F6F6E"/>
   <path id="svg_30" d="m209.57051,48.60781c-0.5,0 -0.9,-0.2 -1.1,-0.5c-0.3,-0.3 -0.4,-0.7 -0.4,-1.3c0,-0.5 0.1,-1 0.4,-1.3c0.3,-0.3 0.7,-0.5 1.1,-0.5c0.4,0 0.7,0.1 0.9,0.3c0.3,0.2 0.4,0.5 0.4,0.8l-0.5,0c0,-0.2 -0.1,-0.4 -0.3,-0.5c-0.2,-0.1 -0.4,-0.2 -0.6,-0.2c-0.3,0 -0.6,0.1 -0.8,0.4c-0.2,0.2 -0.3,0.6 -0.3,1c0,0.4 0.1,0.8 0.3,1c0.2,0.2 0.5,0.4 0.8,0.4c0.3,0 0.5,-0.1 0.6,-0.2c0.2,-0.1 0.3,-0.3 0.3,-0.6l0.5,0c0,0.4 -0.2,0.6 -0.4,0.8c-0.2,0.3 -0.5,0.4 -0.9,0.4l0,0z" fill="#6F6F6E"/>
   <polygon id="svg_31" points="229.9705047607422,48.5078125 227.87051391601562,48.5078125 227.87051391601562,45.20780944824219 228.2705078125,45.20780944824219 228.2705078125,48.107810974121094 229.9705047607422,48.107810974121094 229.9705047607422,48.5078125 " fill="#6F6F6E"/>
   <path id="svg_32" d="m248.47051,47.10781l-0.6,-1.6l-0.6,1.6l1.2,0l0,0zm1.1,1.4l-0.5,0l-0.4,-1l-1.4,0l-0.4,1l-0.5,0l1.3,-3.4l0.5,0l1.4,3.4l0,0z" fill="#6F6F6E"/>
   <path id="svg_33" d="m267.47051,48.60781c-0.5,0 -0.8,-0.1 -1.1,-0.3c-0.2,-0.2 -0.4,-0.5 -0.4,-0.8l0.4,0c0,0.3 0.1,0.4 0.3,0.6c0.2,0.1 0.4,0.2 0.7,0.2c0.3,0 0.5,-0.1 0.6,-0.2c0.2,-0.1 0.2,-0.2 0.2,-0.4c0,-0.2 -0.1,-0.3 -0.2,-0.4c-0.2,-0.1 -0.4,-0.2 -0.8,-0.2c-0.4,-0.1 -0.7,-0.2 -0.8,-0.3c-0.2,-0.1 -0.3,-0.3 -0.3,-0.6c0,-0.3 0.1,-0.5 0.3,-0.7c0.2,-0.2 0.5,-0.3 0.9,-0.3c0.4,0 0.7,0.1 0.9,0.3c0.2,0.2 0.4,0.4 0.4,0.7l-0.4,0c0,-0.4 -0.3,-0.6 -0.8,-0.6c-0.2,0 -0.4,0 -0.6,0.1c-0.1,0.1 -0.2,0.2 -0.2,0.4c0,0.1 0.1,0.2 0.2,0.3c0.1,0.1 0.3,0.1 0.6,0.2c0.3,0.1 0.5,0.1 0.7,0.2c0.2,0.1 0.3,0.2 0.5,0.3c0.1,0.1 0.2,0.3 0.2,0.5c0,0.3 -0.1,0.5 -0.3,0.7c-0.3,0.2 -0.6,0.3 -1,0.3l0,0z" fill="#6F6F6E"/>
   <path id="svg_34" d="m287.17051,48.60781c-0.5,0 -0.8,-0.1 -1.1,-0.3c-0.2,-0.2 -0.4,-0.5 -0.4,-0.8l0.4,0c0,0.3 0.1,0.4 0.3,0.6c0.2,0.1 0.4,0.2 0.7,0.2c0.3,0 0.5,-0.1 0.6,-0.2c0.2,-0.1 0.2,-0.2 0.2,-0.4c0,-0.2 -0.1,-0.3 -0.2,-0.4c-0.2,-0.1 -0.4,-0.2 -0.8,-0.2c-0.4,-0.1 -0.7,-0.2 -0.8,-0.3c-0.2,-0.1 -0.3,-0.3 -0.3,-0.6c0,-0.3 0.1,-0.5 0.3,-0.7c0.2,-0.2 0.5,-0.3 0.9,-0.3c0.4,0 0.7,0.1 0.9,0.3c0.2,0.2 0.4,0.4 0.4,0.7l-0.4,0c0,-0.4 -0.3,-0.6 -0.8,-0.6c-0.2,0 -0.4,0 -0.6,0.1c-0.1,0.1 -0.2,0.2 -0.2,0.4c0,0.1 0.1,0.2 0.2,0.3c0.1,0.1 0.3,0.1 0.6,0.2c0.3,0.1 0.5,0.1 0.7,0.2c0.2,0.1 0.3,0.2 0.5,0.3c0.1,0.1 0.2,0.3 0.2,0.5c0,0.3 -0.1,0.5 -0.3,0.7c-0.3,0.2 -0.6,0.3 -1,0.3l0,0z" fill="#6F6F6E"/>
   <polygon id="svg_35" points="91.57051086425781,27.307811737060547 91.1705093383789,27.307811737060547 91.1705093383789,24.607810974121094 90.2705078125,27.307811737060547 89.8705062866211,27.307811737060547 88.97050476074219,24.607810974121094 88.97050476074219,27.307811737060547 88.57051086425781,27.307811737060547 88.57051086425781,24.107810974121094 89.1705093383789,24.107810974121094 90.07051086425781,26.807811737060547 90.97050476074219,24.107810974121094 91.57051086425781,24.107810974121094 91.57051086425781,27.307811737060547 " fill="#6F6F6E"/>
   <polygon id="svg_36" points="98.1705093383789,27.307811737060547 95.7705078125,27.307811737060547 95.7705078125,24.107810974121094 98.07051086425781,24.107810974121094 98.07051086425781,24.5078125 96.1705093383789,24.5078125 96.1705093383789,25.5078125 97.97050476074219,25.5078125 97.97050476074219,25.807811737060547 96.1705093383789,25.807811737060547 96.1705093383789,26.907814025878906 98.1705093383789,26.907814025878906 98.1705093383789,27.307811737060547 " fill="#6F6F6E"/>
   <polygon id="svg_37" points="105.8705062866211,27.307811737060547 105.2705078125,27.307811737060547 104.07051086425781,25.807811737060547 104.07051086425781,27.307811737060547 103.6705093383789,27.307811737060547 103.6705093383789,25.807811737060547 102.47050476074219,27.307811737060547 101.8705062866211,27.307811737060547 103.3705062866211,25.5078125 101.97050476074219,24.107810974121094 102.47050476074219,24.107810974121094 103.6705093383789,25.307811737060547 103.6705093383789,24.107810974121094 104.07051086425781,24.107810974121094 104.07051086425781,25.307811737060547 105.2705078125,24.107810974121094 105.7705078125,24.107810974121094 104.3705062866211,25.5078125 105.8705062866211,27.307811737060547 " fill="#6F6F6E"/>
   <path id="svg_38" d="m112.27051,26.90781l0.4,0l0,1.1l-0.4,0l0,-0.7l-2.4,0l0,0.7l-0.4,0l0,-1.1l0.3,0c0.1,-0.2 0.2,-0.4 0.3,-0.8c0.1,-0.3 0.1,-0.8 0.1,-1.5l0,-0.5l2.2,0l0,2.8l-0.1,0zm-0.4,0l0,-2.4l-1.3,0l0,0.2c0,0.6 0,1.1 -0.1,1.4c-0.1,0.3 -0.2,0.6 -0.3,0.8l1.7,0l0,0z" fill="#6F6F6E"/>
   <path id="svg_39" d="m119.17051,24.10781l-1.2,2.3c-0.2,0.4 -0.4,0.6 -0.5,0.7c-0.1,0.1 -0.3,0.2 -0.4,0.2c-0.1,0 -0.3,0 -0.4,-0.1l0,-0.4c0.1,0 0.2,0.1 0.4,0.1c0.2,0 0.4,-0.2 0.5,-0.5l-0.6,-1.2l-0.6,-1.2l0.5,0l0.5,0.9l0.5,0.9l0.9,-1.9l0.4,0l0,0.2z" fill="#6F6F6E"/>
   <polygon id="svg_40" points="125.47050476074219,27.307811737060547 125.07051086425781,27.307811737060547 125.07051086425781,25.807811737060547 123.47050476074219,25.807811737060547 123.47050476074219,27.307811737060547 122.97050476074219,27.307811737060547 122.97050476074219,24.107810974121094 123.47050476074219,24.107810974121094 123.47050476074219,25.407814025878906 125.07051086425781,25.407814025878906 125.07051086425781,24.107810974121094 125.47050476074219,24.107810974121094 125.47050476074219,27.307811737060547 " fill="#6F6F6E"/>
   <path id="svg_41" d="m131.37051,26.00781l-0.6,-1.5l-0.5,1.5l1.1,0l0,0zm0.9,1.3l-0.5,0l-0.4,-1l-1.3,0l-0.3,1l-0.4,0l1.2,-3.2l0.5,0l1.2,3.2l0,0z" fill="#6F6F6E"/>
   <path id="svg_42" d="m136.17051,24.10781l1.2,0c0.3,0 0.5,0 0.6,0.1c0.2,0 0.3,0.2 0.4,0.3c0.1,0.2 0.2,0.3 0.2,0.5c0,0.3 -0.1,0.6 -0.3,0.7c-0.2,0.2 -0.5,0.2 -0.9,0.2l-0.8,0l0,1.3l-0.4,0l0,-3.1l0,0zm0.4,1.5l0.8,0c0.3,0 0.5,0 0.6,-0.2c0.1,-0.1 0.2,-0.2 0.2,-0.4c0,-0.1 0,-0.2 -0.1,-0.3c-0.1,-0.1 -0.1,-0.2 -0.2,-0.2c-0.1,0 -0.2,0 -0.4,0l-0.8,0l0,1.1l-0.1,0z" fill="#6F6F6E"/>
   <path id="svg_43" d="m143.97051,24.10781c0.4,0 0.8,0.1 1.1,0.4c0.3,0.3 0.4,0.7 0.4,1.2c0,0.5 -0.1,0.9 -0.4,1.2c-0.3,0.3 -0.6,0.4 -1.1,0.4c-0.4,0 -0.8,-0.1 -1.1,-0.5c-0.3,-0.3 -0.4,-0.7 -0.4,-1.2c0,-0.5 0.1,-0.9 0.4,-1.2c0.3,-0.2 0.7,-0.3 1.1,-0.3l0,0zm0,2.9c0.3,0 0.6,-0.1 0.8,-0.3c0.2,-0.2 0.3,-0.5 0.3,-0.9c0,-0.4 -0.1,-0.7 -0.3,-0.9c-0.2,-0.2 -0.5,-0.3 -0.8,-0.3c-0.3,0 -0.6,0.1 -0.8,0.3c-0.2,0.2 -0.3,0.5 -0.3,0.9c0,0.4 0.1,0.7 0.3,0.9c0.3,0.2 0.5,0.3 0.8,0.3l0,0z" fill="#6F6F6E"/>
   <path id="svg_44" d="m152.17051,26.90781l0.4,0l0,1.1l-0.4,0l0,-0.7l-2.4,0l0,0.7l-0.5,0l0,-1.1l0.3,0c0.1,-0.2 0.2,-0.4 0.3,-0.8c0.1,-0.3 0.1,-0.8 0.1,-1.5l0,-0.5l2.2,0l0,2.8l0,0zm-0.4,0l0,-2.4l-1.3,0l0,0.2c0,0.6 0,1.1 -0.1,1.4c-0.1,0.3 -0.2,0.6 -0.3,0.8l1.7,0l0,0z" fill="#6F6F6E"/>
   <polygon id="svg_45" points="158.9705047607422,27.307811737060547 158.5705108642578,27.307811737060547 158.5705108642578,25.807811737060547 156.9705047607422,25.807811737060547 156.9705047607422,27.307811737060547 156.5705108642578,27.307811737060547 156.5705108642578,24.107810974121094 156.9705047607422,24.107810974121094 156.9705047607422,25.407814025878906 158.5705108642578,25.407814025878906 158.5705108642578,24.107810974121094 158.9705047607422,24.107810974121094 158.9705047607422,27.307811737060547 " fill="#6F6F6E"/>
   <path id="svg_46" d="m163.67051,25.40781l0.7,0c0.8,0 1.2,0.3 1.2,0.9c0,0.3 -0.1,0.5 -0.3,0.7c-0.2,0.2 -0.5,0.2 -0.9,0.2l-1.1,0l0,-3.2l0.4,0l0,1.4l0,0zm0,1.5l0.8,0c0.5,0 0.8,-0.2 0.8,-0.5c0,-0.2 -0.1,-0.3 -0.2,-0.4c-0.1,-0.1 -0.3,-0.1 -0.6,-0.1l-0.7,0l0,1l-0.1,0zm2.8,0.4l-0.4,0l0,-3.2l0.4,0l0,3.2l0,0z" fill="#6F6F6E"/>
   <path id="svg_47" d="m173.17051,27.30781l-0.4,0l0,-2.5l-1.7,2.5l-0.4,0l0,-3.2l0.4,0l0,2.5l1.7,-2.5l0.4,0l0,3.2l0,0zm-0.6,-4c0,0.2 -0.1,0.3 -0.2,0.4c-0.1,0.1 -0.3,0.1 -0.4,0.1c-0.2,0 -0.3,0 -0.4,-0.1c-0.1,-0.1 -0.2,-0.2 -0.2,-0.4l0.3,0c0,0.2 0.2,0.3 0.4,0.3c0.2,0 0.3,-0.1 0.4,-0.3l0.1,0l0,0z" fill="#6F6F6E"/>
   <path id="svg_48" d="m181.47051,24.50781c0.5,0 0.8,0.1 1.1,0.3c0.3,0.2 0.4,0.5 0.4,0.9c0,0.4 -0.1,0.7 -0.4,0.9c-0.3,0.2 -0.6,0.3 -1.1,0.3l0,0.4l-0.4,0l0,-0.4c-0.5,0 -0.8,-0.1 -1.1,-0.3c-0.3,-0.2 -0.4,-0.5 -0.4,-0.9c0,-0.4 0.1,-0.7 0.4,-0.9c0.3,-0.2 0.6,-0.3 1.1,-0.3l0,-0.3l0.4,0l0,0.3l0,0zm0,2c0.3,0 0.6,-0.1 0.8,-0.2c0.2,-0.1 0.3,-0.4 0.3,-0.7c0,-0.3 -0.1,-0.5 -0.3,-0.7c-0.2,-0.1 -0.4,-0.2 -0.8,-0.2l0,1.8l0,0zm-0.5,0l0,-1.7c-0.3,0 -0.6,0.1 -0.8,0.2c-0.2,0.1 -0.3,0.4 -0.3,0.7c0,0.3 0.1,0.5 0.3,0.7c0.2,0.1 0.5,0.1 0.8,0.1l0,0z" fill="#6F6F6E"/>
   <polygon id="svg_49" points="189.37051391601562,27.307811737060547 186.9705047607422,27.307811737060547 186.9705047607422,24.107810974121094 189.2705078125,24.107810974121094 189.2705078125,24.5078125 187.37051391601562,24.5078125 187.37051391601562,25.5078125 189.17050170898438,25.5078125 189.17050170898438,25.807811737060547 187.37051391601562,25.807811737060547 187.37051391601562,26.907814025878906 189.37051391601562,26.907814025878906 189.37051391601562,27.307811737060547 " fill="#6F6F6E"/>
   <path id="svg_50" d="m194.77051,27.30781c-0.4,0 -0.8,-0.1 -1.1,-0.4c-0.3,-0.3 -0.4,-0.7 -0.4,-1.2c0,-0.5 0.1,-0.9 0.4,-1.2c0.3,-0.3 0.6,-0.4 1.1,-0.4c0.3,0 0.6,0.1 0.9,0.3c0.2,0.2 0.4,0.4 0.4,0.7l-0.4,0c0,-0.2 -0.1,-0.4 -0.3,-0.5c-0.2,-0.1 -0.4,-0.2 -0.6,-0.2c-0.3,0 -0.6,0.1 -0.8,0.3c-0.2,0.2 -0.3,0.5 -0.3,0.9c0,0.4 0.1,0.7 0.3,0.9c0.2,0.2 0.4,0.3 0.8,0.3c0.2,0 0.4,-0.1 0.6,-0.2c0.2,-0.1 0.2,-0.3 0.3,-0.5l0.4,0c0,0.3 -0.2,0.6 -0.4,0.8c-0.3,0.3 -0.6,0.4 -0.9,0.4l0,0z" fill="#6F6F6E"/>
   <polygon id="svg_51" points="202.37051391601562,24.5078125 201.37051391601562,24.5078125 201.37051391601562,27.307811737060547 200.9705047607422,27.307811737060547 200.9705047607422,24.5078125 199.87051391601562,24.5078125 199.87051391601562,24.107810974121094 202.37051391601562,24.107810974121094 202.37051391601562,24.5078125 " fill="#6F6F6E"/>
   <polygon id="svg_52" points="208.87051391601562,27.307811737060547 208.4705047607422,27.307811737060547 208.4705047607422,24.707813262939453 206.7705078125,27.307811737060547 206.37051391601562,27.307811737060547 206.37051391601562,24.107810974121094 206.7705078125,24.107810974121094 206.7705078125,26.707813262939453 208.37051391601562,24.107810974121094 208.87051391601562,24.107810974121094 208.87051391601562,27.307811737060547 " fill="#6F6F6E"/>
   <path id="svg_53" d="m215.47051,26.40781c0,0.3 -0.1,0.5 -0.3,0.7c-0.2,0.2 -0.5,0.2 -0.9,0.2l-1.2,0l0,-3.2l1.1,0c0.3,0 0.6,0.1 0.8,0.2c0.2,0.1 0.3,0.3 0.3,0.6c0,0.3 -0.2,0.5 -0.5,0.7c0.2,0.1 0.4,0.1 0.5,0.3c0.1,0.1 0.2,0.3 0.2,0.5l0,0zm-2,-1l0.7,0c0.2,0 0.4,0 0.5,-0.1c0.1,-0.1 0.2,-0.2 0.2,-0.4c0,-0.2 -0.1,-0.3 -0.2,-0.3c-0.1,-0.1 -0.3,-0.1 -0.6,-0.1l-0.7,0l0,0.9l0.1,0zm0,1.5l0.8,0c0.5,0 0.8,-0.2 0.8,-0.5c0,-0.2 -0.1,-0.3 -0.2,-0.4c-0.1,-0.1 -0.3,-0.1 -0.6,-0.1l-0.7,0l0,1l-0.1,0z" fill="#6F6F6E"/>
   <path id="svg_54" d="m221.17051,26.00781l-0.6,-1.5l-0.5,1.5l1.1,0l0,0zm0.9,1.3l-0.5,0l-0.4,-1l-1.3,0l-0.3,1l-0.4,0l1.2,-3.2l0.5,0l1.2,3.2l0,0z" fill="#6F6F6E"/>
   <path id="svg_55" d="m228.37051,27.30781l-0.4,0l0,-2.8l-1.4,0l0,2c0,0.6 -0.2,0.9 -0.6,0.9c-0.1,0 -0.2,0 -0.3,0l0,-0.4c0.1,0 0.1,0 0.2,0c0.1,0 0.2,0 0.2,-0.1c0,-0.1 0.1,-0.2 0.1,-0.4l0,-2.4l2.2,0l0,3.2l0,0z" fill="#6F6F6E"/>
   <path id="svg_56" d="m233.07051,25.40781l0.7,0c0.8,0 1.2,0.3 1.2,0.9c0,0.3 -0.1,0.5 -0.3,0.7c-0.2,0.2 -0.5,0.2 -0.9,0.2l-1.2,0l0,-3.2l0.4,0l0,1.4l0.1,0zm0,1.5l0.8,0c0.5,0 0.8,-0.2 0.8,-0.5c0,-0.2 -0.1,-0.3 -0.2,-0.4c-0.1,-0.1 -0.3,-0.1 -0.6,-0.1l-0.7,0l0,1l-0.1,0z" fill="#6F6F6E"/>
   <polygon id="svg_57" points="242.67050170898438,27.307811737060547 242.2705078125,27.307811737060547 242.2705078125,24.707813262939453 240.67050170898438,27.307811737060547 240.17050170898438,27.307811737060547 240.17050170898438,24.107810974121094 240.5705108642578,24.107810974121094 240.5705108642578,26.707813262939453 242.2705078125,24.107810974121094 242.67050170898438,24.107810974121094 242.67050170898438,27.307811737060547 " fill="#6F6F6E"/>
   <path id="svg_58" d="m248.27051,27.30781c-0.4,0 -0.8,-0.1 -1.1,-0.4c-0.3,-0.3 -0.4,-0.7 -0.4,-1.2c0,-0.5 0.1,-0.9 0.4,-1.2c0.3,-0.3 0.6,-0.4 1.1,-0.4c0.3,0 0.6,0.1 0.9,0.3c0.2,0.2 0.4,0.4 0.4,0.7l-0.4,0c0,-0.2 -0.1,-0.4 -0.3,-0.5c-0.2,-0.1 -0.4,-0.2 -0.6,-0.2c-0.3,0 -0.6,0.1 -0.8,0.3c-0.2,0.2 -0.3,0.5 -0.3,0.9c0,0.4 0.1,0.7 0.3,0.9c0.2,0.2 0.4,0.3 0.8,0.3c0.2,0 0.4,-0.1 0.6,-0.2c0.2,-0.1 0.2,-0.3 0.3,-0.5l0.4,0c0,0.3 -0.2,0.6 -0.4,0.8c-0.3,0.3 -0.6,0.4 -0.9,0.4l0,0z" fill="#6F6F6E"/>
   <polygon id="svg_59" points="256.1705017089844,27.307811737060547 255.67050170898438,27.307811737060547 254.47052001953125,25.707813262939453 254.07049560546875,26.207813262939453 254.07049560546875,27.307811737060547 253.57049560546875,27.307811737060547 253.57049560546875,24.107810974121094 254.07049560546875,24.107810974121094 254.07049560546875,25.707813262939453 255.57049560546875,24.107810974121094 256.1705017089844,24.107810974121094 254.7705078125,25.407814025878906 256.1705017089844,27.307811737060547 " fill="#6F6F6E"/>
   <path id="svg_60" d="m262.57051,24.10781l-1.2,2.3c-0.2,0.4 -0.4,0.6 -0.5,0.7c-0.1,0.1 -0.3,0.2 -0.4,0.2c-0.1,0 -0.3,0 -0.4,-0.1l0,-0.4c0.1,0 0.2,0.1 0.4,0.1c0.2,0 0.4,-0.2 0.5,-0.5l-0.6,-1.2l-0.6,-1.2l0.5,0l0.5,0.9l0.5,0.9l0.9,-1.9l0.4,0l0,0.2z" fill="#6F6F6E"/>
   <path id="svg_61" d="m267.77051,27.30781c-0.4,0 -0.8,-0.1 -1.1,-0.4c-0.3,-0.3 -0.4,-0.7 -0.4,-1.2c0,-0.5 0.1,-0.9 0.4,-1.2c0.3,-0.3 0.6,-0.4 1.1,-0.4c0.3,0 0.6,0.1 0.9,0.3c0.2,0.2 0.4,0.4 0.4,0.7l-0.4,0c0,-0.2 -0.1,-0.4 -0.3,-0.5c-0.2,-0.1 -0.4,-0.2 -0.6,-0.2c-0.3,0 -0.6,0.1 -0.8,0.3c-0.2,0.2 -0.3,0.5 -0.3,0.9c0,0.4 0.1,0.7 0.3,0.9c0.2,0.2 0.4,0.3 0.8,0.3c0.2,0 0.4,-0.1 0.6,-0.2c0.2,-0.1 0.2,-0.3 0.3,-0.5l0.4,0c0,0.3 -0.2,0.6 -0.4,0.8c-0.3,0.3 -0.6,0.4 -0.9,0.4l0,0z" fill="#6F6F6E"/>
   <path id="svg_62" d="m274.47051,27.30781c-0.4,0 -0.8,-0.1 -1.1,-0.4c-0.3,-0.3 -0.4,-0.7 -0.4,-1.2c0,-0.5 0.1,-0.9 0.4,-1.2c0.3,-0.3 0.6,-0.4 1.1,-0.4c0.3,0 0.6,0.1 0.9,0.3c0.2,0.2 0.4,0.4 0.4,0.7l-0.5,0c0,-0.2 -0.1,-0.4 -0.3,-0.5c-0.2,-0.1 -0.4,-0.2 -0.6,-0.2c-0.3,0 -0.6,0.1 -0.8,0.3c-0.2,0.2 -0.3,0.5 -0.3,0.9c0,0.4 0.1,0.7 0.3,0.9c0.2,0.2 0.4,0.3 0.8,0.3c0.2,0 0.4,-0.1 0.6,-0.2c0.2,-0.1 0.2,-0.3 0.3,-0.5l0.4,0c0,0.3 -0.2,0.6 -0.4,0.8c-0.2,0.3 -0.5,0.4 -0.8,0.4l0,0z" fill="#6F6F6E"/>
   <polygon id="svg_63" points="282.07049560546875,24.5078125 281.07049560546875,24.5078125 281.07049560546875,27.307811737060547 280.57049560546875,27.307811737060547 280.57049560546875,24.5078125 279.57049560546875,24.5078125 279.57049560546875,24.107810974121094 282.07049560546875,24.107810974121094 282.07049560546875,24.5078125 " fill="#6F6F6E"/>
   <path id="svg_64" d="m288.37051,26.40781c0,0.3 -0.1,0.5 -0.3,0.7c-0.2,0.2 -0.5,0.2 -0.9,0.2l-1.2,0l0,-3.2l1.1,0c0.3,0 0.6,0.1 0.8,0.2c0.2,0.1 0.3,0.3 0.3,0.6c0,0.3 -0.2,0.5 -0.5,0.7c0.2,0.1 0.4,0.1 0.5,0.3c0.2,0.1 0.2,0.3 0.2,0.5l0,0zm-1.9,-1l0.7,0c0.2,0 0.4,0 0.5,-0.1c0.1,-0.1 0.2,-0.2 0.2,-0.4c0,-0.2 -0.1,-0.3 -0.2,-0.3c-0.1,-0.1 -0.3,-0.1 -0.6,-0.1l-0.7,0l0,0.9l0.1,0zm0,1.5l0.8,0c0.5,0 0.8,-0.2 0.8,-0.5c0,-0.2 -0.1,-0.3 -0.2,-0.4c-0.1,-0.1 -0.3,-0.1 -0.6,-0.1l-0.7,0l0,1l-0.1,0z" fill="#6F6F6E"/>
   <line id="svg_65" y2="42.60781" x2="288.37051" y1="42.60781" x1="88.27051" stroke-miterlimit="22.9256" stroke-width="0.216" stroke="#A22224" fill="none"/>
  </g>
  <g id="svg_66">
   <path id="svg_67" d="m35.27051,0.58594c19.2,0 34.7,15.4 34.7,34.4c0,19 -15.6,34.4 -34.7,34.4c-19.2,0 -34.7,-15.4 -34.7,-34.4c0,-19 15.5,-34.4 34.7,-34.4l0,0z" stroke-miterlimit="22.9256" stroke-width="0.75" stroke="#D67C1B" fill="none"/>
   <polygon id="svg_68" points="46.47050857543945,59.985939025878906 46.2705078125,60.78593444824219 45.870506286621094,61.485939025878906 45.57050704956055,62.185935974121094 45.07050704956055,62.88594055175781 44.57050704956055,63.5859375 44.07050704956055,64.1859359741211 43.47050857543945,64.78593444824219 42.7705078125,65.28593444824219 42.07050704956055,65.78593444824219 41.370506286621094,66.1859359741211 40.670509338378906,66.5859375 39.870506286621094,66.9859390258789 39.07050704956055,67.28593444824219 38.2705078125,67.4859390258789 37.47050857543945,67.6859359741211 36.57050704956055,67.78593444824219 35.7705078125,67.88594055175781 34.870506286621094,67.88594055175781 34.07050704956055,67.88594055175781 33.170509338378906,67.6859359741211 32.370506286621094,67.5859375 31.470508575439453,67.28593444824219 30.670509338378906,66.9859390258789 29.870506286621094,66.5859375 28.970508575439453,66.0859375 28.2705078125,65.5859375 27.470508575439453,64.9859390258789 26.7705078125,64.28593444824219 26.070507049560547,63.485939025878906 25.370506286621094,62.5859375 24.7705078125,61.685935974121094 24.17050552368164,60.5859375 23.670509338378906,59.485939025878906 23.2705078125,58.38594055175781 22.870506286621094,57.28593444824219 22.670509338378906,56.0859375 22.470508575439453,54.88594055175781 22.370506286621094,53.685935974121094 22.2705078125,52.485939025878906 22.2705078125,51.28593444824219 22.370506286621094,50.0859375 22.470508575439453,48.88594055175781 22.670509338378906,47.685935974121094 22.870506286621094,46.485939025878906 23.17050552368164,45.28593444824219 23.570507049560547,44.185935974121094 23.970508575439453,43.0859375 24.370506286621094,41.985939025878906 24.870506286621094,40.88594055175781 25.370506286621094,39.88594055175781 25.970508575439453,38.88594055175781 26.570507049560547,37.985939025878906 27.17050552368164,37.0859375 27.7705078125,36.28593444824219 28.470508575439453,35.485939025878906 29.17050552368164,34.78593444824219 29.870506286621094,34.185935974121094 30.570507049560547,33.5859375 31.370506286621094,33.0859375 32.170509338378906,32.685935974121094 32.97050857543945,32.38594055175781 33.670509338378906,32.185935974121094 34.47050857543945,31.985939025878906 35.2705078125,31.985939025878906 34.2705078125,32.185935974121094 33.47050857543945,32.485939025878906 32.7705078125,32.985939025878906 32.2705078125,33.5859375 31.870506286621094,34.28593444824219 31.7705078125,35.185935974121094 31.7705078125,36.0859375 31.970508575439453,37.0859375 32.2705078125,38.0859375 32.870506286621094,39.185935974121094 33.57050704956055,40.28593444824219 34.370506286621094,41.28593444824219 35.47050857543945,42.38594055175781 36.670509338378906,43.38594055175781 38.07050704956055,44.38594055175781 39.57050704956055,45.28593444824219 40.2705078125,45.5859375 40.870506286621094,45.985939025878906 41.670509338378906,46.485939025878906 42.370506286621094,46.985939025878906 43.07050704956055,47.5859375 43.870506286621094,48.28593444824219 44.57050704956055,49.0859375 45.170509338378906,49.88594055175781 45.7705078125,50.88594055175781 46.2705078125,51.88594055175781 46.670509338378906,52.88594055175781 46.97050857543945,54.185935974121094 47.07050704956055,55.485939025878906 47.07050704956055,56.88594055175781 46.870506286621094,58.38594055175781 46.47050857543945,59.985939025878906 " fill="#312E81" clip-rule="evenodd" fill-rule="evenodd"/>
   <polygon id="svg_69" points="9.970508575439453,46.0859375 9.170507431030273,45.78593444824219 8.470508575439453,45.485939025878906 7.670507431030273,45.0859375 7.07050895690918,44.685935974121094 6.370508193969727,44.185935974121094 5.7705078125,43.5859375 5.17050838470459,42.985939025878906 4.670507431030273,42.38594055175781 4.17050838470459,41.685935974121094 3.6705074310302734,40.985939025878906 3.2705078125,40.28593444824219 2.9705076217651367,39.485939025878906 2.6705074310302734,38.685935974121094 2.3705081939697266,37.88594055175781 2.2705078125,37.0859375 2.0705080032348633,36.28593444824219 1.9705076217651367,35.38594055175781 1.9705076217651367,34.5859375 2.0705080032348633,33.685935974121094 2.17050838470459,32.88594055175781 2.3705081939697266,31.985939025878906 2.5705080032348633,31.185935974121094 2.9705076217651367,30.385940551757812 3.2705078125,29.485939025878906 3.7705078125,28.685935974121094 4.370508193969727,27.985939025878906 4.970507621765137,27.185935974121094 5.670507431030273,26.485939025878906 6.470508575439453,25.785938262939453 7.370508193969727,25.0859375 8.2705078125,24.485939025878906 9.370508193969727,23.985939025878906 10.470508575439453,23.485939025878906 11.570507049560547,23.0859375 12.7705078125,22.685935974121094 13.970508575439453,22.385936737060547 15.070507049560547,22.185935974121094 16.370508193969727,22.0859375 17.570507049560547,21.985939025878906 18.7705078125,22.0859375 19.970508575439453,22.0859375 21.170507431030273,22.285938262939453 22.470508575439453,22.385936737060547 23.570507049560547,22.685935974121094 24.7705078125,22.985939025878906 25.970508575439453,23.285938262939453 27.070507049560547,23.685935974121094 28.17050552368164,24.185935974121094 29.2705078125,24.5859375 30.2705078125,25.0859375 31.2705078125,25.685935974121094 32.2705078125,26.285938262939453 33.07050704956055,26.885936737060547 33.97050857543945,27.485939025878906 34.670509338378906,28.185935974121094 35.47050857543945,28.885940551757812 36.07050704956055,29.5859375 36.670509338378906,30.285934448242188 37.170509338378906,31.0859375 37.57050704956055,31.785934448242188 37.870506286621094,32.5859375 38.07050704956055,33.38594055175781 38.170509338378906,34.185935974121094 38.2705078125,34.985939025878906 38.07050704956055,33.985939025878906 37.7705078125,33.0859375 37.2705078125,32.38594055175781 36.670509338378906,31.885940551757812 35.870506286621094,31.5859375 35.07050704956055,31.385940551757812 34.170509338378906,31.485939025878906 33.170509338378906,31.5859375 32.07050704956055,31.985939025878906 30.970508575439453,32.485939025878906 29.970508575439453,33.185935974121094 28.870506286621094,34.0859375 27.7705078125,35.0859375 26.670509338378906,36.28593444824219 25.7705078125,37.685935974121094 24.870506286621094,39.185935974121094 24.470508575439453,39.88594055175781 24.070507049560547,40.485939025878906 23.570507049560547,41.185935974121094 23.070507049560547,41.985939025878906 22.470508575439453,42.685935974121094 21.7705078125,43.38594055175781 20.970508575439453,44.0859375 20.170507431030273,44.78593444824219 19.170507431030273,45.38594055175781 18.170507431030273,45.88594055175781 17.070507049560547,46.28593444824219 15.870508193969727,46.485939025878906 14.570507049560547,46.685935974121094 13.170507431030273,46.685935974121094 11.670507431030273,46.485939025878906 9.970508575439453,46.0859375 " fill="#C31520" clip-rule="evenodd" fill-rule="evenodd"/>
   <polygon id="svg_70" points="60.57051086425781,23.785938262939453 61.370506286621094,24.0859375 62.07051086425781,24.385936737060547 62.870506286621094,24.785938262939453 63.57051086425781,25.285938262939453 64.1705093383789,25.785938262939453 64.8705062866211,26.285938262939453 65.3705062866211,26.885936737060547 65.97050476074219,27.485939025878906 66.47050476074219,28.185935974121094 66.8705062866211,28.885940551757812 67.2705078125,29.685935974121094 67.6705093383789,30.385940551757812 67.97050476074219,31.185935974121094 68.1705093383789,31.985939025878906 68.3705062866211,32.78593444824219 68.47050476074219,33.685935974121094 68.57051086425781,34.485939025878906 68.57051086425781,35.28593444824219 68.57051086425781,36.185935974121094 68.3705062866211,37.0859375 68.2705078125,37.88594055175781 67.97050476074219,38.78593444824219 67.6705093383789,39.5859375 67.2705078125,40.38594055175781 66.7705078125,41.185935974121094 66.2705078125,41.88594055175781 65.57051086425781,42.685935974121094 64.8705062866211,43.38594055175781 64.07051086425781,44.0859375 63.2705078125,44.78593444824219 62.2705078125,45.38594055175781 61.2705078125,45.985939025878906 60.170509338378906,46.485939025878906 58.97050476074219,46.88594055175781 57.870506286621094,47.185935974121094 56.670509338378906,47.485939025878906 55.47050476074219,47.685935974121094 54.2705078125,47.78593444824219 53.07050704956055,47.88594055175781 51.870506286621094,47.88594055175781 50.57050704956055,47.78593444824219 49.370506286621094,47.685935974121094 48.170509338378906,47.485939025878906 46.97050857543945,47.185935974121094 45.7705078125,46.88594055175781 44.670509338378906,46.5859375 43.47050857543945,46.185935974121094 42.370506286621094,45.78593444824219 41.370506286621094,45.28593444824219 40.2705078125,44.78593444824219 39.2705078125,44.185935974121094 38.370506286621094,43.5859375 37.47050857543945,42.985939025878906 36.670509338378906,42.38594055175781 35.870506286621094,41.685935974121094 35.170509338378906,40.985939025878906 34.57050704956055,40.28593444824219 33.97050857543945,39.5859375 33.47050857543945,38.88594055175781 33.07050704956055,38.0859375 32.7705078125,37.28593444824219 32.47050857543945,36.485939025878906 32.370506286621094,35.78593444824219 32.370506286621094,34.985939025878906 32.47050857543945,35.985939025878906 32.870506286621094,36.78593444824219 33.2705078125,37.485939025878906 33.97050857543945,37.985939025878906 34.670509338378906,38.28593444824219 35.47050857543945,38.485939025878906 36.47050857543945,38.485939025878906 37.47050857543945,38.28593444824219 38.47050857543945,37.88594055175781 39.57050704956055,37.38594055175781 40.670509338378906,36.685935974121094 41.7705078125,35.88594055175781 42.7705078125,34.78593444824219 43.870506286621094,33.5859375 44.870506286621094,32.185935974121094 45.7705078125,30.685935974121094 46.07050704956055,30.0859375 46.47050857543945,29.385940551757812 46.97050857543945,28.685935974121094 47.47050857543945,27.985939025878906 48.07050704956055,27.185935974121094 48.7705078125,26.485939025878906 49.57050704956055,25.785938262939453 50.370506286621094,25.0859375 51.370506286621094,24.5859375 52.370506286621094,24.0859375 53.47050857543945,23.685935974121094 54.670509338378906,23.385936737060547 55.97050476074219,23.285938262939453 57.47050476074219,23.285938262939453 58.97050476074219,23.485939025878906 60.57051086425781,23.785938262939453 " fill="#437441" clip-rule="evenodd" fill-rule="evenodd"/>
   <polygon id="svg_71" points="24.070507049560547,9.885936737060547 24.370506286621094,9.0859375 24.670509338378906,8.385936737060547 25.070507049560547,7.685935974121094 25.470508575439453,6.985939025878906 25.970508575439453,6.285938262939453 26.570507049560547,5.685935974121094 27.17050552368164,5.185935974121094 27.7705078125,4.5859375 28.470508575439453,4.0859375 29.17050552368164,3.6859359741210938 29.970508575439453,3.285938262939453 30.670509338378906,2.885936737060547 31.470508575439453,2.6859359741210938 32.2705078125,2.385936737060547 33.170509338378906,2.1859359741210938 33.97050857543945,2.0859375 34.870506286621094,1.9859390258789062 35.670509338378906,1.9859390258789062 36.57050704956055,2.0859375 37.370506286621094,2.1859359741210938 38.2705078125,2.385936737060547 39.170509338378906,2.5859375 39.97050857543945,2.885936737060547 40.7705078125,3.285938262939453 41.57050704956055,3.785938262939453 42.370506286621094,4.285938262939453 43.170509338378906,4.985939025878906 43.870506286621094,5.685935974121094 44.57050704956055,6.385936737060547 45.170509338378906,7.285938262939453 45.870506286621094,8.285938262939453 46.370506286621094,9.285938262939453 46.870506286621094,10.385936737060547 47.370506286621094,11.485939025878906 47.670509338378906,12.685935974121094 47.97050857543945,13.785938262939453 48.170509338378906,14.985939025878906 48.2705078125,16.185935974121094 48.370506286621094,17.385936737060547 48.2705078125,18.5859375 48.2705078125,19.785938262939453 48.07050704956055,20.985939025878906 47.97050857543945,22.185935974121094 47.670509338378906,23.385936737060547 47.370506286621094,24.5859375 47.07050704956055,25.685935974121094 46.670509338378906,26.885936737060547 46.170509338378906,27.885936737060547 45.7705078125,28.985939025878906 45.170509338378906,29.985939025878906 44.670509338378906,30.985939025878906 44.07050704956055,31.985939025878906 43.47050857543945,32.78593444824219 42.7705078125,33.5859375 42.170509338378906,34.38594055175781 41.47050857543945,35.0859375 40.670509338378906,35.685935974121094 39.97050857543945,36.28593444824219 39.2705078125,36.78593444824219 38.47050857543945,37.185935974121094 37.670509338378906,37.485939025878906 36.870506286621094,37.685935974121094 36.07050704956055,37.88594055175781 35.2705078125,37.88594055175781 36.370506286621094,37.78593444824219 37.170509338378906,37.38594055175781 37.870506286621094,36.88594055175781 38.370506286621094,36.28593444824219 38.670509338378906,35.5859375 38.870506286621094,34.78593444824219 38.870506286621094,33.78593444824219 38.670509338378906,32.88594055175781 38.2705078125,31.785934448242188 37.7705078125,30.685935974121094 37.07050704956055,29.685935974121094 36.170509338378906,28.5859375 35.170509338378906,27.485939025878906 33.97050857543945,26.485939025878906 32.57050704956055,25.485939025878906 30.970508575439453,24.5859375 30.370506286621094,24.285938262939453 29.670509338378906,23.885936737060547 28.970508575439453,23.385936737060547 28.2705078125,22.885936737060547 27.470508575439453,22.285938262939453 26.7705078125,21.5859375 26.070507049560547,20.785938262939453 25.370506286621094,19.985939025878906 24.7705078125,19.0859375 24.2705078125,18.0859375 23.870506286621094,16.985939025878906 23.570507049560547,15.785938262939453 23.470508575439453,14.485939025878906 23.470508575439453,13.0859375 23.670509338378906,11.5859375 24.070507049560547,9.885936737060547 " fill="#EDC628" clip-rule="evenodd" fill-rule="evenodd"/>
  </g>
 </g>
</svg>