<svg xmlns="http://www.w3.org/2000/svg" viewBox="0 0 562.81 89.12"><defs><style>.cls-1{fill:#da231c;}.cls-2{fill:none;stroke:#da231c;stroke-miterlimit:22.93;stroke-width:0.22px;}.cls-3{fill:#706f6f;}.cls-4{fill:#ef7d00;}.cls-5{fill:#2f2a84;}.cls-5,.cls-6,.cls-7,.cls-8{fill-rule:evenodd;}.cls-6{fill:#e40e1b;}.cls-7{fill:#0f753c;}.cls-8{fill:#fbc800;}</style></defs><title>logo_and_title</title><g id="Слой_2" data-name="Слой 2"><g id="Layer_1" data-name="Layer 1"><path class="cls-1" d="M25.62,56.11H17.26v-.83h1.69a1,1,0,0,0,.87-.34,1.66,1.66,0,0,0,.25-1V38L12.46,56.11h-.77L3.78,37.41v9.87a34.63,34.63,0,0,0,.3,5.45q.47,2.54,1.78,2.55h.68v.83H.13v-.83H.69q1.27,0,1.75-2.55a33,33,0,0,0,.33-5.45v-9.6a1.64,1.64,0,0,0-.38-1.27,1.11,1.11,0,0,0-.74-.21H.13v-.83h6l7,16.68,7.08-16.68h5.39v.83H23.93a1,1,0,0,0-.88.34,1.66,1.66,0,0,0-.25,1V53.94a1.66,1.66,0,0,0,.25,1,1,1,0,0,0,.88.34h1.69v.83Z"/><text></text><path class="cls-1" d="M228.22,41.71a5.41,5.41,0,0,1-2.4,4.68,10.48,10.48,0,0,1-6.13,1.6,17.18,17.18,0,0,1-2.7-.24v6.19a1.67,1.67,0,0,0,.25,1,1,1,0,0,0,.88.34h2.28v.83h-8.95v-.83h1.69a1,1,0,0,0,.87-.34,1.66,1.66,0,0,0,.25-1V37.53a1.7,1.7,0,0,0-.25-1,1,1,0,0,0-.87-.34h-1.7v-.83H219q5.27,0,7.52,2.07a5.5,5.5,0,0,1,1.68,4.27Zm-3,0a5.81,5.81,0,0,0-1.18-3.79,5.09,5.09,0,0,0-4.21-1.72,6.7,6.7,0,0,0-1.57.16,5.52,5.52,0,0,0-1.3.49v10l1,.16a8.34,8.34,0,0,0,1.2.11A6.94,6.94,0,0,0,223.21,46a4.84,4.84,0,0,0,2-4.26Z"/><path class="cls-2" d="M228.22,41.71a5.41,5.41,0,0,1-2.4,4.68,10.48,10.48,0,0,1-6.13,1.6,17.18,17.18,0,0,1-2.7-.24v6.19a1.67,1.67,0,0,0,.25,1,1,1,0,0,0,.88.34h2.28v.83h-8.95v-.83h1.69a1,1,0,0,0,.87-.34,1.66,1.66,0,0,0,.25-1V37.53a1.7,1.7,0,0,0-.25-1,1,1,0,0,0-.87-.34h-1.7v-.83H219q5.27,0,7.52,2.07a5.5,5.5,0,0,1,1.68,4.27Zm-3,0a5.81,5.81,0,0,0-1.18-3.79,5.09,5.09,0,0,0-4.21-1.72,6.7,6.7,0,0,0-1.57.16,5.52,5.52,0,0,0-1.3.49v10l1,.16a8.34,8.34,0,0,0,1.2.11A6.94,6.94,0,0,0,223.21,46a4.84,4.84,0,0,0,2-4.26Z"/><path class="cls-1" d="M68.4,56.11H60.81v-.83H62a2.08,2.08,0,0,0,.89-.15c.2-.1.29-.34.29-.71a3.62,3.62,0,0,0-.26-1.17c-.18-.49-.3-.85-.38-1.08L61,48H54.32l-.68,1.83-.77,2.08a6.45,6.45,0,0,0-.47,2,1.81,1.81,0,0,0,.24,1,.71.71,0,0,0,.62.38h1.18v.83h-6v-.83H49c.48,0,1-.38,1.48-1.15A30.78,30.78,0,0,0,53.26,48L58.09,35H59L65.7,53.47a5.1,5.1,0,0,0,.53,1.13,1.81,1.81,0,0,0,1.51.68h.65v.83Zm-7.62-8.92L57.7,38.65l-3.09,8.54Z"/><path class="cls-2" d="M68.4,56.11H60.81v-.83H62a2.08,2.08,0,0,0,.89-.15c.2-.1.29-.34.29-.71a3.62,3.62,0,0,0-.26-1.17c-.18-.49-.3-.85-.38-1.08L61,48H54.32l-.68,1.83-.77,2.08a6.45,6.45,0,0,0-.47,2,1.81,1.81,0,0,0,.24,1,.71.71,0,0,0,.62.38h1.18v.83h-6v-.83H49c.48,0,1-.38,1.48-1.15A30.78,30.78,0,0,0,53.26,48L58.09,35H59L65.7,53.47a5.1,5.1,0,0,0,.53,1.13,1.81,1.81,0,0,0,1.51.68h.65v.83Zm-7.62-8.92L57.7,38.65l-3.09,8.54Z"/><path class="cls-1" d="M107.95,50.18a10.55,10.55,0,0,1-3.76,4.63,8.68,8.68,0,0,1-4.77,1.3,10.08,10.08,0,0,1-7.17-2.7,10.28,10.28,0,0,1-3.11-7.85,11.41,11.41,0,0,1,2.64-7.65,9.67,9.67,0,0,1,7.76-3.38,11.23,11.23,0,0,1,6,1.45l0-1h.95l.42,5.66h-.95l-.06-.71a3.86,3.86,0,0,0-1.81-3.08,7.24,7.24,0,0,0-4.53-1.45A6,6,0,0,0,94,38.65a13.65,13.65,0,0,0-1.63,6.93q0,4.65,2.46,7.17A7.41,7.41,0,0,0,100.36,55a6.24,6.24,0,0,0,3.85-1.29,10.47,10.47,0,0,0,3-3.92l.74.38Z"/><path class="cls-2" d="M107.95,50.18a10.55,10.55,0,0,1-3.76,4.63,8.68,8.68,0,0,1-4.77,1.3,10.08,10.08,0,0,1-7.17-2.7,10.28,10.28,0,0,1-3.11-7.85,11.41,11.41,0,0,1,2.64-7.65,9.67,9.67,0,0,1,7.76-3.38,11.23,11.23,0,0,1,6,1.45l0-1h.95l.42,5.66h-.95l-.06-.71a3.86,3.86,0,0,0-1.81-3.08,7.24,7.24,0,0,0-4.53-1.45A6,6,0,0,0,94,38.65a13.65,13.65,0,0,0-1.63,6.93q0,4.65,2.46,7.17A7.41,7.41,0,0,0,100.36,55a6.24,6.24,0,0,0,3.85-1.29,10.47,10.47,0,0,0,3-3.92l.74.38Z"/><path class="cls-1" d="M146.84,40h-.95v-.68q0-1.18-1.76-2.15a7.7,7.7,0,0,0-3.75-1,4.36,4.36,0,0,0-1,.09.45.45,0,0,0-.38.47V53.94a1.66,1.66,0,0,0,.25,1,1,1,0,0,0,.88.34h1.69v.83h-8.36v-.83h1.69a1,1,0,0,0,.87-.34,1.65,1.65,0,0,0,.25-1V36.76c0-.24-.14-.39-.43-.46a4,4,0,0,0-.93-.11,7.72,7.72,0,0,0-3.73,1q-1.78,1-1.78,2.15V40h-.95V35.37h18.37V40Z"/><path class="cls-2" d="M146.84,40h-.95v-.68q0-1.18-1.76-2.15a7.7,7.7,0,0,0-3.75-1,4.36,4.36,0,0,0-1,.09.45.45,0,0,0-.38.47V53.94a1.66,1.66,0,0,0,.25,1,1,1,0,0,0,.88.34h1.69v.83h-8.36v-.83h1.69a1,1,0,0,0,.87-.34,1.65,1.65,0,0,0,.25-1V36.76c0-.24-.14-.39-.43-.46a4,4,0,0,0-.93-.11,7.72,7.72,0,0,0-3.73,1q-1.78,1-1.78,2.15V40h-.95V35.37h18.37V40Z"/><path class="cls-1" d="M187.84,51.52l-1,4.59H171v-.83h1.69a1,1,0,0,0,.88-.34,1.66,1.66,0,0,0,.25-1V37.53a1.66,1.66,0,0,0-.25-1,1,1,0,0,0-.88-.34H171v-.83h15.77l.36,4.21h-1l-.12-.89c-.08-.65-.57-1.18-1.45-1.6a14.62,14.62,0,0,0-5.9-.89h-1a1,1,0,0,0-.86.36,1.6,1.6,0,0,0-.27,1v7.26h1.33a11.91,11.91,0,0,0,4.59-.56A1.16,1.16,0,0,0,183,43.1v-.74H184V48H183v-.74a1.16,1.16,0,0,0-.62-1.13,11.88,11.88,0,0,0-4.59-.57h-1.33v8.33a1.66,1.66,0,0,0,.25,1,1,1,0,0,0,.88.34H178a18.43,18.43,0,0,0,6.52-.89c1.28-.52,2-1.23,2.2-2.14l.15-.74Z"/><path class="cls-2" d="M187.84,51.52l-1,4.59H171v-.83h1.69a1,1,0,0,0,.88-.34,1.66,1.66,0,0,0,.25-1V37.53a1.66,1.66,0,0,0-.25-1,1,1,0,0,0-.88-.34H171v-.83h15.77l.36,4.21h-1l-.12-.89c-.08-.65-.57-1.18-1.45-1.6a14.62,14.62,0,0,0-5.9-.89h-1a1,1,0,0,0-.86.36,1.6,1.6,0,0,0-.27,1v7.26h1.33a11.91,11.91,0,0,0,4.59-.56A1.16,1.16,0,0,0,183,43.1v-.74H184V48H183v-.74a1.16,1.16,0,0,0-.62-1.13,11.88,11.88,0,0,0-4.59-.57h-1.33v8.33a1.66,1.66,0,0,0,.25,1,1,1,0,0,0,.88.34H178a18.43,18.43,0,0,0,6.52-.89c1.28-.52,2-1.23,2.2-2.14l.15-.74Z"/><path class="cls-3" d="M283,53.53q-.24,2.57-2.46,2.57t-4.23-3.37q-1.56-3-3.11-6a4.41,4.41,0,0,0-1.26-1.42,3.08,3.08,0,0,0-1.76-.47H269v8.64a1.64,1.64,0,0,0,.25,1,1,1,0,0,0,.87.34h1.69v.83h-8.34v-.83h1.69a1,1,0,0,0,.87-.34,1.65,1.65,0,0,0,.25-1V37.14a1.67,1.67,0,0,0-.25-1,1,1,0,0,0-.87-.34h-1.69V35h8.34v.83H270.1a1,1,0,0,0-.87.34,1.65,1.65,0,0,0-.25,1v6.92h1.18a3,3,0,0,0,2.13-.71,15.74,15.74,0,0,0,2.6-4.05,13.43,13.43,0,0,1,2.53-3.83,3.56,3.56,0,0,1,2.38-.9,2.21,2.21,0,0,1,1.52.52,1.73,1.73,0,0,1,.58,1.35A1.51,1.51,0,0,1,280.39,38a1.32,1.32,0,0,1-1-.41,1.48,1.48,0,0,1-.38-1v-.42c0-.27-.1-.41-.3-.41-.43,0-.92.66-1.45,2a35,35,0,0,1-1.75,3.91,5.93,5.93,0,0,1-3.43,2.85v.15a6.88,6.88,0,0,1,3.55,1.54A10.16,10.16,0,0,1,277.92,49a32.63,32.63,0,0,1,1.57,3.26c.26.61.52,1.22.8,1.81s.64.8,1,.8a.7.7,0,0,0,.64-.42,1.94,1.94,0,0,0,.22-.91Z"/><path class="cls-3" d="M283,53.53q-.24,2.57-2.46,2.57t-4.23-3.37q-1.56-3-3.11-6a4.41,4.41,0,0,0-1.26-1.42,3.08,3.08,0,0,0-1.76-.47H269v8.64a1.64,1.64,0,0,0,.25,1,1,1,0,0,0,.87.34h1.69v.83h-8.34v-.83h1.69a1,1,0,0,0,.87-.34,1.65,1.65,0,0,0,.25-1V37.14a1.67,1.67,0,0,0-.25-1,1,1,0,0,0-.87-.34h-1.69V35h8.34v.83H270.1a1,1,0,0,0-.87.34,1.65,1.65,0,0,0-.25,1v6.92h1.18a3,3,0,0,0,2.13-.71,15.74,15.74,0,0,0,2.6-4.05,13.43,13.43,0,0,1,2.53-3.83,3.56,3.56,0,0,1,2.38-.9,2.21,2.21,0,0,1,1.52.52,1.73,1.73,0,0,1,.58,1.35A1.51,1.51,0,0,1,280.39,38a1.32,1.32,0,0,1-1-.41,1.48,1.48,0,0,1-.38-1v-.42c0-.27-.1-.41-.3-.41-.43,0-.92.66-1.45,2a35,35,0,0,1-1.75,3.91,5.93,5.93,0,0,1-3.43,2.85v.15a6.88,6.88,0,0,1,3.55,1.54A10.16,10.16,0,0,1,277.92,49a32.63,32.63,0,0,1,1.57,3.26c.26.61.52,1.22.8,1.81s.64.8,1,.8a.7.7,0,0,0,.64-.42,1.94,1.94,0,0,0,.22-.91Z"/><path class="cls-3" d="M324.08,55.69h-8.35v-.83h1.69a1,1,0,0,0,.87-.34,1.65,1.65,0,0,0,.25-1V37.14a1.66,1.66,0,0,0-.25-1,1,1,0,0,0-.87-.34h-1.69q-2.28,0-2.63,1.15-.42,3.28-1.09,7.43a35.69,35.69,0,0,1-2.38,9.07q-1.32,2.65-3.39,2.65a3.16,3.16,0,0,1-2-.59,2.17,2.17,0,0,1-.89-1.81,1.92,1.92,0,0,1,.46-1.32,1.49,1.49,0,0,1,1.17-.52,1.48,1.48,0,0,1,1.21.46,1.62,1.62,0,0,1,.38,1.06v.45l-.12.39q0,.63.53.63a1.51,1.51,0,0,0,1.12-.77,12.51,12.51,0,0,0,1.49-3.33,50,50,0,0,0,1.49-6.86,46.62,46.62,0,0,0,.74-6.23,2.28,2.28,0,0,0-.37-1.35,1.35,1.35,0,0,0-1.17-.52h-2V35h15.71v.83h-1.69a1,1,0,0,0-.87.34,1.65,1.65,0,0,0-.25,1V53.53a1.64,1.64,0,0,0,.25,1,1,1,0,0,0,.87.34h1.69v.83Z"/><path class="cls-3" d="M324.08,55.69h-8.35v-.83h1.69a1,1,0,0,0,.87-.34,1.65,1.65,0,0,0,.25-1V37.14a1.66,1.66,0,0,0-.25-1,1,1,0,0,0-.87-.34h-1.69q-2.28,0-2.63,1.15-.42,3.28-1.09,7.43a35.69,35.69,0,0,1-2.38,9.07q-1.32,2.65-3.39,2.65a3.16,3.16,0,0,1-2-.59,2.17,2.17,0,0,1-.89-1.81,1.92,1.92,0,0,1,.46-1.32,1.49,1.49,0,0,1,1.17-.52,1.48,1.48,0,0,1,1.21.46,1.62,1.62,0,0,1,.38,1.06v.45l-.12.39q0,.63.53.63a1.51,1.51,0,0,0,1.12-.77,12.51,12.51,0,0,0,1.49-3.33,50,50,0,0,0,1.49-6.86,46.62,46.62,0,0,0,.74-6.23,2.28,2.28,0,0,0-.37-1.35,1.35,1.35,0,0,0-1.17-.52h-2V35h15.71v.83h-1.69a1,1,0,0,0-.87.34,1.65,1.65,0,0,0-.25,1V53.53a1.64,1.64,0,0,0,.25,1,1,1,0,0,0,.87.34h1.69v.83Z"/><path class="cls-3" d="M366.18,56.11h-7.57v-.83h1.19a2,2,0,0,0,.88-.15c.2-.1.29-.34.29-.71a3.54,3.54,0,0,0-.26-1.17c-.18-.49-.3-.84-.38-1.08L358.83,48h-6.71l-.68,1.83-.77,2.07a6.43,6.43,0,0,0-.47,2,1.81,1.81,0,0,0,.24,1,.7.7,0,0,0,.62.38h1.19v.83h-6v-.83h.56c.48,0,1-.38,1.49-1.16A31.11,31.11,0,0,0,351.06,48l4.82-13h.95l6.66,18.49A5.05,5.05,0,0,0,364,54.6a1.81,1.81,0,0,0,1.51.68h.65v.83Zm-7.61-8.91-3.07-8.52-3.08,8.52Z"/><path class="cls-3" d="M366.18,56.11h-7.57v-.83h1.19a2,2,0,0,0,.88-.15c.2-.1.29-.34.29-.71a3.54,3.54,0,0,0-.26-1.17c-.18-.49-.3-.84-.38-1.08L358.83,48h-6.71l-.68,1.83-.77,2.07a6.43,6.43,0,0,0-.47,2,1.81,1.81,0,0,0,.24,1,.7.7,0,0,0,.62.38h1.19v.83h-6v-.83h.56c.48,0,1-.38,1.49-1.16A31.11,31.11,0,0,0,351.06,48l4.82-13h.95l6.66,18.49A5.05,5.05,0,0,0,364,54.6a1.81,1.81,0,0,0,1.51.68h.65v.83Zm-7.61-8.91-3.07-8.52-3.08,8.52Z"/><path class="cls-3" d="M404.87,50.19a10.52,10.52,0,0,1-3.76,4.62,8.67,8.67,0,0,1-4.77,1.3,10.07,10.07,0,0,1-7.16-2.69,10.27,10.27,0,0,1-3.11-7.84,11.41,11.41,0,0,1,2.63-7.64,9.65,9.65,0,0,1,7.75-3.37,11.23,11.23,0,0,1,6,1.45l0-1h.95l.41,5.65h-.95l-.05-.71A3.87,3.87,0,0,0,401,36.84a7.23,7.23,0,0,0-4.53-1.45,6,6,0,0,0-5.53,3.29,13.61,13.61,0,0,0-1.63,6.92q0,4.64,2.45,7.16A7.41,7.41,0,0,0,397.29,55a6.25,6.25,0,0,0,3.85-1.29,10.42,10.42,0,0,0,3-3.92l.74.38Z"/><path class="cls-3" d="M404.87,50.19a10.52,10.52,0,0,1-3.76,4.62,8.67,8.67,0,0,1-4.77,1.3,10.07,10.07,0,0,1-7.16-2.69,10.27,10.27,0,0,1-3.11-7.84,11.41,11.41,0,0,1,2.63-7.64,9.65,9.65,0,0,1,7.75-3.37,11.23,11.23,0,0,1,6,1.45l0-1h.95l.41,5.65h-.95l-.05-.71A3.87,3.87,0,0,0,401,36.84a7.23,7.23,0,0,0-4.53-1.45,6,6,0,0,0-5.53,3.29,13.61,13.61,0,0,0-1.63,6.92q0,4.64,2.45,7.16A7.41,7.41,0,0,0,397.29,55a6.25,6.25,0,0,0,3.85-1.29,10.42,10.42,0,0,0,3-3.92l.74.38Z"/><path class="cls-3" d="M442.74,50.19A10.53,10.53,0,0,1,439,54.81a8.64,8.64,0,0,1-4.76,1.3,10.07,10.07,0,0,1-7.17-2.69,10.27,10.27,0,0,1-3.1-7.84,11.41,11.41,0,0,1,2.63-7.64,9.66,9.66,0,0,1,7.75-3.37,11.23,11.23,0,0,1,6,1.45l0-1h.95l.41,5.65h-.94l-.06-.71a3.86,3.86,0,0,0-1.8-3.08,7.24,7.24,0,0,0-4.53-1.45,6,6,0,0,0-5.53,3.29,13.65,13.65,0,0,0-1.63,6.92q0,4.64,2.45,7.16A7.39,7.39,0,0,0,435.16,55,6.23,6.23,0,0,0,439,53.73a10.42,10.42,0,0,0,3-3.92l.74.38Z"/><path class="cls-3" d="M442.74,50.19A10.53,10.53,0,0,1,439,54.81a8.64,8.64,0,0,1-4.76,1.3,10.07,10.07,0,0,1-7.17-2.69,10.27,10.27,0,0,1-3.1-7.84,11.41,11.41,0,0,1,2.63-7.64,9.66,9.66,0,0,1,7.75-3.37,11.23,11.23,0,0,1,6,1.45l0-1h.95l.41,5.65h-.94l-.06-.71a3.86,3.86,0,0,0-1.8-3.08,7.24,7.24,0,0,0-4.53-1.45,6,6,0,0,0-5.53,3.29,13.65,13.65,0,0,0-1.63,6.92q0,4.64,2.45,7.16A7.39,7.39,0,0,0,435.16,55,6.23,6.23,0,0,0,439,53.73a10.42,10.42,0,0,0,3-3.92l.74.38Z"/><polygon class="cls-3" points="7.01 73.08 6.07 73.08 6.07 66.74 3.95 73.08 3.06 73.08 0.94 66.74 0.94 73.08 0 73.08 0 65.63 1.48 65.63 3.5 71.84 5.53 65.63 7.01 65.63 7.01 73.08 7.01 73.08"/><path class="cls-3" d="M48.49,70l-1.31-3.46L45.92,70Zm2.27,3H49.64l-.86-2.27H45.65l-.82,2.27h-1l2.86-7.45h1.06l3,7.45Z"/><path class="cls-3" d="M90.35,73.21A3.41,3.41,0,0,1,88,72.5a2.46,2.46,0,0,1-.82-1.82h.95a1.55,1.55,0,0,0,.69,1.23,2.71,2.71,0,0,0,1.49.4A2.33,2.33,0,0,0,91.64,72a1.06,1.06,0,0,0,.51-.93.94.94,0,0,0-.52-.89,7.29,7.29,0,0,0-1.8-.55A4.2,4.2,0,0,1,88,68.85a1.62,1.62,0,0,1-.56-1.29,1.82,1.82,0,0,1,.72-1.48,3,3,0,0,1,1.92-.58,3.29,3.29,0,0,1,2,.58,2.07,2.07,0,0,1,.82,1.65H92c-.1-.9-.72-1.35-1.85-1.35a2.26,2.26,0,0,0-1.28.31,1,1,0,0,0-.45.82.77.77,0,0,0,.36.7,4.62,4.62,0,0,0,1.36.45,12.91,12.91,0,0,1,1.58.43,2.5,2.5,0,0,1,1,.66A1.7,1.7,0,0,1,93.11,71a2,2,0,0,1-.77,1.6,3,3,0,0,1-2,.64Z"/><polygon class="cls-3" points="135.74 66.51 133.27 66.51 133.27 73.08 132.28 73.08 132.28 66.51 129.84 66.51 129.84 65.63 135.74 65.63 135.74 66.51 135.74 66.51"/><polygon class="cls-3" points="178.32 73.08 172.76 73.08 172.76 65.63 178.14 65.63 178.14 66.51 173.75 66.51 173.75 68.79 177.86 68.79 177.86 69.67 173.75 69.67 173.75 72.19 178.32 72.19 178.32 73.08 178.32 73.08"/><path class="cls-3" d="M221.88,73.08h-1.07l-.7-2a1.85,1.85,0,0,0-.63-.86,1.62,1.62,0,0,0-1-.33h-1.82v3.19h-1V65.63H219a4.79,4.79,0,0,1,1.41.17,1.59,1.59,0,0,1,.9.71,2.2,2.2,0,0,1,.34,1.21,1.91,1.91,0,0,1-.44,1.29,2.1,2.1,0,0,1-1.22.68v0A2,2,0,0,1,221.13,71l.75,2ZM216.65,69h2.2a2.36,2.36,0,0,0,1.33-.29,1.13,1.13,0,0,0,.41-1c0-.85-.53-1.27-1.6-1.27h-2.35V69Z"/><path class="cls-3" d="M267.79,73.21a3.23,3.23,0,0,1-2.52-1,4.67,4.67,0,0,1,0-5.63,3.24,3.24,0,0,1,2.52-1,3.3,3.3,0,0,1,2.07.65,2.4,2.4,0,0,1,1,1.73h-1a1.51,1.51,0,0,0-.61-1.13,2.48,2.48,0,0,0-3.19.37,4.09,4.09,0,0,0,0,4.46,2.19,2.19,0,0,0,1.78.78,2.22,2.22,0,0,0,1.41-.43,1.67,1.67,0,0,0,.61-1.22h1a2.5,2.5,0,0,1-.94,1.84,3.27,3.27,0,0,1-2.09.65Z"/><polygon class="cls-3" points="312.76 73.08 308.15 73.08 308.15 65.63 309.14 65.63 309.14 72.19 312.76 72.19 312.76 73.08 312.76 73.08"/><path class="cls-3" d="M353.75,70l-1.31-3.46L351.19,70Zm2.27,3h-1.12L354,70.81h-3.12l-.82,2.27h-1l2.86-7.45H353l3,7.45Z"/><path class="cls-3" d="M395.62,73.21a3.42,3.42,0,0,1-2.36-.71,2.47,2.47,0,0,1-.82-1.82h.95a1.58,1.58,0,0,0,.7,1.23,2.71,2.71,0,0,0,1.49.4,2.34,2.34,0,0,0,1.34-.34,1.06,1.06,0,0,0,.5-.93.94.94,0,0,0-.52-.89,7.32,7.32,0,0,0-1.8-.55,4.25,4.25,0,0,1-1.84-.76,1.63,1.63,0,0,1-.55-1.29,1.82,1.82,0,0,1,.72-1.48,3,3,0,0,1,1.92-.58,3.3,3.3,0,0,1,2,.58,2.09,2.09,0,0,1,.82,1.65h-1c-.1-.9-.71-1.35-1.85-1.35a2.24,2.24,0,0,0-1.27.31,1,1,0,0,0-.46.82.78.78,0,0,0,.36.7,4.65,4.65,0,0,0,1.36.45,12.71,12.71,0,0,1,1.58.43,2.52,2.52,0,0,1,1,.66,1.7,1.7,0,0,1,.42,1.21,2,2,0,0,1-.77,1.6,3,3,0,0,1-2,.64Z"/><path class="cls-3" d="M439.12,73.21a3.4,3.4,0,0,1-2.35-.71,2.47,2.47,0,0,1-.83-1.82h.95a1.56,1.56,0,0,0,.7,1.23,2.69,2.69,0,0,0,1.49.4,2.34,2.34,0,0,0,1.34-.34,1.06,1.06,0,0,0,.51-.93.94.94,0,0,0-.52-.89,7.29,7.29,0,0,0-1.8-.55,4.23,4.23,0,0,1-1.84-.76,1.62,1.62,0,0,1-.56-1.29,1.83,1.83,0,0,1,.72-1.48,3,3,0,0,1,1.93-.58,3.29,3.29,0,0,1,2,.58,2.09,2.09,0,0,1,.82,1.65h-1c-.1-.9-.72-1.35-1.85-1.35a2.25,2.25,0,0,0-1.28.31,1,1,0,0,0-.45.82.78.78,0,0,0,.36.7,4.63,4.63,0,0,0,1.36.45,12.77,12.77,0,0,1,1.58.43,2.54,2.54,0,0,1,1,.66,1.72,1.72,0,0,1,.42,1.21,2,2,0,0,1-.77,1.6,3,3,0,0,1-2,.64Z"/><polygon class="cls-3" points="7.15 26.17 6.28 26.17 6.28 20.23 4.29 26.17 3.46 26.17 1.47 20.23 1.47 26.17 0.59 26.17 0.59 19.19 1.98 19.19 3.87 25.01 5.77 19.19 7.15 19.19 7.15 26.17 7.15 26.17"/><polygon class="cls-3" points="21.68 26.17 16.48 26.17 16.48 19.19 21.52 19.19 21.52 20.02 17.41 20.02 17.41 22.15 21.26 22.15 21.26 22.98 17.41 22.98 17.41 25.34 21.68 25.34 21.68 26.17 21.68 26.17"/><polygon class="cls-3" points="38.72 26.17 37.5 26.17 34.82 22.79 34.82 26.17 33.9 26.17 33.9 22.79 31.22 26.17 30 26.17 33.33 22.28 30.13 19.19 31.38 19.19 33.9 21.85 33.9 19.19 34.82 19.19 34.82 21.85 37.34 19.19 38.59 19.19 35.39 22.28 38.72 26.17 38.72 26.17"/><path class="cls-3" d="M52.95,25.34h.92V27.8h-.92V26.17H47.61V27.8h-.92V25.34h.63a6,6,0,0,0,.6-1.68,16.35,16.35,0,0,0,.24-3.26V19.19h4.79v6.15Zm-.93,0V20H49.09v.48a15.91,15.91,0,0,1-.23,3.08,6.27,6.27,0,0,1-.62,1.77Z"/><path class="cls-3" d="M68.06,19.19l-2.64,5.1a5.84,5.84,0,0,1-1.09,1.61,1.42,1.42,0,0,1-.93.39,3.07,3.07,0,0,1-.88-.12V25.3a1.68,1.68,0,0,0,.79.15c.4,0,.8-.39,1.21-1.17L63.2,21.74l-1.32-2.55h1l1,2.08,1,2.08,2-4.15Z"/><polygon class="cls-3" points="82.11 26.17 81.18 26.17 81.18 22.88 77.56 22.88 77.56 26.17 76.63 26.17 76.63 19.19 77.56 19.19 77.56 22.06 81.18 22.06 81.18 19.19 82.11 19.19 82.11 26.17 82.11 26.17"/><path class="cls-3" d="M95,23.31l-1.23-3.24-1.17,3.24Zm2.12,2.86h-1L95.32,24H92.4l-.77,2.12h-1l2.68-7h1l2.85,7Z"/><path class="cls-3" d="M105.71,19.19h2.6a5.55,5.55,0,0,1,1.43.16,1.54,1.54,0,0,1,.92.69,2.17,2.17,0,0,1,.34,1.19,2,2,0,0,1-.67,1.6,3,3,0,0,1-1.94.55h-1.76v2.79h-.92v-7Zm.92,3.36h1.77a1.92,1.92,0,0,0,1.27-.33,1.22,1.22,0,0,0,.38-1,1.35,1.35,0,0,0-.21-.74.92.92,0,0,0-.53-.41,3.79,3.79,0,0,0-.93-.08h-1.75v2.53Z"/><path class="cls-3" d="M123,19.07a3.15,3.15,0,0,1,2.4,1,3.66,3.66,0,0,1,.94,2.62,3.66,3.66,0,0,1-.94,2.62,3.41,3.41,0,0,1-4.81,0,3.65,3.65,0,0,1-.94-2.61,3.65,3.65,0,0,1,.94-2.62,3.17,3.17,0,0,1,2.41-1Zm0,6.43a2.2,2.2,0,0,0,1.71-.74,3,3,0,0,0,.67-2.08,3,3,0,0,0-.67-2.08,2.19,2.19,0,0,0-1.7-.74,2.22,2.22,0,0,0-1.72.74,3,3,0,0,0-.68,2.08,3,3,0,0,0,.67,2.07,2.21,2.21,0,0,0,1.71.75Z"/><path class="cls-3" d="M141,25.34h.92V27.8H141V26.17h-5.33V27.8h-.92V25.34h.63a5.85,5.85,0,0,0,.6-1.68,16.08,16.08,0,0,0,.24-3.26V19.19H141v6.15Zm-.93,0V20h-2.93v.48a16,16,0,0,1-.22,3.08,6.27,6.27,0,0,1-.62,1.77Z"/><polygon class="cls-3" points="156.13 26.17 155.21 26.17 155.21 22.88 151.58 22.88 151.58 26.17 150.65 26.17 150.65 19.19 151.58 19.19 151.58 22.06 155.21 22.06 155.21 19.19 156.13 19.19 156.13 26.17 156.13 26.17"/><path class="cls-3" d="M166.39,22.11h1.55q2.74,0,2.74,2a1.8,1.8,0,0,1-.67,1.5,3.08,3.08,0,0,1-1.94.52h-2.61v-7h.92v2.92Zm0,3.23h1.68q1.66,0,1.66-1.2a1.07,1.07,0,0,0-.38-.91,2.44,2.44,0,0,0-1.39-.29h-1.56v2.4Zm6.12.83h-.93v-7h.93v7Z"/><path class="cls-3" d="M187.32,26.17h-.88V20.56l-3.66,5.61h-.94v-7h.88v5.6l3.65-5.6h.95v7ZM186,17.47a1.3,1.3,0,0,1-.44.91,1.62,1.62,0,0,1-1.95,0,1.27,1.27,0,0,1-.43-.91h.58a.73.73,0,0,0,.82.65.75.75,0,0,0,.83-.65Z"/><path class="cls-3" d="M205.65,19.94a3.48,3.48,0,0,1,2.38.73,2.49,2.49,0,0,1,.84,2A2.42,2.42,0,0,1,208,24.6a3.57,3.57,0,0,1-2.38.71v.92h-.93V25.3a3.59,3.59,0,0,1-2.38-.71,2.42,2.42,0,0,1-.83-1.95,2.49,2.49,0,0,1,.84-2,3.5,3.5,0,0,1,2.38-.73v-.76h.93v.76Zm0,4.58a2.75,2.75,0,0,0,1.7-.43,1.75,1.75,0,0,0,.56-1.46,1.75,1.75,0,0,0-.57-1.45,2.67,2.67,0,0,0-1.7-.45v3.8Zm-.93,0v-3.8a2.68,2.68,0,0,0-1.7.45,1.74,1.74,0,0,0-.57,1.45,1.75,1.75,0,0,0,.56,1.46,2.75,2.75,0,0,0,1.7.43Z"/><polygon class="cls-3" points="223.07 26.17 217.87 26.17 217.87 19.19 222.91 19.19 222.91 20.02 218.79 20.02 218.79 22.15 222.65 22.15 222.65 22.98 218.79 22.98 218.79 25.34 223.07 25.34 223.07 26.17 223.07 26.17"/><path class="cls-3" d="M235.06,26.29a3,3,0,0,1-2.36-1,3.77,3.77,0,0,1-.89-2.64A3.77,3.77,0,0,1,232.7,20a3,3,0,0,1,2.36-1,3.1,3.1,0,0,1,1.94.61,2.24,2.24,0,0,1,.9,1.62h-1a1.41,1.41,0,0,0-.57-1.05,2.12,2.12,0,0,0-1.3-.39,2.09,2.09,0,0,0-1.68.73,3.15,3.15,0,0,0-.62,2.09,3.15,3.15,0,0,0,.62,2.08,2.05,2.05,0,0,0,1.66.74,2.08,2.08,0,0,0,1.32-.4,1.56,1.56,0,0,0,.57-1.14h1a2.34,2.34,0,0,1-.88,1.72,3.07,3.07,0,0,1-2,.61Z"/><polygon class="cls-3" points="251.91 20.02 249.6 20.02 249.6 26.17 248.67 26.17 248.67 20.02 246.38 20.02 246.38 19.19 251.91 19.19 251.91 20.02 251.91 20.02"/><polygon class="cls-3" points="266.15 26.17 265.27 26.17 265.27 20.56 261.62 26.17 260.67 26.17 260.67 19.19 261.55 19.19 261.55 24.79 265.2 19.19 266.15 19.19 266.15 26.17 266.15 26.17"/><path class="cls-3" d="M280.7,24.14a1.8,1.8,0,0,1-.67,1.5,3.07,3.07,0,0,1-1.94.52h-2.61v-7H278a2.87,2.87,0,0,1,1.75.48,1.53,1.53,0,0,1,.64,1.3,1.58,1.58,0,0,1-1,1.49,1.67,1.67,0,0,1,1.35,1.68Zm-4.29-2H278a2,2,0,0,0,1.13-.25.91.91,0,0,0,.36-.82.9.9,0,0,0-.35-.77,2.12,2.12,0,0,0-1.22-.26H276.4v2.09Zm0,3.23h1.68q1.66,0,1.66-1.2a1.07,1.07,0,0,0-.38-.91,2.43,2.43,0,0,0-1.39-.29H276.4v2.4Z"/><path class="cls-3" d="M293.36,23.31l-1.23-3.24L291,23.31Zm2.12,2.86h-1L293.63,24h-2.92l-.77,2.12h-1l2.68-7h1l2.85,7Z"/><path class="cls-3" d="M309.33,26.17h-.93V20h-3.07v4.37q0,1.88-1.37,1.88a3.61,3.61,0,0,1-.68-.07v-.82a1.87,1.87,0,0,0,.49.06.53.53,0,0,0,.49-.25,1.65,1.65,0,0,0,.14-.79V19.19h4.92v7Z"/><path class="cls-3" d="M319.59,22.11h1.55q2.74,0,2.74,2a1.8,1.8,0,0,1-.67,1.5,3.09,3.09,0,0,1-1.94.52h-2.61v-7h.92v2.92Zm0,3.23h1.68q1.66,0,1.66-1.2a1.07,1.07,0,0,0-.38-.91,2.46,2.46,0,0,0-1.39-.29h-1.56v2.4Z"/><polygon class="cls-3" points="340.88 26.17 340 26.17 340 20.56 336.35 26.17 335.4 26.17 335.4 19.19 336.28 19.19 336.28 24.79 339.94 19.19 340.88 19.19 340.88 26.17 340.88 26.17"/><path class="cls-3" d="M353.13,26.29a3,3,0,0,1-2.36-1,3.77,3.77,0,0,1-.89-2.64,3.76,3.76,0,0,1,.89-2.63,3,3,0,0,1,2.36-1,3.1,3.1,0,0,1,1.94.61,2.24,2.24,0,0,1,.9,1.62H355a1.42,1.42,0,0,0-.58-1.05,2.32,2.32,0,0,0-3,.34,3.16,3.16,0,0,0-.62,2.09,3.14,3.14,0,0,0,.62,2.08,2.05,2.05,0,0,0,1.66.74,2.08,2.08,0,0,0,1.32-.4A1.59,1.59,0,0,0,355,24H356a2.34,2.34,0,0,1-.88,1.72,3.08,3.08,0,0,1-2,.61Z"/><polygon class="cls-3" points="370.73 26.17 369.51 26.17 367.03 22.69 365.95 23.75 365.95 26.17 365.02 26.17 365.02 19.19 365.95 19.19 365.95 22.65 369.35 19.19 370.59 19.19 367.67 22.06 370.73 26.17 370.73 26.17"/><path class="cls-3" d="M384.73,19.19l-2.64,5.1A5.82,5.82,0,0,1,381,25.9a1.42,1.42,0,0,1-.93.39,3.07,3.07,0,0,1-.88-.12V25.3a1.67,1.67,0,0,0,.79.15c.4,0,.8-.39,1.21-1.17l-1.32-2.55-1.32-2.55h1l1,2.08,1,2.08,2-4.15Z"/><path class="cls-3" d="M396.22,26.29a3,3,0,0,1-2.36-1,3.78,3.78,0,0,1-.88-2.64,3.77,3.77,0,0,1,.88-2.63,3,3,0,0,1,2.36-1,3.09,3.09,0,0,1,1.94.61,2.23,2.23,0,0,1,.9,1.62h-.95a1.42,1.42,0,0,0-.57-1.05,2.12,2.12,0,0,0-1.3-.39,2.09,2.09,0,0,0-1.68.73,3.16,3.16,0,0,0-.62,2.09,3.15,3.15,0,0,0,.61,2.08,2.06,2.06,0,0,0,1.66.74,2.09,2.09,0,0,0,1.33-.4,1.57,1.57,0,0,0,.57-1.14h.95a2.33,2.33,0,0,1-.87,1.72,3.07,3.07,0,0,1-2,.61Z"/><path class="cls-3" d="M411,26.29a3,3,0,0,1-2.36-1,3.75,3.75,0,0,1-.89-2.64,3.74,3.74,0,0,1,.89-2.63,3,3,0,0,1,2.36-1,3.1,3.1,0,0,1,1.94.61,2.26,2.26,0,0,1,.9,1.62h-1a1.42,1.42,0,0,0-.57-1.05,2.11,2.11,0,0,0-1.3-.39,2.09,2.09,0,0,0-1.68.73,3.14,3.14,0,0,0-.62,2.09,3.16,3.16,0,0,0,.62,2.08,2,2,0,0,0,1.66.74,2.08,2.08,0,0,0,1.33-.4,1.56,1.56,0,0,0,.57-1.14h1a2.35,2.35,0,0,1-.88,1.72,3.08,3.08,0,0,1-2,.61Z"/><polygon class="cls-3" points="427.88 20.02 425.57 20.02 425.57 26.17 424.64 26.17 424.64 20.02 422.35 20.02 422.35 19.19 427.88 19.19 427.88 20.02 427.88 20.02"/><path class="cls-3" d="M441.86,24.14a1.8,1.8,0,0,1-.67,1.5,3.08,3.08,0,0,1-1.94.52h-2.61v-7h2.48a2.87,2.87,0,0,1,1.75.48,1.53,1.53,0,0,1,.64,1.3,1.58,1.58,0,0,1-1,1.49,1.67,1.67,0,0,1,1.35,1.68Zm-4.3-2h1.55a2,2,0,0,0,1.12-.25,1.06,1.06,0,0,0,0-1.59A2.14,2.14,0,0,0,439,20h-1.47v2.09Zm0,3.23h1.68q1.66,0,1.66-1.2a1.06,1.06,0,0,0-.39-.91,2.44,2.44,0,0,0-1.39-.29h-1.56v2.4Z"/><rect class="cls-1" y="59.52" width="441.88" height="1.1"/><path class="cls-4" d="M517.77,89.12c-24.83,0-45-20-45-44.56S492.94,0,517.77,0s45,20,45,44.56S542.6,89.12,517.77,89.12Zm0-88.48c-24.48,0-44.39,19.7-44.39,43.92s19.91,43.92,44.39,43.92,44.39-19.7,44.39-43.92S542.25.64,517.77.64Z"/><polygon class="cls-5" points="532.23 76.77 531.88 77.78 531.46 78.73 530.95 79.68 530.37 80.54 529.74 81.39 529.03 82.19 528.26 82.91 527.43 83.61 526.57 84.24 525.64 84.82 524.68 85.32 523.69 85.76 522.7 86.14 521.65 86.46 520.56 86.68 519.47 86.87 518.39 86.97 517.3 86.97 516.18 86.9 515.06 86.75 513.97 86.52 512.85 86.21 511.8 85.8 510.74 85.29 509.69 84.69 508.69 83.99 507.71 83.17 506.78 82.28 505.88 81.27 505.02 80.16 504.22 78.92 503.48 77.59 502.84 76.2 502.3 74.74 501.86 73.25 501.5 71.77 501.25 70.25 501.09 68.69 500.99 67.17 501.02 65.62 501.12 64.04 501.28 62.49 501.5 60.94 501.82 59.42 502.2 57.9 502.65 56.44 503.17 54.98 503.71 53.59 504.35 52.23 505.02 50.9 505.72 49.63 506.49 48.43 507.29 47.32 508.12 46.24 508.99 45.26 509.88 44.34 510.81 43.55 511.77 42.83 512.73 42.19 513.72 41.68 514.74 41.27 515.73 40.98 516.75 40.8 517.78 40.76 516.47 40.95 515.38 41.4 514.48 42 513.84 42.79 513.43 43.74 513.21 44.82 513.24 45.99 513.46 47.29 513.94 48.62 514.61 49.98 515.51 51.37 516.63 52.77 517.97 54.13 519.53 55.46 521.33 56.69 523.34 57.87 524.14 58.31 525 58.81 525.93 59.42 526.89 60.08 527.85 60.87 528.78 61.76 529.71 62.74 530.53 63.82 531.3 65.02 531.94 66.32 532.45 67.71 532.84 69.27 533 70.94 533 72.75 532.74 74.68 532.23 76.77 532.23 76.77"/><polygon class="cls-6" points="485.23 58.87 484.2 58.52 483.24 58.11 482.28 57.6 481.42 57.03 480.56 56.4 479.76 55.7 479.02 54.94 478.32 54.12 477.68 53.27 477.1 52.34 476.59 51.4 476.14 50.41 475.76 49.43 475.44 48.39 475.22 47.31 475.02 46.27 474.93 45.16 474.93 44.08 474.99 42.97 475.15 41.87 475.38 40.79 475.7 39.68 476.11 38.63 476.63 37.59 477.23 36.55 477.94 35.56 478.76 34.58 479.66 33.66 480.68 32.77 481.81 31.92 483.05 31.13 484.39 30.4 485.8 29.77 487.27 29.23 488.77 28.79 490.28 28.44 491.81 28.18 493.38 28.02 494.94 27.93 496.48 27.96 498.08 28.06 499.65 28.22 501.21 28.44 502.75 28.75 504.28 29.13 505.75 29.58 507.22 30.08 508.63 30.65 510 31.26 511.35 31.92 512.63 32.62 513.84 33.38 514.96 34.17 516.05 34.99 517.04 35.85 517.97 36.73 518.77 37.65 519.5 38.6 520.14 39.55 520.65 40.53 521.07 41.55 521.36 42.53 521.55 43.54 521.58 44.56 521.39 43.26 520.94 42.18 520.33 41.29 519.53 40.66 518.58 40.25 517.49 40.03 516.31 40.06 514.99 40.28 513.65 40.76 512.27 41.42 510.87 42.31 509.46 43.42 508.09 44.75 506.74 46.3 505.5 48.07 504.31 50.07 503.87 50.86 503.36 51.71 502.75 52.63 502.08 53.58 501.28 54.53 500.38 55.45 499.39 56.37 498.3 57.19 497.09 57.95 495.78 58.59 494.37 59.09 492.8 59.47 491.11 59.63 489.29 59.63 487.33 59.38 485.23 58.87 485.23 58.87"/><polygon class="cls-7" points="550.33 30.25 551.36 30.6 552.31 31.01 553.27 31.52 554.13 32.08 555 32.72 555.8 33.41 556.54 34.17 557.24 35 557.88 35.85 558.45 36.77 558.97 37.72 559.41 38.7 559.8 39.69 560.12 40.73 560.34 41.8 560.53 42.88 560.63 43.96 560.63 45.04 560.57 46.14 560.4 47.25 560.18 48.33 559.86 49.44 559.44 50.48 558.93 51.53 558.33 52.57 557.62 53.55 556.79 54.54 555.9 55.46 554.87 56.34 553.75 57.2 552.5 57.99 551.16 58.72 549.76 59.35 548.28 59.89 546.78 60.33 545.28 60.68 543.74 60.93 542.18 61.09 540.61 61.19 539.08 61.15 537.48 61.06 535.91 60.9 534.34 60.68 532.81 60.36 531.27 59.98 529.81 59.54 528.33 59.03 526.93 58.49 525.55 57.86 524.21 57.2 522.93 56.5 521.71 55.74 520.59 54.95 519.51 54.12 518.51 53.27 517.59 52.38 516.79 51.46 516.05 50.51 515.42 49.56 514.9 48.58 514.49 47.57 514.2 46.59 514.01 45.58 513.98 44.56 514.17 45.86 514.62 46.94 515.22 47.82 516.02 48.46 516.98 48.87 518.07 49.09 519.25 49.06 520.53 48.84 521.91 48.36 523.28 47.7 524.69 46.81 526.1 45.7 527.47 44.37 528.81 42.82 530.06 41.05 531.24 39.05 531.69 38.26 532.2 37.4 532.81 36.48 533.48 35.54 534.28 34.59 535.17 33.67 536.17 32.75 537.25 31.93 538.47 31.17 539.78 30.53 541.19 30.03 542.75 29.64 544.45 29.49 546.27 29.49 548.22 29.74 550.33 30.25 550.33 30.25"/><polygon class="cls-8" points="503.34 12.34 503.69 11.33 504.11 10.38 504.62 9.43 505.19 8.57 505.84 7.72 506.54 6.93 507.31 6.2 508.14 5.5 509 4.87 509.93 4.3 510.89 3.79 511.88 3.35 512.87 2.97 513.92 2.65 515.01 2.43 516.07 2.24 517.19 2.14 518.28 2.14 519.39 2.21 520.51 2.37 521.6 2.59 522.72 2.9 523.77 3.32 524.83 3.82 525.88 4.42 526.88 5.12 527.87 5.95 528.79 6.83 529.69 7.85 530.55 8.95 531.35 10.19 532.09 11.52 532.73 12.91 533.27 14.37 533.72 15.86 534.07 17.34 534.33 18.86 534.49 20.42 534.58 21.97 534.55 23.49 534.45 25.07 534.29 26.62 534.07 28.18 533.75 29.69 533.37 31.21 532.92 32.67 532.41 34.13 531.83 35.52 531.22 36.88 530.55 38.22 529.85 39.48 529.08 40.68 528.28 41.79 527.45 42.87 526.59 43.85 525.69 44.77 524.77 45.56 523.8 46.29 522.84 46.92 521.86 47.43 520.83 47.84 519.84 48.13 518.82 48.32 517.8 48.35 519.1 48.16 520.19 47.72 521.09 47.11 521.73 46.32 522.14 45.37 522.37 44.29 522.33 43.12 522.11 41.85 521.63 40.49 520.96 39.13 520.07 37.74 518.95 36.34 517.6 34.98 516.04 33.65 514.25 32.42 512.23 31.25 511.43 30.8 510.57 30.3 509.64 29.69 508.68 29.03 507.72 28.24 506.8 27.35 505.87 26.37 505.04 25.29 504.27 24.09 503.63 22.79 503.12 21.4 502.73 19.85 502.57 18.17 502.57 16.36 502.83 14.43 503.34 12.34 503.34 12.34"/></g></g></svg>