<?xml version="1.0" encoding="utf-8"?>
<!-- Generator: Adobe Illustrator 18.1.1, SVG Export Plug-In . SVG Version: 6.00 Build 0)  -->
<svg version="1.1" id="Layer_1" xmlns="http://www.w3.org/2000/svg" xmlns:xlink="http://www.w3.org/1999/xlink" x="0px" y="0px"
	 viewBox="0 0 258.7 42.2" enable-background="new 0 0 258.7 42.2" xml:space="preserve">
<g>
	<path fill="#DA231C" d="M69.7,26h-3.8v-0.4h0.8c0.2,0,0.3-0.1,0.4-0.2c0.1-0.1,0.1-0.3,0.1-0.5v-7.2L63.7,26h-0.3l-3.6-8.5V22
		c0,1.2,0,2,0.1,2.5c0.1,0.8,0.4,1.2,0.8,1.2H61V26h-2.9v-0.4h0.3c0.4,0,0.6-0.4,0.8-1.2c0.1-0.5,0.1-1.4,0.1-2.5v-4.3
		c0-0.3-0.1-0.5-0.2-0.6C59.1,17,59,17,58.8,17h-0.7v-0.4h2.7l3.2,7.6l3.2-7.6h2.4V17h-0.8c-0.2,0-0.3,0.1-0.4,0.2
		c-0.1,0.1-0.1,0.3-0.1,0.4V25c0,0.2,0,0.3,0.1,0.5c0.1,0.1,0.2,0.2,0.4,0.2h0.8V26L69.7,26z"/>
</g>
<g>
	<path fill="#DA231C" d="M161.4,19.5c0,0.9-0.4,1.6-1.1,2.1c-0.7,0.5-1.6,0.7-2.8,0.7c-0.4,0-0.8,0-1.2-0.1V25c0,0.2,0,0.3,0.1,0.5
		c0.1,0.1,0.2,0.2,0.4,0.2h1V26h-4.1v-0.4h0.8c0.2,0,0.3-0.1,0.4-0.2c0.1-0.1,0.1-0.3,0.1-0.5v-7.4c0-0.2,0-0.3-0.1-0.4
		c-0.1-0.1-0.2-0.2-0.4-0.2h-0.8v-0.4h3.4c1.6,0,2.7,0.3,3.4,0.9C161.2,18,161.4,18.6,161.4,19.5L161.4,19.5z M160.1,19.5
		c0-0.7-0.2-1.3-0.5-1.7c-0.4-0.5-1.1-0.8-1.9-0.8c-0.3,0-0.5,0-0.7,0.1c-0.2,0-0.4,0.1-0.6,0.2v4.5c0.1,0,0.2,0,0.4,0.1
		c0.2,0,0.4,0,0.5,0c0.7,0,1.3-0.2,1.8-0.5C159.8,21,160.1,20.3,160.1,19.5L160.1,19.5z"/>
</g>
<g>
	<path fill="#DA231C" d="M158,26.1h-4.3v-0.6h0.9c0.2,0,0.3,0,0.3-0.1c0.1-0.1,0.1-0.2,0.1-0.4v-7.4c0-0.2,0-0.3-0.1-0.4
		c-0.1-0.1-0.2-0.1-0.3-0.1h-0.9v-0.6h3.5c1.6,0,2.8,0.3,3.5,1c0.5,0.5,0.8,1.2,0.8,2c0,0.9-0.4,1.7-1.1,2.2
		c-0.7,0.5-1.7,0.7-2.8,0.7c-0.3,0-0.7,0-1.1-0.1V25c0,0.2,0,0.3,0.1,0.4c0.1,0.1,0.2,0.1,0.3,0.1h1.1V26.1z M153.9,25.9h3.8v-0.2
		h-0.9c-0.2,0-0.4-0.1-0.5-0.2c-0.1-0.1-0.1-0.3-0.1-0.5v-2.9l0.1,0c0.4,0.1,0.8,0.1,1.2,0.1c1.1,0,2-0.2,2.7-0.7c0.7-0.5,1-1.2,1-2
		c0-0.8-0.2-1.4-0.7-1.9c-0.7-0.6-1.8-0.9-3.3-0.9h-3.3v0.2h0.7c0.2,0,0.4,0.1,0.5,0.2c0.1,0.1,0.1,0.3,0.1,0.5V25
		c0,0.2,0,0.4-0.1,0.5c-0.1,0.1-0.3,0.2-0.5,0.2h-0.7V25.9z M157.3,22c-0.2,0-0.3,0-0.6,0c-0.2,0-0.4-0.1-0.4-0.1l-0.1,0v-4.7l0.1,0
		c0.2-0.1,0.4-0.2,0.6-0.2c0.2-0.1,0.5-0.1,0.7-0.1c0.9,0,1.5,0.3,2,0.8c0.4,0.5,0.6,1.1,0.6,1.8c0,0.9-0.3,1.6-1,2
		C158.7,21.8,158.1,22,157.3,22z M156.5,21.7c0.1,0,0.2,0,0.3,0.1c0.2,0,0.4,0,0.5,0c0.7,0,1.3-0.2,1.8-0.5c0.6-0.4,0.9-1,0.9-1.8
		c0-0.7-0.2-1.2-0.5-1.6c-0.4-0.5-1-0.7-1.8-0.7c-0.3,0-0.5,0-0.7,0.1c-0.2,0-0.3,0.1-0.5,0.2V21.7z"/>
</g>
<g>
	<path fill="#DA231C" d="M89.1,26h-3.4v-0.4h0.5c0.2,0,0.3,0,0.4-0.1c0.1,0,0.1-0.2,0.1-0.3c0-0.1,0-0.3-0.1-0.5
		c-0.1-0.2-0.1-0.4-0.2-0.5l-0.7-1.9h-3l-0.3,0.8c-0.1,0.3-0.2,0.6-0.3,0.9c-0.1,0.4-0.2,0.7-0.2,0.9c0,0.2,0,0.3,0.1,0.4
		c0.1,0.1,0.2,0.2,0.3,0.2h0.5V26H80v-0.4h0.3c0.2,0,0.4-0.2,0.7-0.5c0.4-0.5,0.8-1.4,1.3-2.8l2.2-5.9h0.4l3,8.4
		c0.1,0.2,0.2,0.4,0.2,0.5c0.2,0.2,0.4,0.3,0.7,0.3h0.3V26L89.1,26z M85.6,21.9l-1.4-3.9l-1.4,3.9H85.6L85.6,21.9z"/>
</g>
<g>
	<path fill="#DA231C" d="M89.2,26.1h-3.7v-0.6h0.6c0.2,0,0.3,0,0.4-0.1c0.1,0,0.1-0.1,0.1-0.2c0-0.1,0-0.3-0.1-0.5
		c-0.1-0.2-0.1-0.4-0.2-0.5l-0.7-1.8h-2.9l-0.6,1.7c-0.1,0.4-0.2,0.7-0.2,0.9c0,0.2,0,0.3,0.1,0.4c0.1,0.1,0.1,0.1,0.2,0.1h0.6v0.6
		h-2.9v-0.6h0.4c0.2,0,0.4-0.2,0.6-0.5c0.4-0.5,0.8-1.4,1.2-2.7l2.2-6h0.6l0,0.1l3,8.4c0.1,0.2,0.2,0.4,0.2,0.5
		c0.1,0.2,0.3,0.3,0.6,0.3h0.4V26.1z M85.7,25.9H89v-0.2h-0.2c-0.3,0-0.6-0.1-0.8-0.4c-0.1-0.1-0.2-0.3-0.3-0.5l-3-8.3h-0.3
		l-2.2,5.8c-0.5,1.3-0.9,2.3-1.3,2.8c-0.3,0.4-0.5,0.6-0.8,0.6h-0.1v0.2h2.5v-0.2h-0.4c-0.1,0-0.3,0-0.4-0.2
		c-0.1-0.1-0.1-0.3-0.1-0.5c0-0.2,0.1-0.5,0.2-0.9l0.7-1.8h3.2l0.7,1.9c0,0.1,0.1,0.3,0.2,0.5c0.1,0.2,0.1,0.4,0.1,0.6
		c0,0.2-0.1,0.4-0.2,0.4c-0.1,0.1-0.3,0.1-0.5,0.1h-0.4V25.9z M85.8,22.1h-3.1l1.6-4.3L85.8,22.1z M83,21.8h2.5l-1.2-3.4L83,21.8z"
		/>
</g>
<g>
	<path fill="#DA231C" d="M107,23.3c-0.4,0.9-1,1.6-1.7,2.1c-0.6,0.4-1.3,0.6-2.2,0.6c-1.3,0-2.4-0.4-3.2-1.2
		c-0.9-0.9-1.4-2.1-1.4-3.6c0-1.4,0.4-2.5,1.2-3.5c0.9-1,2-1.5,3.5-1.5c1.1,0,2,0.2,2.7,0.7l0-0.5h0.4l0.2,2.6h-0.4l0-0.3
		c0-0.5-0.3-1-0.8-1.4c-0.6-0.4-1.3-0.7-2.1-0.7c-1.1,0-1.9,0.5-2.5,1.5c-0.5,0.9-0.7,1.9-0.7,3.1c0,1.4,0.4,2.5,1.1,3.2
		c0.7,0.7,1.5,1,2.5,1c0.6,0,1.2-0.2,1.7-0.6c0.5-0.4,1-1,1.4-1.8L107,23.3L107,23.3z"/>
</g>
<g>
	<path fill="#DA231C" d="M103.1,26.1c-1.3,0-2.4-0.4-3.3-1.3c-1-0.9-1.4-2.1-1.4-3.6c0-1.4,0.4-2.6,1.2-3.5c0.9-1,2.1-1.6,3.6-1.6
		c1,0,1.9,0.2,2.6,0.6l0-0.4h0.6l0.2,2.8H106l0-0.4c0-0.5-0.3-0.9-0.8-1.3c-0.6-0.4-1.2-0.6-2-0.6c-1.1,0-1.9,0.5-2.4,1.4
		c-0.5,0.8-0.7,1.9-0.7,3.1c0,1.4,0.4,2.4,1.1,3.2c0.6,0.7,1.5,1,2.4,1c0.6,0,1.2-0.2,1.7-0.6c0.5-0.4,0.9-1,1.3-1.7l0-0.1l0.5,0.3
		l0,0.1c-0.4,1-1,1.7-1.7,2.1C104.7,25.9,103.9,26.1,103.1,26.1z M103.2,16.3c-1.4,0-2.6,0.5-3.4,1.5c-0.8,0.9-1.2,2.1-1.2,3.4
		c0,1.4,0.5,2.6,1.4,3.5c0.8,0.8,1.9,1.2,3.2,1.2c0.8,0,1.5-0.2,2.1-0.6c0.7-0.4,1.2-1.1,1.6-2l-0.1-0.1c-0.4,0.8-0.8,1.3-1.3,1.7
		c-0.5,0.4-1.1,0.6-1.8,0.6c-1,0-1.9-0.4-2.6-1.1c-0.8-0.8-1.1-1.9-1.1-3.3c0-1.3,0.3-2.3,0.8-3.2c0.6-1,1.5-1.5,2.6-1.5
		c0.8,0,1.5,0.2,2.1,0.7c0.6,0.4,0.9,0.9,0.9,1.5l0,0.2h0.2l-0.2-2.3H106l0,0.6l-0.2-0.1C105.1,16.5,104.2,16.3,103.2,16.3z"/>
</g>
<g>
	<path fill="#DA231C" d="M124.6,18.7h-0.4v-0.3c0-0.4-0.3-0.7-0.8-1c-0.5-0.3-1.1-0.4-1.7-0.4c-0.2,0-0.3,0-0.4,0
		c-0.1,0-0.2,0.1-0.2,0.2V25c0,0.2,0,0.3,0.1,0.5c0.1,0.1,0.2,0.2,0.4,0.2h0.8V26h-3.8v-0.4h0.8c0.2,0,0.3-0.1,0.4-0.2
		c0.1-0.1,0.1-0.3,0.1-0.5v-7.8c0-0.1-0.1-0.2-0.2-0.2c-0.1,0-0.3,0-0.4,0c-0.6,0-1.2,0.1-1.7,0.4c-0.5,0.3-0.8,0.6-0.8,1v0.3h-0.4
		v-2.1h8.3V18.7L124.6,18.7z"/>
</g>
<g>
	<path fill="#DA231C" d="M122.4,26.1h-4v-0.6h0.9c0.2,0,0.3,0,0.3-0.1c0.1-0.1,0.1-0.2,0.1-0.4v-7.8c0,0,0-0.1-0.1-0.1
		c-0.1,0-0.3,0-0.4,0c-0.6,0-1.1,0.1-1.6,0.4c-0.5,0.3-0.7,0.6-0.7,0.9v0.4h-0.6v-2.3h8.5v2.3H124v-0.4c0-0.3-0.3-0.6-0.7-0.9
		c-0.5-0.3-1.1-0.4-1.6-0.4c-0.2,0-0.3,0-0.4,0c-0.1,0-0.1,0-0.1,0.1V25c0,0.2,0,0.3,0.1,0.4c0.1,0.1,0.2,0.1,0.3,0.1h0.9V26.1z
		 M118.6,25.9h3.6v-0.2h-0.7c-0.2,0-0.4-0.1-0.5-0.2c-0.1-0.1-0.1-0.3-0.1-0.5v-7.8c0-0.2,0.1-0.3,0.3-0.3c0.1,0,0.3,0,0.5,0
		c0.6,0,1.2,0.2,1.7,0.5c0.6,0.3,0.9,0.7,0.9,1.1v0.2h0.2v-1.9h-8.1v1.9h0.2v-0.2c0-0.4,0.3-0.8,0.9-1.1c0.5-0.3,1.1-0.5,1.7-0.5
		c0.2,0,0.3,0,0.4,0.1c0.2,0.1,0.3,0.2,0.3,0.3V25c0,0.2,0,0.4-0.1,0.5c-0.1,0.1-0.3,0.2-0.5,0.2h-0.7V25.9z"/>
</g>
<g>
	<path fill="#DA231C" d="M143.2,23.9l-0.4,2.1h-7.2v-0.4h0.8c0.2,0,0.3-0.1,0.4-0.2c0.1-0.1,0.1-0.3,0.1-0.5v-7.4
		c0-0.2,0-0.3-0.1-0.4c-0.1-0.1-0.2-0.2-0.4-0.2h-0.8v-0.4h7.1l0.2,1.9h-0.4l-0.1-0.4c0-0.3-0.3-0.5-0.7-0.7
		c-0.6-0.3-1.5-0.4-2.7-0.4h-0.5c-0.2,0-0.3,0.1-0.4,0.2c-0.1,0.1-0.1,0.3-0.1,0.4v3.3h0.6c1.1,0,1.7-0.1,2.1-0.3
		c0.2-0.1,0.3-0.3,0.3-0.5v-0.3h0.4v2.6H141V22c0-0.2-0.1-0.4-0.3-0.5c-0.3-0.2-1-0.3-2.1-0.3H138V25c0,0.2,0,0.3,0.1,0.5
		c0.1,0.1,0.2,0.2,0.4,0.2h0.2c1.3,0,2.3-0.1,3-0.4c0.6-0.2,0.9-0.6,1-1l0.1-0.3H143.2L143.2,23.9z"/>
</g>
<g>
	<path fill="#DA231C" d="M142.8,26.1h-7.4v-0.6h0.9c0.2,0,0.3,0,0.3-0.1c0.1-0.1,0.1-0.2,0.1-0.4v-7.4c0-0.2,0-0.3-0.1-0.4
		c-0.1-0.1-0.2-0.1-0.3-0.1h-0.9v-0.6h7.3l0.2,2.1h-0.6l-0.1-0.5c0-0.3-0.2-0.5-0.6-0.6c-0.6-0.3-1.4-0.4-2.6-0.4h-0.5
		c-0.1,0-0.2,0-0.3,0.1c-0.1,0.1-0.1,0.2-0.1,0.4v3.2h0.5c1,0,1.7-0.1,2-0.2c0.2-0.1,0.2-0.2,0.2-0.4v-0.4h0.6v2.8h-0.6V22
		c0-0.2-0.1-0.3-0.2-0.4c-0.3-0.2-1-0.2-2-0.2h-0.5V25c0,0.2,0,0.3,0.1,0.4c0.1,0.1,0.2,0.1,0.3,0.1h0.2c1.3,0,2.3-0.1,2.9-0.4
		c0.6-0.2,0.9-0.5,0.9-0.9l0.1-0.4h0.7L142.8,26.1z M135.6,25.9h7L143,24h-0.2l0,0.2c-0.1,0.4-0.4,0.8-1.1,1c-0.7,0.3-1.7,0.4-3,0.4
		h-0.2c-0.2,0-0.4-0.1-0.5-0.2c-0.1-0.1-0.1-0.3-0.1-0.5v-3.9h0.7c1.1,0,1.8,0.1,2.1,0.3c0.2,0.1,0.3,0.3,0.3,0.6v0.2h0.2v-2.4h-0.2
		v0.2c0,0.3-0.1,0.5-0.3,0.6c-0.4,0.2-1,0.3-2.1,0.3h-0.7v-3.4c0-0.2,0-0.4,0.1-0.5c0.1-0.1,0.3-0.2,0.5-0.2h0.5
		c1.2,0,2.1,0.1,2.7,0.4c0.4,0.2,0.7,0.5,0.7,0.8l0,0.3h0.2l-0.1-1.7h-6.9v0.2h0.7c0.2,0,0.4,0.1,0.5,0.2c0.1,0.1,0.1,0.3,0.1,0.5
		V25c0,0.2,0,0.4-0.1,0.5c-0.1,0.1-0.3,0.2-0.5,0.2h-0.7V25.9z"/>
</g>
<g>
	<path fill="#C6C6C6" d="M186.2,24.8c-0.1,0.8-0.4,1.2-1.1,1.2c-0.7,0-1.3-0.5-1.9-1.5c-0.5-0.9-0.9-1.8-1.4-2.7
		c-0.2-0.3-0.4-0.5-0.6-0.6c-0.2-0.1-0.5-0.2-0.8-0.2h-0.5v3.9c0,0.2,0,0.3,0.1,0.4c0.1,0.1,0.2,0.2,0.4,0.2h0.8v0.4h-3.8v-0.4h0.8
		c0.2,0,0.3-0.1,0.4-0.2c0.1-0.1,0.1-0.3,0.1-0.4v-7.4c0-0.2,0-0.3-0.1-0.5c-0.1-0.1-0.2-0.2-0.4-0.2h-0.8v-0.4h3.8v0.4h-0.8
		c-0.2,0-0.3,0.1-0.4,0.2c-0.1,0.1-0.1,0.3-0.1,0.5v3.1h0.5c0.4,0,0.7-0.1,1-0.3c0.3-0.3,0.7-0.9,1.2-1.8c0.4-0.9,0.8-1.5,1.1-1.7
		c0.3-0.3,0.7-0.4,1.1-0.4c0.3,0,0.5,0.1,0.7,0.2c0.2,0.2,0.3,0.4,0.3,0.6c0,0.2-0.1,0.4-0.2,0.5c-0.1,0.1-0.3,0.2-0.5,0.2
		c-0.2,0-0.3-0.1-0.5-0.2c-0.1-0.1-0.2-0.3-0.2-0.5v-0.2c0-0.1,0-0.2-0.1-0.2c-0.2,0-0.4,0.3-0.7,0.9c-0.4,0.9-0.6,1.5-0.8,1.8
		c-0.4,0.7-0.9,1.1-1.6,1.3v0.1c0.6,0.1,1.1,0.3,1.6,0.7c0.4,0.3,0.7,0.7,1,1.3c0.2,0.3,0.4,0.8,0.7,1.5c0.1,0.3,0.2,0.6,0.4,0.8
		c0.1,0.2,0.3,0.4,0.5,0.4c0.1,0,0.2-0.1,0.3-0.2c0.1-0.1,0.1-0.3,0.1-0.4H186.2L186.2,24.8z"/>
</g>
<g>
	<path fill="#C6C6C6" d="M185.1,26.1c-0.7,0-1.4-0.5-2-1.6c-0.5-0.9-0.9-1.8-1.4-2.7c-0.2-0.3-0.3-0.5-0.5-0.6
		c-0.2-0.1-0.4-0.2-0.7-0.2H180v3.8c0,0.2,0,0.3,0.1,0.4c0.1,0.1,0.2,0.1,0.3,0.1h0.9v0.6h-4v-0.6h0.9c0.2,0,0.3,0,0.3-0.1
		c0.1-0.1,0.1-0.2,0.1-0.4v-7.4c0-0.2,0-0.3-0.1-0.4c-0.1-0.1-0.2-0.1-0.3-0.1h-0.9v-0.6h4v0.6h-0.9c-0.2,0-0.3,0-0.3,0.1
		c-0.1,0.1-0.1,0.2-0.1,0.4v3h0.4c0.4,0,0.7-0.1,0.9-0.3c0.3-0.3,0.7-0.9,1.2-1.8c0.5-0.9,0.8-1.5,1.2-1.8c0.3-0.3,0.7-0.4,1.1-0.4
		c0.3,0,0.6,0.1,0.8,0.3c0.2,0.2,0.3,0.4,0.3,0.7c0,0.2-0.1,0.4-0.2,0.6c-0.2,0.1-0.3,0.2-0.6,0.2c-0.2,0-0.4-0.1-0.5-0.2
		c-0.1-0.1-0.2-0.3-0.2-0.5v-0.2c0-0.1,0-0.1,0-0.1c0,0,0,0,0,0c-0.1,0-0.3,0.1-0.6,0.8c-0.4,1-0.6,1.5-0.8,1.8
		c-0.4,0.6-0.8,1-1.3,1.2c0.5,0.1,1,0.3,1.4,0.7c0.4,0.3,0.7,0.8,1.1,1.3c0.2,0.3,0.4,0.8,0.7,1.5c0.1,0.3,0.2,0.5,0.4,0.8
		c0.1,0.2,0.2,0.3,0.4,0.3c0.1,0,0.1,0,0.2-0.1c0.1-0.1,0.1-0.2,0.1-0.4v-0.1h0.6l0,0.1C186.2,25.9,185.6,26.1,185.1,26.1z
		 M179.8,20.8h0.6c0.3,0,0.6,0.1,0.9,0.2c0.2,0.2,0.4,0.4,0.6,0.7c0.5,0.9,0.9,1.8,1.4,2.7c0.6,1,1.2,1.5,1.8,1.5
		c0.6,0,0.9-0.3,1-0.9H186c0,0.1,0,0.2-0.1,0.4c-0.1,0.2-0.3,0.2-0.4,0.2c-0.2,0-0.4-0.1-0.6-0.4c-0.1-0.3-0.2-0.6-0.4-0.8
		c-0.3-0.6-0.5-1.1-0.7-1.5c-0.3-0.5-0.7-1-1-1.3c-0.4-0.4-1-0.6-1.6-0.7l-0.1,0v-0.2l0.1,0c0.6-0.2,1.1-0.6,1.5-1.2
		c0.1-0.2,0.4-0.8,0.8-1.8c0.3-0.7,0.5-1,0.8-1c0.1,0,0.2,0,0.2,0.3v0.2c0,0.2,0,0.3,0.1,0.4c0.1,0.1,0.2,0.2,0.4,0.2
		c0.2,0,0.3-0.1,0.4-0.2c0.1-0.1,0.2-0.3,0.2-0.4c0-0.2-0.1-0.4-0.2-0.5c-0.2-0.1-0.4-0.2-0.6-0.2c-0.4,0-0.7,0.1-1,0.4
		c-0.3,0.3-0.7,0.8-1.1,1.7c-0.5,1-0.9,1.6-1.2,1.9c-0.3,0.2-0.6,0.3-1,0.3h-0.6v-3.2c0-0.2,0-0.4,0.1-0.5c0.1-0.1,0.3-0.2,0.5-0.2
		h0.7v-0.2h-3.6v0.2h0.7c0.2,0,0.4,0.1,0.5,0.2c0.1,0.1,0.1,0.3,0.1,0.5v7.4c0,0.2,0,0.4-0.1,0.5c-0.1,0.1-0.3,0.2-0.5,0.2h-0.7v0.2
		h3.6v-0.2h-0.7c-0.2,0-0.4-0.1-0.5-0.2c-0.1-0.1-0.1-0.3-0.1-0.5V20.8z"/>
</g>
<g>
	<path fill="#C6C6C6" d="M204.8,25.8h-3.8v-0.4h0.8c0.2,0,0.3-0.1,0.4-0.2c0.1-0.1,0.1-0.3,0.1-0.4v-7.4c0-0.2,0-0.3-0.1-0.5
		c-0.1-0.1-0.2-0.2-0.4-0.2h-0.8c-0.7,0-1.1,0.2-1.2,0.5c-0.1,1-0.3,2.1-0.5,3.4c-0.3,1.9-0.7,3.3-1.1,4.1c-0.4,0.8-0.9,1.2-1.5,1.2
		c-0.4,0-0.7-0.1-0.9-0.3c-0.3-0.2-0.4-0.5-0.4-0.8c0-0.2,0.1-0.4,0.2-0.6c0.1-0.2,0.3-0.2,0.5-0.2c0.3,0,0.4,0.1,0.5,0.2
		c0.1,0.1,0.2,0.3,0.2,0.5V25l-0.1,0.2c0,0.2,0.1,0.3,0.2,0.3c0.2,0,0.3-0.1,0.5-0.3c0.2-0.3,0.4-0.8,0.7-1.5
		c0.2-0.7,0.5-1.7,0.7-3.1c0.2-1.4,0.3-2.3,0.3-2.8c0-0.3-0.1-0.5-0.2-0.6c-0.1-0.2-0.3-0.2-0.5-0.2h-0.9v-0.4h7.1v0.4h-0.8
		c-0.2,0-0.3,0.1-0.4,0.2c-0.1,0.1-0.1,0.3-0.1,0.5v7.4c0,0.2,0,0.3,0.1,0.4c0.1,0.1,0.2,0.2,0.4,0.2h0.8V25.8L204.8,25.8z"/>
</g>
<g>
	<path fill="#C6C6C6" d="M196.8,26.1c-0.4,0-0.7-0.1-1-0.3c-0.3-0.2-0.4-0.5-0.4-0.9c0-0.3,0.1-0.5,0.2-0.7c0.2-0.2,0.4-0.3,0.6-0.3
		c0.3,0,0.5,0.1,0.6,0.3c0.1,0.2,0.2,0.3,0.2,0.5l0,0.2l0,0.2c0,0.1,0.1,0.2,0.1,0.2c0.1,0,0.3-0.1,0.4-0.3c0.2-0.3,0.4-0.8,0.7-1.5
		c0.2-0.7,0.5-1.7,0.7-3.1c0.2-1.4,0.3-2.3,0.3-2.8c0-0.2,0-0.4-0.1-0.5c-0.1-0.1-0.2-0.2-0.4-0.2h-1v-0.6h7.3v0.6h-0.9
		c-0.1,0-0.3,0-0.3,0.1c-0.1,0.1-0.1,0.2-0.1,0.4v7.4c0,0.2,0,0.3,0.1,0.4c0.1,0.1,0.2,0.1,0.3,0.1h0.9v0.6h-4v-0.6h0.9
		c0.2,0,0.3,0,0.3-0.1c0.1-0.1,0.1-0.2,0.1-0.4v-7.4c0-0.2,0-0.3-0.1-0.4c-0.1-0.1-0.2-0.1-0.3-0.1h-0.8c-0.6,0-1,0.1-1.1,0.4
		c-0.1,1-0.3,2.1-0.5,3.3c-0.3,1.9-0.7,3.3-1.1,4.1C198,25.7,197.4,26.1,196.8,26.1z M196.2,24.2c-0.2,0-0.3,0.1-0.4,0.2
		c-0.1,0.1-0.2,0.3-0.2,0.5c0,0.3,0.1,0.5,0.4,0.7c0.2,0.2,0.5,0.2,0.8,0.2c0.6,0,1.1-0.4,1.4-1.1c0.4-0.8,0.8-2.2,1.1-4.1
		c0.2-1.2,0.4-2.3,0.5-3.4c0.1-0.4,0.6-0.6,1.3-0.6h0.8c0.2,0,0.4,0.1,0.5,0.2c0.1,0.1,0.1,0.3,0.1,0.5v7.4c0,0.2,0,0.4-0.1,0.5
		c-0.1,0.1-0.3,0.2-0.5,0.2h-0.7v0.2h3.6v-0.2h-0.7c-0.2,0-0.4-0.1-0.5-0.2c-0.1-0.1-0.1-0.3-0.1-0.5v-7.4c0-0.2,0-0.4,0.1-0.5
		c0.1-0.1,0.3-0.2,0.5-0.2h0.7v-0.2h-6.9v0.2h0.8c0.3,0,0.5,0.1,0.6,0.3c0.1,0.2,0.2,0.4,0.2,0.7c0,0.5-0.1,1.5-0.3,2.8
		c-0.2,1.4-0.5,2.4-0.7,3.1c-0.2,0.7-0.5,1.2-0.7,1.5c-0.2,0.3-0.4,0.4-0.6,0.4c-0.2,0-0.3-0.1-0.3-0.4l0,0l0-0.2v-0.2
		c0-0.2,0-0.3-0.1-0.4C196.6,24.2,196.4,24.2,196.2,24.2z"/>
</g>
<g>
	<path fill="#C6C6C6" d="M223.9,26h-3.4v-0.4h0.5c0.2,0,0.3,0,0.4-0.1c0.1,0,0.1-0.2,0.1-0.3c0-0.1,0-0.3-0.1-0.5
		c-0.1-0.2-0.1-0.4-0.2-0.5l-0.7-1.9h-3l-0.3,0.8c-0.1,0.3-0.2,0.6-0.3,0.9c-0.1,0.4-0.2,0.7-0.2,0.9c0,0.2,0,0.3,0.1,0.4
		c0.1,0.1,0.2,0.2,0.3,0.2h0.5V26h-2.7v-0.4h0.3c0.2,0,0.4-0.2,0.7-0.5c0.4-0.5,0.8-1.4,1.3-2.8l2.2-5.9h0.4l3,8.4
		c0.1,0.2,0.2,0.4,0.2,0.5c0.2,0.2,0.4,0.3,0.7,0.3h0.3V26L223.9,26z M220.5,21.9l-1.4-3.9l-1.4,3.9H220.5L220.5,21.9z"/>
</g>
<g>
	<path fill="#C6C6C6" d="M224,26.1h-3.6v-0.6h0.6c0.2,0,0.3,0,0.4-0.1c0.1,0,0.1-0.1,0.1-0.2c0-0.1,0-0.3-0.1-0.5
		c-0.1-0.2-0.1-0.4-0.2-0.5l-0.7-1.8h-2.9l-0.6,1.7c-0.1,0.4-0.2,0.7-0.2,0.9c0,0.2,0,0.3,0.1,0.4c0.1,0.1,0.1,0.1,0.2,0.1h0.6v0.6
		h-2.9v-0.6h0.4c0.2,0,0.4-0.2,0.6-0.5c0.3-0.5,0.8-1.4,1.2-2.7l2.2-6h0.6l0,0.1l3,8.4c0.1,0.2,0.2,0.4,0.2,0.5
		c0.1,0.2,0.3,0.3,0.6,0.3h0.4V26.1z M220.6,25.9h3.2v-0.2h-0.2c-0.3,0-0.6-0.1-0.8-0.4c-0.1-0.1-0.2-0.3-0.3-0.5l-3-8.3h-0.3
		l-2.2,5.8c-0.5,1.3-0.9,2.2-1.3,2.8c-0.3,0.4-0.5,0.6-0.8,0.6H215v0.2h2.5v-0.2h-0.4c-0.1,0-0.3,0-0.4-0.2
		c-0.1-0.1-0.1-0.3-0.1-0.5c0-0.2,0.1-0.5,0.2-0.9l0.7-1.8h3.2l0.7,1.9c0,0.1,0.1,0.3,0.2,0.5c0.1,0.2,0.1,0.4,0.1,0.6
		c0,0.2-0.1,0.4-0.2,0.4c-0.1,0.1-0.3,0.1-0.4,0.1h-0.4V25.9z M220.6,22.1h-3.1l1.6-4.3L220.6,22.1z M217.8,21.8h2.5l-1.2-3.4
		L217.8,21.8z"/>
</g>
<g>
	<path fill="#C6C6C6" d="M241.4,23.3c-0.4,0.9-1,1.6-1.7,2.1c-0.6,0.4-1.3,0.6-2.2,0.6c-1.3,0-2.4-0.4-3.2-1.2
		c-0.9-0.9-1.4-2.1-1.4-3.6c0-1.4,0.4-2.5,1.2-3.5c0.9-1,2-1.5,3.5-1.5c1.1,0,2,0.2,2.7,0.7l0-0.5h0.4l0.2,2.6h-0.4l0-0.3
		c0-0.5-0.3-1-0.8-1.4c-0.6-0.4-1.3-0.7-2.1-0.7c-1.1,0-1.9,0.5-2.5,1.5c-0.5,0.8-0.7,1.9-0.7,3.1c0,1.4,0.4,2.5,1.1,3.2
		c0.7,0.7,1.5,1,2.5,1c0.6,0,1.2-0.2,1.7-0.6c0.5-0.4,1-1,1.4-1.8L241.4,23.3L241.4,23.3z"/>
</g>
<g>
	<path fill="#C6C6C6" d="M237.6,26.1c-1.3,0-2.4-0.4-3.3-1.2c-1-0.9-1.4-2.1-1.4-3.6c0-1.4,0.4-2.6,1.2-3.5c0.9-1,2.1-1.6,3.6-1.6
		c1,0,1.9,0.2,2.6,0.6l0-0.4h0.6l0,0.1l0.2,2.7h-0.6l0-0.4c0-0.5-0.3-0.9-0.8-1.3c-0.5-0.4-1.2-0.6-2-0.6c-1.1,0-1.9,0.5-2.4,1.4
		c-0.5,0.8-0.7,1.9-0.7,3.1c0,1.4,0.4,2.4,1.1,3.2c0.6,0.7,1.5,1,2.4,1c0.6,0,1.2-0.2,1.7-0.6c0.5-0.4,0.9-1,1.3-1.7l0-0.1l0.5,0.3
		l0,0.1c-0.4,1-1,1.7-1.7,2.1C239.2,25.9,238.4,26.1,237.6,26.1z M237.6,16.3c-1.4,0-2.6,0.5-3.4,1.5c-0.8,0.9-1.2,2.1-1.2,3.4
		c0,1.4,0.5,2.6,1.4,3.5c0.8,0.8,1.9,1.2,3.2,1.2c0.8,0,1.5-0.2,2.1-0.6c0.7-0.4,1.2-1.1,1.6-2l-0.1-0.1c-0.4,0.8-0.8,1.3-1.3,1.7
		c-0.5,0.4-1.1,0.6-1.8,0.6c-1,0-1.9-0.4-2.6-1.1c-0.8-0.8-1.1-1.9-1.1-3.3c0-1.3,0.3-2.3,0.8-3.2c0.6-1,1.5-1.5,2.6-1.5
		c0.8,0,1.5,0.2,2.1,0.7c0.6,0.4,0.9,0.9,0.9,1.5l0,0.2h0.2l-0.2-2.3h-0.2l0,0.6l-0.2-0.1C239.6,16.5,238.7,16.3,237.6,16.3z"/>
</g>
<g>
	<path fill="#C6C6C6" d="M258.6,23.3c-0.4,0.9-1,1.6-1.7,2.1c-0.6,0.4-1.3,0.6-2.2,0.6c-1.3,0-2.4-0.4-3.2-1.2
		c-0.9-0.9-1.4-2.1-1.4-3.6c0-1.4,0.4-2.5,1.2-3.5c0.9-1,2-1.5,3.5-1.5c1.1,0,2,0.2,2.7,0.7l0-0.5h0.4l0.2,2.6h-0.4l0-0.3
		c0-0.5-0.3-1-0.8-1.4c-0.6-0.4-1.3-0.7-2-0.7c-1.1,0-1.9,0.5-2.5,1.5c-0.5,0.8-0.7,1.9-0.7,3.1c0,1.4,0.4,2.5,1.1,3.2
		c0.7,0.7,1.5,1,2.5,1c0.6,0,1.2-0.2,1.7-0.6c0.5-0.4,1-1,1.4-1.8L258.6,23.3L258.6,23.3z"/>
</g>
<g>
	<path fill="#C6C6C6" d="M254.7,26.1c-1.3,0-2.4-0.4-3.3-1.2c-1-0.9-1.4-2.1-1.4-3.6c0-1.4,0.4-2.6,1.2-3.5c0.9-1,2.1-1.6,3.6-1.6
		c1,0,1.9,0.2,2.6,0.6l0-0.4h0.6l0.2,2.8h-0.6l0-0.4c0-0.5-0.3-0.9-0.8-1.3c-0.5-0.4-1.2-0.6-2-0.6c-1.1,0-1.9,0.5-2.4,1.4
		c-0.5,0.8-0.7,1.9-0.7,3.1c0,1.4,0.4,2.4,1.1,3.2c0.6,0.7,1.5,1,2.4,1c0.6,0,1.2-0.2,1.7-0.6c0.5-0.4,0.9-1,1.3-1.7l0-0.1l0.5,0.3
		l0,0.1c-0.4,1-1,1.7-1.7,2.1C256.3,25.9,255.6,26.1,254.7,26.1z M254.8,16.3c-1.4,0-2.6,0.5-3.4,1.5c-0.8,0.9-1.2,2.1-1.2,3.4
		c0,1.4,0.5,2.6,1.4,3.5c0.8,0.8,1.9,1.2,3.2,1.2c0.8,0,1.5-0.2,2.1-0.6c0.7-0.4,1.2-1.1,1.6-2l-0.1-0.1c-0.4,0.8-0.8,1.3-1.3,1.7
		c-0.5,0.4-1.1,0.6-1.8,0.6c-1,0-1.9-0.4-2.6-1.1c-0.8-0.8-1.1-1.9-1.1-3.3c0-1.3,0.3-2.3,0.8-3.2c0.6-1,1.5-1.5,2.6-1.5
		c0.8,0,1.5,0.2,2.1,0.7c0.6,0.4,0.9,0.9,0.9,1.5l0,0.2h0.2l-0.2-2.3h-0.2l0,0.6l-0.2-0.1C256.8,16.5,255.9,16.3,254.8,16.3z"/>
</g>
<g>
	<polygon fill="#706F6F" points="61.3,33.7 60.8,33.7 60.8,30.8 59.9,33.7 59.5,33.7 58.5,30.8 58.5,33.7 58.1,33.7 58.1,30.3 
		58.8,30.3 59.7,33.1 60.6,30.3 61.3,30.3 61.3,33.7 	"/>
</g>
<g>
	<path fill="#706F6F" d="M80,32.3l-0.6-1.6l-0.6,1.6H80L80,32.3z M81.1,33.7h-0.5l-0.4-1h-1.4l-0.4,1h-0.5l1.3-3.4h0.5L81.1,33.7
		L81.1,33.7z"/>
</g>
<g>
	<path fill="#706F6F" d="M99,33.7c-0.5,0-0.8-0.1-1.1-0.3c-0.2-0.2-0.4-0.5-0.4-0.8H98c0,0.3,0.1,0.4,0.3,0.6
		c0.2,0.1,0.4,0.2,0.7,0.2c0.3,0,0.5-0.1,0.6-0.2c0.2-0.1,0.2-0.2,0.2-0.4c0-0.2-0.1-0.3-0.2-0.4c-0.2-0.1-0.4-0.2-0.8-0.2
		c-0.4-0.1-0.7-0.2-0.8-0.3c-0.2-0.1-0.3-0.3-0.3-0.6c0-0.3,0.1-0.5,0.3-0.7c0.2-0.2,0.5-0.3,0.9-0.3c0.4,0,0.7,0.1,0.9,0.3
		c0.2,0.2,0.4,0.4,0.4,0.7h-0.4c0-0.4-0.3-0.6-0.8-0.6c-0.2,0-0.4,0-0.6,0.1c-0.1,0.1-0.2,0.2-0.2,0.4c0,0.1,0.1,0.2,0.2,0.3
		c0.1,0.1,0.3,0.1,0.6,0.2c0.3,0.1,0.5,0.1,0.7,0.2c0.2,0.1,0.3,0.2,0.5,0.3c0.1,0.1,0.2,0.3,0.2,0.5c0,0.3-0.1,0.5-0.3,0.7
		C99.7,33.6,99.4,33.7,99,33.7L99,33.7z"/>
</g>
<g>
	<polygon fill="#706F6F" points="119.6,30.7 118.4,30.7 118.4,33.7 118,33.7 118,30.7 116.9,30.7 116.9,30.3 119.6,30.3 119.6,30.7 
			"/>
</g>
<g>
	<polygon fill="#706F6F" points="138.8,33.7 136.3,33.7 136.3,30.3 138.8,30.3 138.8,30.7 136.8,30.7 136.8,31.7 138.6,31.7 
		138.6,32.1 136.8,32.1 136.8,33.3 138.8,33.3 138.8,33.7 	"/>
</g>
<g>
	<path fill="#706F6F" d="M158.6,33.7h-0.5l-0.3-0.9c-0.1-0.2-0.2-0.3-0.3-0.4c-0.1-0.1-0.3-0.2-0.5-0.2h-0.8v1.4h-0.4v-3.4h1.5
		c0.3,0,0.5,0,0.6,0.1c0.2,0,0.3,0.2,0.4,0.3c0.1,0.2,0.2,0.3,0.2,0.5c0,0.2-0.1,0.4-0.2,0.6c-0.1,0.2-0.3,0.3-0.6,0.3v0
		c0.2,0.1,0.4,0.3,0.5,0.6L158.6,33.7L158.6,33.7z M156.2,31.8h1c0.3,0,0.5,0,0.6-0.1c0.1-0.1,0.2-0.2,0.2-0.5
		c0-0.4-0.2-0.6-0.7-0.6h-1.1V31.8L156.2,31.8z"/>
</g>
<g>
	<path fill="#706F6F" d="M179.4,33.7c-0.5,0-0.9-0.2-1.1-0.5c-0.3-0.3-0.4-0.7-0.4-1.3c0-0.5,0.1-1,0.4-1.3c0.3-0.3,0.7-0.5,1.1-0.5
		c0.4,0,0.7,0.1,0.9,0.3c0.3,0.2,0.4,0.5,0.4,0.8h-0.5c0-0.2-0.1-0.4-0.3-0.5c-0.2-0.1-0.4-0.2-0.6-0.2c-0.3,0-0.6,0.1-0.8,0.4
		c-0.2,0.2-0.3,0.6-0.3,1c0,0.4,0.1,0.8,0.3,1c0.2,0.2,0.5,0.4,0.8,0.4c0.3,0,0.5-0.1,0.6-0.2c0.2-0.1,0.3-0.3,0.3-0.6h0.5
		c0,0.4-0.2,0.6-0.4,0.8C180.1,33.6,179.7,33.7,179.4,33.7L179.4,33.7z"/>
</g>
<g>
	<polygon fill="#706F6F" points="199.7,33.7 197.6,33.7 197.6,30.3 198.1,30.3 198.1,33.3 199.7,33.3 199.7,33.7 	"/>
</g>
<g>
	<path fill="#706F6F" d="M218.3,32.3l-0.6-1.6l-0.6,1.6H218.3L218.3,32.3z M219.3,33.7h-0.5l-0.4-1H217l-0.4,1h-0.5l1.3-3.4h0.5
		L219.3,33.7L219.3,33.7z"/>
</g>
<g>
	<path fill="#706F6F" d="M237.2,33.7c-0.5,0-0.8-0.1-1.1-0.3c-0.2-0.2-0.4-0.5-0.4-0.8h0.4c0,0.3,0.1,0.4,0.3,0.6
		c0.2,0.1,0.4,0.2,0.7,0.2c0.3,0,0.5-0.1,0.6-0.2c0.2-0.1,0.2-0.2,0.2-0.4c0-0.2-0.1-0.3-0.2-0.4c-0.2-0.1-0.4-0.2-0.8-0.2
		c-0.4-0.1-0.7-0.2-0.8-0.3c-0.2-0.1-0.3-0.3-0.3-0.6c0-0.3,0.1-0.5,0.3-0.7c0.2-0.2,0.5-0.3,0.9-0.3c0.4,0,0.7,0.1,0.9,0.3
		c0.2,0.2,0.4,0.4,0.4,0.7H238c0-0.4-0.3-0.6-0.8-0.6c-0.2,0-0.4,0-0.6,0.1c-0.1,0.1-0.2,0.2-0.2,0.4c0,0.1,0.1,0.2,0.2,0.3
		c0.1,0.1,0.3,0.1,0.6,0.2c0.3,0.1,0.5,0.1,0.7,0.2c0.2,0.1,0.3,0.2,0.5,0.3c0.1,0.1,0.2,0.3,0.2,0.5c0,0.3-0.1,0.5-0.3,0.7
		C237.9,33.6,237.6,33.7,237.2,33.7L237.2,33.7z"/>
</g>
<g>
	<path fill="#706F6F" d="M256.9,33.7c-0.5,0-0.8-0.1-1.1-0.3c-0.2-0.2-0.4-0.5-0.4-0.8h0.4c0,0.3,0.1,0.4,0.3,0.6
		c0.2,0.1,0.4,0.2,0.7,0.2c0.3,0,0.5-0.1,0.6-0.2c0.2-0.1,0.2-0.2,0.2-0.4c0-0.2-0.1-0.3-0.2-0.4c-0.2-0.1-0.4-0.2-0.8-0.2
		c-0.4-0.1-0.7-0.2-0.8-0.3c-0.2-0.1-0.3-0.3-0.3-0.6c0-0.3,0.1-0.5,0.3-0.7c0.2-0.2,0.5-0.3,0.9-0.3c0.4,0,0.7,0.1,0.9,0.3
		c0.2,0.2,0.4,0.4,0.4,0.7h-0.4c0-0.4-0.3-0.6-0.8-0.6c-0.2,0-0.4,0-0.6,0.1c-0.1,0.1-0.2,0.2-0.2,0.4c0,0.1,0.1,0.2,0.2,0.3
		c0.1,0.1,0.3,0.1,0.6,0.2c0.3,0.1,0.5,0.1,0.7,0.2c0.2,0.1,0.3,0.2,0.5,0.3c0.1,0.1,0.2,0.3,0.2,0.5c0,0.3-0.1,0.5-0.3,0.7
		C257.6,33.6,257.3,33.7,256.9,33.7L256.9,33.7z"/>
</g>
<g>
	<polygon fill="#706F6F" points="61.3,12.4 60.9,12.4 60.9,9.7 60,12.4 59.7,12.4 58.8,9.7 58.8,12.4 58.4,12.4 58.4,9.3 59,9.3 
		59.8,11.9 60.7,9.3 61.3,9.3 61.3,12.4 	"/>
</g>
<g>
	<polygon fill="#706F6F" points="67.9,12.4 65.5,12.4 65.5,9.3 67.8,9.3 67.8,9.6 66,9.6 66,10.6 67.7,10.6 67.7,11 66,11 66,12 
		67.9,12 67.9,12.4 	"/>
</g>
<g>
	<polygon fill="#706F6F" points="75.6,12.4 75.1,12.4 73.9,10.9 73.9,12.4 73.4,12.4 73.4,10.9 72.2,12.4 71.7,12.4 73.2,10.7 
		71.7,9.3 72.3,9.3 73.4,10.5 73.4,9.3 73.9,9.3 73.9,10.5 75,9.3 75.6,9.3 74.1,10.7 75.6,12.4 	"/>
</g>
<g>
	<path fill="#706F6F" d="M82.1,12h0.4v1.1h-0.4v-0.7h-2.4v0.7h-0.4V12h0.3c0.1-0.2,0.2-0.4,0.3-0.8c0.1-0.3,0.1-0.8,0.1-1.5V9.3h2.2
		V12L82.1,12z M81.6,12V9.6h-1.3v0.2c0,0.6,0,1.1-0.1,1.4c-0.1,0.3-0.2,0.6-0.3,0.8H81.6L81.6,12z"/>
</g>
<g>
	<path fill="#706F6F" d="M88.9,9.3l-1.2,2.3c-0.2,0.4-0.4,0.6-0.5,0.7c-0.1,0.1-0.3,0.2-0.4,0.2c-0.1,0-0.3,0-0.4-0.1V12
		c0.1,0,0.2,0.1,0.4,0.1c0.2,0,0.4-0.2,0.5-0.5l-0.6-1.2l-0.6-1.2h0.5l0.5,0.9l0.5,0.9l0.9-1.9H88.9L88.9,9.3z"/>
</g>
<g>
	<polygon fill="#706F6F" points="95.3,12.4 94.8,12.4 94.8,10.9 93.2,10.9 93.2,12.4 92.8,12.4 92.8,9.3 93.2,9.3 93.2,10.6 
		94.8,10.6 94.8,9.3 95.3,9.3 95.3,12.4 	"/>
</g>
<g>
	<path fill="#706F6F" d="M101.1,11.1l-0.6-1.5l-0.5,1.5H101.1L101.1,11.1z M102.1,12.4h-0.5l-0.4-1h-1.3l-0.3,1h-0.4l1.2-3.2h0.5
		L102.1,12.4L102.1,12.4z"/>
</g>
<g>
	<path fill="#706F6F" d="M106,9.3h1.2c0.3,0,0.5,0,0.6,0.1c0.2,0,0.3,0.2,0.4,0.3c0.1,0.2,0.2,0.3,0.2,0.5c0,0.3-0.1,0.6-0.3,0.7
		c-0.2,0.2-0.5,0.2-0.9,0.2h-0.8v1.3H106V9.3L106,9.3z M106.4,10.8h0.8c0.3,0,0.5,0,0.6-0.2c0.1-0.1,0.2-0.2,0.2-0.4
		c0-0.1,0-0.2-0.1-0.3c-0.1-0.1-0.1-0.2-0.2-0.2c-0.1,0-0.2,0-0.4,0h-0.8V10.8L106.4,10.8z"/>
</g>
<g>
	<path fill="#706F6F" d="M113.8,9.2c0.4,0,0.8,0.1,1.1,0.4c0.3,0.3,0.4,0.7,0.4,1.2c0,0.5-0.1,0.9-0.4,1.2c-0.3,0.3-0.6,0.4-1.1,0.4
		c-0.4,0-0.8-0.1-1.1-0.5c-0.3-0.3-0.4-0.7-0.4-1.2c0-0.5,0.1-0.9,0.4-1.2C113,9.4,113.3,9.2,113.8,9.2L113.8,9.2z M113.8,12.1
		c0.3,0,0.6-0.1,0.8-0.3c0.2-0.2,0.3-0.5,0.3-0.9c0-0.4-0.1-0.7-0.3-0.9c-0.2-0.2-0.5-0.3-0.8-0.3c-0.3,0-0.6,0.1-0.8,0.3
		c-0.2,0.2-0.3,0.5-0.3,0.9c0,0.4,0.1,0.7,0.3,0.9C113.2,12,113.5,12.1,113.8,12.1L113.8,12.1z"/>
</g>
<g>
	<path fill="#706F6F" d="M121.9,12h0.4v1.1h-0.4v-0.7h-2.4v0.7h-0.4V12h0.3c0.1-0.2,0.2-0.4,0.3-0.8c0.1-0.3,0.1-0.8,0.1-1.5V9.3
		h2.2V12L121.9,12z M121.5,12V9.6h-1.3v0.2c0,0.6,0,1.1-0.1,1.4c-0.1,0.3-0.2,0.6-0.3,0.8H121.5L121.5,12z"/>
</g>
<g>
	<polygon fill="#706F6F" points="128.8,12.4 128.4,12.4 128.4,10.9 126.7,10.9 126.7,12.4 126.3,12.4 126.3,9.3 126.7,9.3 
		126.7,10.6 128.4,10.6 128.4,9.3 128.8,9.3 128.8,12.4 	"/>
</g>
<g>
	<path fill="#706F6F" d="M133.4,10.6h0.7c0.8,0,1.2,0.3,1.2,0.9c0,0.3-0.1,0.5-0.3,0.7c-0.2,0.2-0.5,0.2-0.9,0.2H133V9.3h0.4V10.6
		L133.4,10.6z M133.4,12h0.8c0.5,0,0.8-0.2,0.8-0.5c0-0.2-0.1-0.3-0.2-0.4c-0.1-0.1-0.3-0.1-0.6-0.1h-0.7V12L133.4,12z M136.2,12.4
		h-0.4V9.3h0.4V12.4L136.2,12.4z"/>
</g>
<g>
	<path fill="#706F6F" d="M142.9,12.4h-0.4V9.9l-1.7,2.5h-0.4V9.3h0.4v2.5l1.7-2.5h0.4V12.4L142.9,12.4z M142.3,8.5
		c0,0.2-0.1,0.3-0.2,0.4C142,9,141.8,9,141.7,9c-0.2,0-0.3,0-0.4-0.1c-0.1-0.1-0.2-0.2-0.2-0.4h0.3c0,0.2,0.2,0.3,0.4,0.3
		c0.2,0,0.3-0.1,0.4-0.3H142.3L142.3,8.5z"/>
</g>
<g>
	<path fill="#706F6F" d="M151.2,9.6c0.5,0,0.8,0.1,1.1,0.3c0.3,0.2,0.4,0.5,0.4,0.9c0,0.4-0.1,0.7-0.4,0.9c-0.3,0.2-0.6,0.3-1.1,0.3
		v0.4h-0.4V12c-0.5,0-0.8-0.1-1.1-0.3c-0.3-0.2-0.4-0.5-0.4-0.9c0-0.4,0.1-0.7,0.4-0.9c0.3-0.2,0.6-0.3,1.1-0.3V9.3h0.4V9.6
		L151.2,9.6z M151.2,11.7c0.3,0,0.6-0.1,0.8-0.2c0.2-0.1,0.3-0.4,0.3-0.7c0-0.3-0.1-0.5-0.3-0.7c-0.2-0.1-0.4-0.2-0.8-0.2V11.7
		L151.2,11.7z M150.8,11.7V10c-0.3,0-0.6,0.1-0.8,0.2c-0.2,0.1-0.3,0.4-0.3,0.7c0,0.3,0.1,0.5,0.3,0.7
		C150.2,11.6,150.4,11.7,150.8,11.7L150.8,11.7z"/>
</g>
<g>
	<polygon fill="#706F6F" points="159.1,12.4 156.7,12.4 156.7,9.3 159,9.3 159,9.6 157.2,9.6 157.2,10.6 158.9,10.6 158.9,11 
		157.2,11 157.2,12 159.1,12 159.1,12.4 	"/>
</g>
<g>
	<path fill="#706F6F" d="M164.5,12.5c-0.4,0-0.8-0.1-1.1-0.4c-0.3-0.3-0.4-0.7-0.4-1.2c0-0.5,0.1-0.9,0.4-1.2
		c0.3-0.3,0.6-0.4,1.1-0.4c0.3,0,0.6,0.1,0.9,0.3c0.2,0.2,0.4,0.4,0.4,0.7h-0.4c0-0.2-0.1-0.4-0.3-0.5c-0.2-0.1-0.4-0.2-0.6-0.2
		c-0.3,0-0.6,0.1-0.8,0.3c-0.2,0.2-0.3,0.5-0.3,0.9c0,0.4,0.1,0.7,0.3,0.9c0.2,0.2,0.4,0.3,0.8,0.3c0.2,0,0.4-0.1,0.6-0.2
		c0.2-0.1,0.2-0.3,0.3-0.5h0.4c0,0.3-0.2,0.6-0.4,0.8C165.2,12.4,164.9,12.5,164.5,12.5L164.5,12.5z"/>
</g>
<g>
	<polygon fill="#706F6F" points="172.2,9.6 171.1,9.6 171.1,12.4 170.7,12.4 170.7,9.6 169.7,9.6 169.7,9.3 172.2,9.3 172.2,9.6 	
		"/>
</g>
<g>
	<polygon fill="#706F6F" points="178.6,12.4 178.2,12.4 178.2,9.9 176.6,12.4 176.1,12.4 176.1,9.3 176.5,9.3 176.5,11.8 178.2,9.3 
		178.6,9.3 178.6,12.4 	"/>
</g>
<g>
	<path fill="#706F6F" d="M185.2,11.5c0,0.3-0.1,0.5-0.3,0.7c-0.2,0.2-0.5,0.2-0.9,0.2h-1.2V9.3h1.1c0.3,0,0.6,0.1,0.8,0.2
		c0.2,0.1,0.3,0.3,0.3,0.6c0,0.3-0.2,0.5-0.5,0.7c0.2,0.1,0.4,0.1,0.5,0.3C185.1,11.2,185.2,11.3,185.2,11.5L185.2,11.5z
		 M183.3,10.6h0.7c0.2,0,0.4,0,0.5-0.1c0.1-0.1,0.2-0.2,0.2-0.4c0-0.2-0.1-0.3-0.2-0.3c-0.1-0.1-0.3-0.1-0.6-0.1h-0.7V10.6
		L183.3,10.6z M183.3,12h0.8c0.5,0,0.8-0.2,0.8-0.5c0-0.2-0.1-0.3-0.2-0.4c-0.1-0.1-0.3-0.1-0.6-0.1h-0.7V12L183.3,12z"/>
</g>
<g>
	<path fill="#706F6F" d="M190.9,11.1l-0.6-1.5l-0.5,1.5H190.9L190.9,11.1z M191.9,12.4h-0.5l-0.4-1h-1.3l-0.3,1h-0.4l1.2-3.2h0.5
		L191.9,12.4L191.9,12.4z"/>
</g>
<g>
	<path fill="#706F6F" d="M198.2,12.4h-0.4V9.6h-1.4v2c0,0.6-0.2,0.9-0.6,0.9c-0.1,0-0.2,0-0.3,0v-0.4c0.1,0,0.1,0,0.2,0
		c0.1,0,0.2,0,0.2-0.1c0-0.1,0.1-0.2,0.1-0.4V9.3h2.2V12.4L198.2,12.4z"/>
</g>
<g>
	<path fill="#706F6F" d="M202.8,10.6h0.7c0.8,0,1.2,0.3,1.2,0.9c0,0.3-0.1,0.5-0.3,0.7c-0.2,0.2-0.5,0.2-0.9,0.2h-1.2V9.3h0.4V10.6
		L202.8,10.6z M202.8,12h0.8c0.5,0,0.8-0.2,0.8-0.5c0-0.2-0.1-0.3-0.2-0.4c-0.1-0.1-0.3-0.1-0.6-0.1h-0.7V12L202.8,12z"/>
</g>
<g>
	<polygon fill="#706F6F" points="212.5,12.4 212.1,12.4 212.1,9.9 210.4,12.4 210,12.4 210,9.3 210.4,9.3 210.4,11.8 212,9.3 
		212.5,9.3 212.5,12.4 	"/>
</g>
<g>
	<path fill="#706F6F" d="M218,12.5c-0.4,0-0.8-0.1-1.1-0.4c-0.3-0.3-0.4-0.7-0.4-1.2c0-0.5,0.1-0.9,0.4-1.2c0.3-0.3,0.6-0.4,1.1-0.4
		c0.3,0,0.6,0.1,0.9,0.3c0.2,0.2,0.4,0.4,0.4,0.7h-0.4c0-0.2-0.1-0.4-0.3-0.5c-0.2-0.1-0.4-0.2-0.6-0.2c-0.3,0-0.6,0.1-0.8,0.3
		c-0.2,0.2-0.3,0.5-0.3,0.9c0,0.4,0.1,0.7,0.3,0.9c0.2,0.2,0.4,0.3,0.8,0.3c0.2,0,0.4-0.1,0.6-0.2c0.2-0.1,0.2-0.3,0.3-0.5h0.4
		c0,0.3-0.2,0.6-0.4,0.8C218.7,12.4,218.4,12.5,218,12.5L218,12.5z"/>
</g>
<g>
	<polygon fill="#706F6F" points="226,12.4 225.4,12.4 224.3,10.8 223.8,11.3 223.8,12.4 223.4,12.4 223.4,9.3 223.8,9.3 223.8,10.8 
		225.3,9.3 225.9,9.3 224.6,10.6 226,12.4 	"/>
</g>
<g>
	<path fill="#706F6F" d="M232.3,9.3l-1.2,2.3c-0.2,0.4-0.4,0.6-0.5,0.7c-0.1,0.1-0.3,0.2-0.4,0.2c-0.1,0-0.3,0-0.4-0.1V12
		c0.1,0,0.2,0.1,0.4,0.1c0.2,0,0.4-0.2,0.5-0.5l-0.6-1.2l-0.6-1.2h0.5l0.5,0.9l0.5,0.9l0.9-1.9H232.3L232.3,9.3z"/>
</g>
<g>
	<path fill="#706F6F" d="M237.5,12.5c-0.4,0-0.8-0.1-1.1-0.4c-0.3-0.3-0.4-0.7-0.4-1.2c0-0.5,0.1-0.9,0.4-1.2
		c0.3-0.3,0.6-0.4,1.1-0.4c0.3,0,0.6,0.1,0.9,0.3c0.2,0.2,0.4,0.4,0.4,0.7h-0.4c0-0.2-0.1-0.4-0.3-0.5c-0.2-0.1-0.4-0.2-0.6-0.2
		c-0.3,0-0.6,0.1-0.8,0.3c-0.2,0.2-0.3,0.5-0.3,0.9c0,0.4,0.1,0.7,0.3,0.9c0.2,0.2,0.4,0.3,0.8,0.3c0.2,0,0.4-0.1,0.6-0.2
		c0.2-0.1,0.2-0.3,0.3-0.5h0.4c0,0.3-0.2,0.6-0.4,0.8C238.2,12.4,237.9,12.5,237.5,12.5L237.5,12.5z"/>
</g>
<g>
	<path fill="#706F6F" d="M244.2,12.5c-0.4,0-0.8-0.1-1.1-0.4c-0.3-0.3-0.4-0.7-0.4-1.2c0-0.5,0.1-0.9,0.4-1.2
		c0.3-0.3,0.6-0.4,1.1-0.4c0.3,0,0.6,0.1,0.9,0.3c0.2,0.2,0.4,0.4,0.4,0.7h-0.4c0-0.2-0.1-0.4-0.3-0.5c-0.2-0.1-0.4-0.2-0.6-0.2
		c-0.3,0-0.6,0.1-0.8,0.3c-0.2,0.2-0.3,0.5-0.3,0.9c0,0.4,0.1,0.7,0.3,0.9c0.2,0.2,0.4,0.3,0.8,0.3c0.2,0,0.4-0.1,0.6-0.2
		c0.2-0.1,0.2-0.3,0.3-0.5h0.4c0,0.3-0.2,0.6-0.4,0.8C244.9,12.4,244.6,12.5,244.2,12.5L244.2,12.5z"/>
</g>
<g>
	<polygon fill="#706F6F" points="251.8,9.6 250.8,9.6 250.8,12.4 250.4,12.4 250.4,9.6 249.3,9.6 249.3,9.3 251.8,9.3 251.8,9.6 	
		"/>
</g>
<g>
	<path fill="#706F6F" d="M258.2,11.5c0,0.3-0.1,0.5-0.3,0.7c-0.2,0.2-0.5,0.2-0.9,0.2h-1.2V9.3h1.1c0.3,0,0.6,0.1,0.8,0.2
		c0.2,0.1,0.3,0.3,0.3,0.6c0,0.3-0.2,0.5-0.5,0.7c0.2,0.1,0.4,0.1,0.5,0.3C258.1,11.2,258.2,11.3,258.2,11.5L258.2,11.5z
		 M256.2,10.6h0.7c0.2,0,0.4,0,0.5-0.1c0.1-0.1,0.2-0.2,0.2-0.4c0-0.2-0.1-0.3-0.2-0.3c-0.1-0.1-0.3-0.1-0.6-0.1h-0.7V10.6
		L256.2,10.6z M256.2,12h0.8c0.5,0,0.8-0.2,0.8-0.5c0-0.2-0.1-0.3-0.2-0.4c-0.1-0.1-0.3-0.1-0.6-0.1h-0.7V12L256.2,12z"/>
</g>
<g>
	<rect x="58.1" y="27.7" fill="#BE1D20" width="200.1" height="0.2"/>
</g>
<g>
	<g>
		<path fill="#EF7D00" d="M21.3,42.2C9.6,42.2,0,32.7,0,21.1C0,9.5,9.6,0,21.3,0s21.3,9.5,21.3,21.1C42.6,32.7,33.1,42.2,21.3,42.2z
			 M21.3,0.5C9.8,0.5,0.5,9.7,0.5,21.1c0,11.4,9.4,20.6,20.9,20.6c11.5,0,20.9-9.3,20.9-20.6C42.2,9.7,32.8,0.5,21.3,0.5z"/>
	</g>
	<g>
		<polygon fill-rule="evenodd" clip-rule="evenodd" fill="#2F2A84" points="28.1,36.3 28,36.8 27.8,37.2 27.5,37.7 27.3,38.1 
			27,38.5 26.6,38.8 26.3,39.2 25.9,39.5 25.5,39.8 25,40.1 24.6,40.3 24.1,40.5 23.6,40.7 23.1,40.9 22.6,41 22.1,41.1 21.6,41.1 
			21.1,41.1 20.6,41.1 20,41 19.5,40.9 19,40.7 18.5,40.5 18,40.3 17.5,40 17,39.7 16.6,39.3 16.1,38.9 15.7,38.4 15.3,37.9 
			14.9,37.3 14.6,36.7 14.3,36 14,35.3 13.8,34.6 13.6,33.9 13.5,33.2 13.4,32.5 13.4,31.8 13.4,31 13.5,30.3 13.5,29.6 13.6,28.8 
			13.8,28.1 14,27.4 14.2,26.7 14.4,26 14.7,25.4 15,24.7 15.3,24.1 15.6,23.5 16,22.9 16.4,22.4 16.8,21.9 17.2,21.4 17.6,21 
			18,20.6 18.5,20.3 18.9,20 19.4,19.7 19.9,19.5 20.4,19.4 20.8,19.3 21.3,19.3 20.7,19.4 20.2,19.6 19.8,19.9 19.5,20.3 
			19.3,20.7 19.2,21.2 19.2,21.8 19.3,22.4 19.5,23 19.8,23.7 20.3,24.3 20.8,25 21.4,25.6 22.2,26.2 23,26.8 23.9,27.4 24.3,27.6 
			24.7,27.8 25.2,28.1 25.6,28.4 26.1,28.8 26.5,29.2 26.9,29.7 27.3,30.2 27.7,30.7 28,31.4 28.2,32 28.4,32.7 28.5,33.5 
			28.5,34.4 28.4,35.3 28.1,36.3 		"/>
	</g>
	<g>
		<polygon fill-rule="evenodd" clip-rule="evenodd" fill="#E40F1B" points="6,27.8 5.5,27.7 5,27.5 4.6,27.2 4.2,27 3.8,26.7 
			3.4,26.4 3,26 2.7,25.6 2.4,25.2 2.1,24.8 1.9,24.3 1.7,23.9 1.5,23.4 1.4,22.9 1.2,22.4 1.2,21.9 1.1,21.4 1.1,20.9 1.1,20.3 
			1.2,19.8 1.3,19.3 1.5,18.8 1.7,18.3 1.9,17.8 2.2,17.3 2.5,16.9 2.9,16.4 3.3,16 3.8,15.5 4.4,15.1 4.9,14.8 5.6,14.4 6.2,14.1 
			6.9,13.9 7.6,13.7 8.4,13.5 9.1,13.4 9.8,13.3 10.6,13.3 11.3,13.3 12,13.3 12.8,13.4 13.5,13.5 14.2,13.6 15,13.8 15.7,14 
			16.3,14.3 17,14.5 17.7,14.8 18.3,15.1 18.9,15.5 19.5,15.8 20,16.2 20.5,16.6 21,17 21.4,17.4 21.8,17.8 22.1,18.3 22.4,18.7 
			22.7,19.2 22.9,19.7 23,20.1 23.1,20.6 23.1,21.1 23,20.5 22.8,20 22.5,19.6 22.2,19.3 21.7,19.1 21.2,19 20.6,19 20,19.1 
			19.4,19.3 18.7,19.6 18.1,20 17.4,20.6 16.8,21.2 16.1,21.9 15.5,22.8 15,23.7 14.8,24.1 14.5,24.5 14.2,24.9 13.9,25.4 
			13.5,25.8 13.1,26.2 12.7,26.7 12.1,27.1 11.6,27.4 10.9,27.7 10.3,28 9.5,28.1 8.7,28.2 7.9,28.2 7,28.1 6,27.8 		"/>
	</g>
	<g>
		<polygon fill-rule="evenodd" clip-rule="evenodd" fill="#0F753C" points="36.7,14.3 37.2,14.5 37.6,14.7 38.1,14.9 38.5,15.2 
			38.9,15.5 39.3,15.8 39.6,16.2 39.9,16.6 40.2,17 40.5,17.4 40.8,17.9 41,18.3 41.1,18.8 41.3,19.3 41.4,19.8 41.5,20.3 
			41.5,20.8 41.5,21.3 41.5,21.8 41.4,22.4 41.3,22.9 41.2,23.4 41,23.9 40.7,24.4 40.5,24.9 40.1,25.3 39.7,25.8 39.3,26.2 
			38.8,26.7 38.3,27.1 37.7,27.4 37.1,27.8 36.4,28.1 35.7,28.3 35,28.5 34.3,28.7 33.6,28.8 32.8,28.9 32.1,28.9 31.4,28.9 
			30.6,28.9 29.9,28.8 29.1,28.7 28.4,28.6 27.7,28.4 27,28.2 26.3,27.9 25.6,27.7 25,27.4 24.4,27.1 23.8,26.7 23.2,26.4 22.7,26 
			22.1,25.6 21.7,25.2 21.2,24.8 20.9,24.4 20.5,23.9 20.2,23.5 20,23 19.8,22.5 19.6,22.1 19.5,21.6 19.5,21.1 19.6,21.7 
			19.8,22.2 20.1,22.6 20.5,22.9 20.9,23.1 21.5,23.2 22,23.2 22.6,23.1 23.3,22.9 23.9,22.6 24.6,22.2 25.2,21.6 25.9,21 
			26.5,20.3 27.1,19.4 27.7,18.5 27.9,18.1 28.1,17.7 28.4,17.3 28.7,16.8 29.1,16.4 29.5,16 30,15.5 30.5,15.1 31.1,14.8 
			31.7,14.5 32.4,14.2 33.1,14.1 33.9,14 34.8,14 35.7,14.1 36.7,14.3 		"/>
	</g>
	<g>
		<polygon fill-rule="evenodd" clip-rule="evenodd" fill="#FBC800" points="14.5,5.9 14.7,5.4 14.9,5 15.1,4.5 15.4,4.1 15.7,3.7 
			16,3.3 16.4,3 16.8,2.7 17.2,2.4 17.6,2.1 18.1,1.9 18.5,1.7 19,1.5 19.5,1.3 20,1.2 20.5,1.1 21,1.1 21.6,1.1 22.1,1.1 22.6,1.2 
			23.1,1.3 23.7,1.4 24.2,1.6 24.6,1.9 25.1,2.2 25.6,2.5 26.1,2.9 26.5,3.3 26.9,3.8 27.3,4.3 27.7,4.9 28.1,5.5 28.4,6.2 
			28.6,6.9 28.8,7.6 29,8.3 29.1,9 29.2,9.7 29.3,10.4 29.2,11.2 29.2,11.9 29.1,12.6 29,13.4 28.9,14.1 28.7,14.8 28.5,15.5 
			28.2,16.2 28,16.8 27.7,17.5 27.3,18.1 27,18.7 26.7,19.3 26.3,19.8 25.9,20.3 25.5,20.8 25.1,21.2 24.6,21.6 24.2,21.9 
			23.7,22.2 23.2,22.4 22.8,22.6 22.3,22.8 21.8,22.9 21.3,22.9 21.9,22.8 22.5,22.6 22.9,22.3 23.2,21.9 23.4,21.5 23.5,21 
			23.5,20.4 23.4,19.8 23.1,19.2 22.8,18.5 22.4,17.9 21.9,17.2 21.2,16.6 20.5,16 19.7,15.4 18.7,14.8 18.3,14.6 17.9,14.4 
			17.5,14.1 17,13.8 16.6,13.4 16.1,13 15.7,12.5 15.3,12 15,11.4 14.6,10.8 14.4,10.2 14.2,9.4 14.2,8.6 14.2,7.8 14.3,6.9 
			14.5,5.9 		"/>
	</g>
</g>
</svg>
