<?xml version="1.0" encoding="utf-8"?>
<!-- Generator: Adobe Illustrator 18.1.1, SVG Export Plug-In . SVG Version: 6.00 Build 0)  -->
<svg version="1.1" id="Layer_1" xmlns="http://www.w3.org/2000/svg" xmlns:xlink="http://www.w3.org/1999/xlink" x="0px" y="0px"
	 viewBox="0 0 258.7 42.2" enable-background="new 0 0 258.7 42.2" xml:space="preserve">
<g>
	<path fill="#DA231C" d="M11.6,26H7.8v-0.4h0.8c0.2,0,0.3-0.1,0.4-0.2c0.1-0.1,0.1-0.3,0.1-0.5v-7.2L5.6,26H5.3l-3.6-8.5V22
		c0,1.2,0,2,0.1,2.5c0.1,0.8,0.4,1.2,0.8,1.2H3V26H0.1v-0.4h0.3c0.4,0,0.6-0.4,0.8-1.2c0.1-0.5,0.1-1.4,0.1-2.5v-4.3
		c0-0.3-0.1-0.5-0.2-0.6C1,17,0.9,17,0.7,17H0.1v-0.4h2.7L6,24.1l3.2-7.6h2.4V17h-0.8c-0.2,0-0.3,0.1-0.4,0.2
		c-0.1,0.1-0.1,0.3-0.1,0.4V25c0,0.2,0,0.3,0.1,0.5c0.1,0.1,0.2,0.2,0.4,0.2h0.8V26L11.6,26z"/>
</g>
<g>
	<path fill="#DA231C" d="M103.3,19.5c0,0.9-0.4,1.6-1.1,2.1c-0.7,0.5-1.6,0.7-2.8,0.7c-0.4,0-0.8,0-1.2-0.1V25c0,0.2,0,0.3,0.1,0.5
		c0.1,0.1,0.2,0.2,0.4,0.2h1V26h-4.1v-0.4h0.8c0.2,0,0.3-0.1,0.4-0.2C97,25.3,97,25.2,97,25v-7.4c0-0.2,0-0.3-0.1-0.4
		C96.8,17,96.7,17,96.5,17h-0.8v-0.4h3.4c1.6,0,2.7,0.3,3.4,0.9C103.1,18,103.3,18.6,103.3,19.5L103.3,19.5z M102,19.5
		c0-0.7-0.2-1.3-0.5-1.7c-0.4-0.5-1.1-0.8-1.9-0.8c-0.3,0-0.5,0-0.7,0.1c-0.2,0-0.4,0.1-0.6,0.2v4.5c0.1,0,0.2,0,0.4,0.1
		c0.2,0,0.4,0,0.5,0c0.7,0,1.3-0.2,1.8-0.5C101.7,21,102,20.3,102,19.5L102,19.5z"/>
</g>
<g>
	<path fill="#DA231C" d="M99.9,26.1h-4.3v-0.6h0.9c0.2,0,0.3,0,0.3-0.1c0.1-0.1,0.1-0.2,0.1-0.4v-7.4c0-0.2,0-0.3-0.1-0.4
		c-0.1-0.1-0.2-0.1-0.3-0.1h-0.9v-0.6h3.5c1.6,0,2.8,0.3,3.5,1c0.5,0.5,0.8,1.2,0.8,2c0,0.9-0.4,1.7-1.1,2.2
		c-0.7,0.5-1.7,0.7-2.8,0.7c-0.3,0-0.7,0-1.1-0.1V25c0,0.2,0,0.3,0.1,0.4c0.1,0.1,0.2,0.1,0.3,0.1h1.1V26.1z M95.9,25.9h3.8v-0.2
		h-0.9c-0.2,0-0.4-0.1-0.5-0.2c-0.1-0.1-0.1-0.3-0.1-0.5v-2.9l0.1,0c0.4,0.1,0.8,0.1,1.2,0.1c1.1,0,2-0.2,2.7-0.7c0.7-0.5,1-1.2,1-2
		c0-0.8-0.2-1.4-0.7-1.9c-0.7-0.6-1.8-0.9-3.3-0.9h-3.3v0.2h0.7c0.2,0,0.4,0.1,0.5,0.2c0.1,0.1,0.1,0.3,0.1,0.5V25
		c0,0.2,0,0.4-0.1,0.5c-0.1,0.1-0.3,0.2-0.5,0.2h-0.7V25.9z M99.2,22c-0.2,0-0.3,0-0.6,0c-0.2,0-0.4-0.1-0.4-0.1l-0.1,0v-4.7l0.1,0
		c0.2-0.1,0.4-0.2,0.6-0.2c0.2-0.1,0.5-0.1,0.7-0.1c0.9,0,1.5,0.3,2,0.8c0.4,0.5,0.6,1.1,0.6,1.8c0,0.9-0.3,1.6-1,2
		C100.6,21.8,100,22,99.2,22z M98.4,21.7c0.1,0,0.2,0,0.3,0.1c0.2,0,0.4,0,0.5,0c0.7,0,1.3-0.2,1.8-0.5c0.6-0.4,0.9-1,0.9-1.8
		c0-0.7-0.2-1.2-0.5-1.6c-0.4-0.5-1-0.7-1.8-0.7c-0.3,0-0.5,0-0.7,0.1c-0.2,0-0.3,0.1-0.5,0.2V21.7z"/>
</g>
<g>
	<path fill="#DA231C" d="M31,26h-3.4v-0.4h0.5c0.2,0,0.3,0,0.4-0.1c0.1,0,0.1-0.2,0.1-0.3c0-0.1,0-0.3-0.1-0.5
		c-0.1-0.2-0.1-0.4-0.2-0.5l-0.7-1.9h-3l-0.3,0.8c-0.1,0.3-0.2,0.6-0.3,0.9c-0.1,0.4-0.2,0.7-0.2,0.9c0,0.2,0,0.3,0.1,0.4
		c0.1,0.1,0.2,0.2,0.3,0.2h0.5V26h-2.7v-0.4h0.3c0.2,0,0.4-0.2,0.7-0.5c0.4-0.5,0.8-1.4,1.3-2.8l2.2-5.9h0.4l3,8.4
		c0.1,0.2,0.2,0.4,0.2,0.5c0.2,0.2,0.4,0.3,0.7,0.3H31V26L31,26z M27.5,21.9l-1.4-3.9l-1.4,3.9H27.5L27.5,21.9z"/>
</g>
<g>
	<path fill="#DA231C" d="M31.1,26.1h-3.7v-0.6h0.6c0.2,0,0.3,0,0.4-0.1c0.1,0,0.1-0.1,0.1-0.2c0-0.1,0-0.3-0.1-0.5
		c-0.1-0.2-0.1-0.4-0.2-0.5l-0.7-1.8h-2.9L24,24.1c-0.1,0.4-0.2,0.7-0.2,0.9c0,0.2,0,0.3,0.1,0.4c0.1,0.1,0.1,0.1,0.2,0.1h0.6v0.6
		h-2.9v-0.6h0.4c0.2,0,0.4-0.2,0.6-0.5c0.4-0.5,0.8-1.4,1.2-2.7l2.2-6h0.6l0,0.1l3,8.4c0.1,0.2,0.2,0.4,0.2,0.5
		c0.1,0.2,0.3,0.3,0.6,0.3h0.4V26.1z M27.6,25.9h3.2v-0.2h-0.2c-0.3,0-0.6-0.1-0.8-0.4c-0.1-0.1-0.2-0.3-0.3-0.5l-3-8.3h-0.3
		l-2.2,5.8c-0.5,1.3-0.9,2.3-1.3,2.8c-0.3,0.4-0.5,0.6-0.8,0.6H22v0.2h2.5v-0.2h-0.4c-0.1,0-0.3,0-0.4-0.2c-0.1-0.1-0.1-0.3-0.1-0.5
		c0-0.2,0.1-0.5,0.2-0.9l0.7-1.8h3.2l0.7,1.9c0,0.1,0.1,0.3,0.2,0.5c0.1,0.2,0.1,0.4,0.1,0.6c0,0.2-0.1,0.4-0.2,0.4
		c-0.1,0.1-0.3,0.1-0.5,0.1h-0.4V25.9z M27.7,22.1h-3.1l1.6-4.3L27.7,22.1z M24.9,21.8h2.5l-1.2-3.4L24.9,21.8z"/>
</g>
<g>
	<path fill="#DA231C" d="M48.9,23.3c-0.4,0.9-1,1.6-1.7,2.1C46.6,25.8,45.8,26,45,26c-1.3,0-2.4-0.4-3.2-1.2
		c-0.9-0.9-1.4-2.1-1.4-3.6c0-1.4,0.4-2.5,1.2-3.5c0.9-1,2-1.5,3.5-1.5c1.1,0,2,0.2,2.7,0.7l0-0.5h0.4l0.2,2.6H48l0-0.3
		c0-0.5-0.3-1-0.8-1.4c-0.6-0.4-1.3-0.7-2.1-0.7c-1.1,0-1.9,0.5-2.5,1.5c-0.5,0.9-0.7,1.9-0.7,3.1c0,1.4,0.4,2.5,1.1,3.2
		c0.7,0.7,1.5,1,2.5,1c0.6,0,1.2-0.2,1.7-0.6c0.5-0.4,1-1,1.4-1.8L48.9,23.3L48.9,23.3z"/>
</g>
<g>
	<path fill="#DA231C" d="M45,26.1c-1.3,0-2.4-0.4-3.3-1.3c-1-0.9-1.4-2.1-1.4-3.6c0-1.4,0.4-2.6,1.2-3.5c0.9-1,2.1-1.6,3.6-1.6
		c1,0,1.9,0.2,2.6,0.6l0-0.4h0.6l0.2,2.8h-0.6l0-0.4c0-0.5-0.3-0.9-0.8-1.3c-0.6-0.4-1.2-0.6-2-0.6c-1.1,0-1.9,0.5-2.4,1.4
		c-0.5,0.8-0.7,1.9-0.7,3.1c0,1.4,0.4,2.4,1.1,3.2c0.6,0.7,1.5,1,2.4,1c0.6,0,1.2-0.2,1.7-0.6c0.5-0.4,0.9-1,1.3-1.7l0-0.1l0.5,0.3
		l0,0.1c-0.4,1-1,1.7-1.7,2.1C46.6,25.9,45.9,26.1,45,26.1z M45.1,16.3c-1.4,0-2.6,0.5-3.4,1.5c-0.8,0.9-1.2,2.1-1.2,3.4
		c0,1.4,0.5,2.6,1.4,3.5c0.8,0.8,1.9,1.2,3.2,1.2c0.8,0,1.5-0.2,2.1-0.6c0.7-0.4,1.2-1.1,1.6-2l-0.1-0.1c-0.4,0.8-0.8,1.3-1.3,1.7
		c-0.5,0.4-1.1,0.6-1.8,0.6c-1,0-1.9-0.4-2.6-1.1c-0.8-0.8-1.1-1.9-1.1-3.3c0-1.3,0.3-2.3,0.8-3.2c0.6-1,1.5-1.5,2.6-1.5
		c0.8,0,1.5,0.2,2.1,0.7c0.6,0.4,0.9,0.9,0.9,1.5l0,0.2h0.2l-0.2-2.3h-0.2l0,0.6L47.7,17C47.1,16.5,46.2,16.3,45.1,16.3z"/>
</g>
<g>
	<path fill="#DA231C" d="M66.5,18.7h-0.4v-0.3c0-0.4-0.3-0.7-0.8-1c-0.5-0.3-1.1-0.4-1.7-0.4c-0.2,0-0.3,0-0.4,0
		C63,17,63,17.1,63,17.2V25c0,0.2,0,0.3,0.1,0.5c0.1,0.1,0.2,0.2,0.4,0.2h0.8V26h-3.8v-0.4h0.8c0.2,0,0.3-0.1,0.4-0.2
		c0.1-0.1,0.1-0.3,0.1-0.5v-7.8c0-0.1-0.1-0.2-0.2-0.2c-0.1,0-0.3,0-0.4,0c-0.6,0-1.2,0.1-1.7,0.4c-0.5,0.3-0.8,0.6-0.8,1v0.3h-0.4
		v-2.1h8.3V18.7L66.5,18.7z"/>
</g>
<g>
	<path fill="#DA231C" d="M64.3,26.1h-4v-0.6h0.9c0.2,0,0.3,0,0.3-0.1c0.1-0.1,0.1-0.2,0.1-0.4v-7.8c0,0,0-0.1-0.1-0.1
		c-0.1,0-0.3,0-0.4,0c-0.6,0-1.1,0.1-1.6,0.4c-0.5,0.3-0.7,0.6-0.7,0.9v0.4h-0.6v-2.3h8.5v2.3H66v-0.4c0-0.3-0.3-0.6-0.7-0.9
		c-0.5-0.3-1.1-0.4-1.6-0.4c-0.2,0-0.3,0-0.4,0c-0.1,0-0.1,0-0.1,0.1V25c0,0.2,0,0.3,0.1,0.4c0.1,0.1,0.2,0.1,0.3,0.1h0.9V26.1z
		 M60.6,25.9h3.6v-0.2h-0.7c-0.2,0-0.4-0.1-0.5-0.2c-0.1-0.1-0.1-0.3-0.1-0.5v-7.8c0-0.2,0.1-0.3,0.3-0.3c0.1,0,0.3,0,0.5,0
		c0.6,0,1.2,0.2,1.7,0.5c0.6,0.3,0.9,0.7,0.9,1.1v0.2h0.2v-1.9h-8.1v1.9h0.2v-0.2c0-0.4,0.3-0.8,0.9-1.1c0.5-0.3,1.1-0.5,1.7-0.5
		c0.2,0,0.3,0,0.4,0.1c0.2,0.1,0.3,0.2,0.3,0.3V25c0,0.2,0,0.4-0.1,0.5c-0.1,0.1-0.3,0.2-0.5,0.2h-0.7V25.9z"/>
</g>
<g>
	<path fill="#DA231C" d="M85.1,23.9L84.6,26h-7.2v-0.4h0.8c0.2,0,0.3-0.1,0.4-0.2c0.1-0.1,0.1-0.3,0.1-0.5v-7.4c0-0.2,0-0.3-0.1-0.4
		C78.5,17,78.4,17,78.2,17h-0.8v-0.4h7.1l0.2,1.9h-0.4l-0.1-0.4c0-0.3-0.3-0.5-0.7-0.7C83,17.1,82.1,17,80.9,17h-0.5
		c-0.2,0-0.3,0.1-0.4,0.2c-0.1,0.1-0.1,0.3-0.1,0.4v3.3h0.6c1.1,0,1.7-0.1,2.1-0.3c0.2-0.1,0.3-0.3,0.3-0.5v-0.3h0.4v2.6h-0.4V22
		c0-0.2-0.1-0.4-0.3-0.5c-0.3-0.2-1-0.3-2.1-0.3h-0.6V25c0,0.2,0,0.3,0.1,0.5c0.1,0.1,0.2,0.2,0.4,0.2h0.2c1.3,0,2.3-0.1,3-0.4
		c0.6-0.2,0.9-0.6,1-1l0.1-0.3H85.1L85.1,23.9z"/>
</g>
<g>
	<path fill="#DA231C" d="M84.7,26.1h-7.4v-0.6h0.9c0.2,0,0.3,0,0.3-0.1c0.1-0.1,0.1-0.2,0.1-0.4v-7.4c0-0.2,0-0.3-0.1-0.4
		c-0.1-0.1-0.2-0.1-0.3-0.1h-0.9v-0.6h7.3l0.2,2.1h-0.6l-0.1-0.5c0-0.3-0.2-0.5-0.6-0.6c-0.6-0.3-1.4-0.4-2.6-0.4h-0.5
		c-0.1,0-0.2,0-0.3,0.1c-0.1,0.1-0.1,0.2-0.1,0.4v3.2h0.5c1,0,1.7-0.1,2-0.2c0.2-0.1,0.2-0.2,0.2-0.4v-0.4h0.6v2.8h-0.6V22
		c0-0.2-0.1-0.3-0.2-0.4c-0.3-0.2-1-0.2-2-0.2H80V25c0,0.2,0,0.3,0.1,0.4c0.1,0.1,0.2,0.1,0.3,0.1h0.2c1.3,0,2.3-0.1,2.9-0.4
		c0.6-0.2,0.9-0.5,0.9-0.9l0.1-0.4h0.7L84.7,26.1z M77.5,25.9h7l0.4-1.9h-0.2l0,0.2c-0.1,0.4-0.4,0.8-1.1,1c-0.7,0.3-1.7,0.4-3,0.4
		h-0.2c-0.2,0-0.4-0.1-0.5-0.2c-0.1-0.1-0.1-0.3-0.1-0.5v-3.9h0.7c1.1,0,1.8,0.1,2.1,0.3c0.2,0.1,0.3,0.3,0.3,0.6v0.2h0.2v-2.4H83
		v0.2c0,0.3-0.1,0.5-0.3,0.6c-0.4,0.2-1,0.3-2.1,0.3h-0.7v-3.4c0-0.2,0-0.4,0.1-0.5c0.1-0.1,0.3-0.2,0.5-0.2h0.5
		c1.2,0,2.1,0.1,2.7,0.4c0.4,0.2,0.7,0.5,0.7,0.8l0,0.3h0.2l-0.1-1.7h-6.9v0.2h0.7c0.2,0,0.4,0.1,0.5,0.2c0.1,0.1,0.1,0.3,0.1,0.5
		V25c0,0.2,0,0.4-0.1,0.5c-0.1,0.1-0.3,0.2-0.5,0.2h-0.7V25.9z"/>
</g>
<g>
	<path fill="#C6C6C6" d="M128.1,24.8c-0.1,0.8-0.4,1.2-1.1,1.2c-0.7,0-1.3-0.5-1.9-1.5c-0.5-0.9-0.9-1.8-1.4-2.7
		c-0.2-0.3-0.4-0.5-0.6-0.6c-0.2-0.1-0.5-0.2-0.8-0.2h-0.5v3.9c0,0.2,0,0.3,0.1,0.4c0.1,0.1,0.2,0.2,0.4,0.2h0.8v0.4h-3.8v-0.4h0.8
		c0.2,0,0.3-0.1,0.4-0.2c0.1-0.1,0.1-0.3,0.1-0.4v-7.4c0-0.2,0-0.3-0.1-0.5c-0.1-0.1-0.2-0.2-0.4-0.2h-0.8v-0.4h3.8v0.4h-0.8
		c-0.2,0-0.3,0.1-0.4,0.2c-0.1,0.1-0.1,0.3-0.1,0.5v3.1h0.5c0.4,0,0.7-0.1,1-0.3c0.3-0.3,0.7-0.9,1.2-1.8c0.4-0.9,0.8-1.5,1.1-1.7
		c0.3-0.3,0.7-0.4,1.1-0.4c0.3,0,0.5,0.1,0.7,0.2c0.2,0.2,0.3,0.4,0.3,0.6c0,0.2-0.1,0.4-0.2,0.5c-0.1,0.1-0.3,0.2-0.5,0.2
		c-0.2,0-0.3-0.1-0.5-0.2c-0.1-0.1-0.2-0.3-0.2-0.5v-0.2c0-0.1,0-0.2-0.1-0.2c-0.2,0-0.4,0.3-0.7,0.9c-0.4,0.9-0.6,1.5-0.8,1.8
		c-0.4,0.7-0.9,1.1-1.6,1.3v0.1c0.6,0.1,1.1,0.3,1.6,0.7c0.4,0.3,0.7,0.7,1,1.3c0.2,0.3,0.4,0.8,0.7,1.5c0.1,0.3,0.2,0.6,0.4,0.8
		c0.1,0.2,0.3,0.4,0.5,0.4c0.1,0,0.2-0.1,0.3-0.2c0.1-0.1,0.1-0.3,0.1-0.4H128.1L128.1,24.8z"/>
</g>
<g>
	<path fill="#C6C6C6" d="M127,26.1c-0.7,0-1.4-0.5-2-1.6c-0.5-0.9-0.9-1.8-1.4-2.7c-0.2-0.3-0.3-0.5-0.5-0.6
		c-0.2-0.1-0.4-0.2-0.7-0.2h-0.4v3.8c0,0.2,0,0.3,0.1,0.4c0.1,0.1,0.2,0.1,0.3,0.1h0.9v0.6h-4v-0.6h0.9c0.2,0,0.3,0,0.3-0.1
		c0.1-0.1,0.1-0.2,0.1-0.4v-7.4c0-0.2,0-0.3-0.1-0.4c-0.1-0.1-0.2-0.1-0.3-0.1h-0.9v-0.6h4v0.6h-0.9c-0.2,0-0.3,0-0.3,0.1
		c-0.1,0.1-0.1,0.2-0.1,0.4v3h0.4c0.4,0,0.7-0.1,0.9-0.3c0.3-0.3,0.7-0.9,1.2-1.8c0.5-0.9,0.8-1.5,1.2-1.8c0.3-0.3,0.7-0.4,1.1-0.4
		c0.3,0,0.6,0.1,0.8,0.3c0.2,0.2,0.3,0.4,0.3,0.7c0,0.2-0.1,0.4-0.2,0.6c-0.2,0.1-0.3,0.2-0.6,0.2c-0.2,0-0.4-0.1-0.5-0.2
		c-0.1-0.1-0.2-0.3-0.2-0.5v-0.2c0-0.1,0-0.1,0-0.1c0,0,0,0,0,0c-0.1,0-0.3,0.1-0.6,0.8c-0.4,1-0.6,1.5-0.8,1.8
		c-0.4,0.6-0.8,1-1.3,1.2c0.5,0.1,1,0.3,1.4,0.7c0.4,0.3,0.7,0.8,1.1,1.3c0.2,0.3,0.4,0.8,0.7,1.5c0.1,0.3,0.2,0.5,0.4,0.8
		c0.1,0.2,0.2,0.3,0.4,0.3c0.1,0,0.1,0,0.2-0.1c0.1-0.1,0.1-0.2,0.1-0.4v-0.1h0.6l0,0.1C128.2,25.9,127.5,26.1,127,26.1z
		 M121.7,20.8h0.6c0.3,0,0.6,0.1,0.9,0.2c0.2,0.2,0.4,0.4,0.6,0.7c0.5,0.9,0.9,1.8,1.4,2.7c0.6,1,1.2,1.5,1.8,1.5
		c0.6,0,0.9-0.3,1-0.9h-0.1c0,0.1,0,0.2-0.1,0.4c-0.1,0.2-0.3,0.2-0.4,0.2c-0.2,0-0.4-0.1-0.6-0.4c-0.1-0.3-0.2-0.6-0.4-0.8
		c-0.3-0.6-0.5-1.1-0.7-1.5c-0.3-0.5-0.7-1-1-1.3c-0.4-0.4-1-0.6-1.6-0.7l-0.1,0v-0.2l0.1,0c0.6-0.2,1.1-0.6,1.5-1.2
		c0.1-0.2,0.4-0.8,0.8-1.8c0.3-0.7,0.5-1,0.8-1c0.1,0,0.2,0,0.2,0.3v0.2c0,0.2,0,0.3,0.1,0.4c0.1,0.1,0.2,0.2,0.4,0.2
		c0.2,0,0.3-0.1,0.4-0.2c0.1-0.1,0.2-0.3,0.2-0.4c0-0.2-0.1-0.4-0.2-0.5c-0.2-0.1-0.4-0.2-0.6-0.2c-0.4,0-0.7,0.1-1,0.4
		c-0.3,0.3-0.7,0.8-1.1,1.7c-0.5,1-0.9,1.6-1.2,1.9c-0.3,0.2-0.6,0.3-1,0.3h-0.6v-3.2c0-0.2,0-0.4,0.1-0.5c0.1-0.1,0.3-0.2,0.5-0.2
		h0.7v-0.2h-3.6v0.2h0.7c0.2,0,0.4,0.1,0.5,0.2c0.1,0.1,0.1,0.3,0.1,0.5v7.4c0,0.2,0,0.4-0.1,0.5c-0.1,0.1-0.3,0.2-0.5,0.2h-0.7v0.2
		h3.6v-0.2h-0.7c-0.2,0-0.4-0.1-0.5-0.2c-0.1-0.1-0.1-0.3-0.1-0.5V20.8z"/>
</g>
<g>
	<path fill="#C6C6C6" d="M146.8,25.8H143v-0.4h0.8c0.2,0,0.3-0.1,0.4-0.2c0.1-0.1,0.1-0.3,0.1-0.4v-7.4c0-0.2,0-0.3-0.1-0.5
		c-0.1-0.1-0.2-0.2-0.4-0.2H143c-0.7,0-1.1,0.2-1.2,0.5c-0.1,1-0.3,2.1-0.5,3.4c-0.3,1.9-0.7,3.3-1.1,4.1c-0.4,0.8-0.9,1.2-1.5,1.2
		c-0.4,0-0.7-0.1-0.9-0.3c-0.3-0.2-0.4-0.5-0.4-0.8c0-0.2,0.1-0.4,0.2-0.6c0.1-0.2,0.3-0.2,0.5-0.2c0.3,0,0.4,0.1,0.5,0.2
		c0.1,0.1,0.2,0.3,0.2,0.5V25l-0.1,0.2c0,0.2,0.1,0.3,0.2,0.3c0.2,0,0.3-0.1,0.5-0.3c0.2-0.3,0.4-0.8,0.7-1.5
		c0.2-0.7,0.5-1.7,0.7-3.1c0.2-1.4,0.3-2.3,0.3-2.8c0-0.3-0.1-0.5-0.2-0.6c-0.1-0.2-0.3-0.2-0.5-0.2h-0.9v-0.4h7.1v0.4H146
		c-0.2,0-0.3,0.1-0.4,0.2c-0.1,0.1-0.1,0.3-0.1,0.5v7.4c0,0.2,0,0.3,0.1,0.4c0.1,0.1,0.2,0.2,0.4,0.2h0.8V25.8L146.8,25.8z"/>
</g>
<g>
	<path fill="#C6C6C6" d="M138.7,26.1c-0.4,0-0.7-0.1-1-0.3c-0.3-0.2-0.4-0.5-0.4-0.9c0-0.3,0.1-0.5,0.2-0.7c0.2-0.2,0.4-0.3,0.6-0.3
		c0.3,0,0.5,0.1,0.6,0.3c0.1,0.2,0.2,0.3,0.2,0.5l0,0.2l0,0.2c0,0.1,0.1,0.2,0.1,0.2c0.1,0,0.3-0.1,0.4-0.3c0.2-0.3,0.4-0.8,0.7-1.5
		c0.2-0.7,0.5-1.7,0.7-3.1c0.2-1.4,0.3-2.3,0.3-2.8c0-0.2,0-0.4-0.1-0.5c-0.1-0.1-0.2-0.2-0.4-0.2h-1v-0.6h7.3v0.6H146
		c-0.1,0-0.3,0-0.3,0.1c-0.1,0.1-0.1,0.2-0.1,0.4v7.4c0,0.2,0,0.3,0.1,0.4c0.1,0.1,0.2,0.1,0.3,0.1h0.9v0.6h-4v-0.6h0.9
		c0.2,0,0.3,0,0.3-0.1c0.1-0.1,0.1-0.2,0.1-0.4v-7.4c0-0.2,0-0.3-0.1-0.4c-0.1-0.1-0.2-0.1-0.3-0.1H143c-0.6,0-1,0.1-1.1,0.4
		c-0.1,1-0.3,2.1-0.5,3.3c-0.3,1.9-0.7,3.3-1.1,4.1C139.9,25.7,139.3,26.1,138.7,26.1z M138.1,24.2c-0.2,0-0.3,0.1-0.4,0.2
		c-0.1,0.1-0.2,0.3-0.2,0.5c0,0.3,0.1,0.5,0.4,0.7c0.2,0.2,0.5,0.2,0.8,0.2c0.6,0,1.1-0.4,1.4-1.1c0.4-0.8,0.8-2.2,1.1-4.1
		c0.2-1.2,0.4-2.3,0.5-3.4c0.1-0.4,0.6-0.6,1.3-0.6h0.8c0.2,0,0.4,0.1,0.5,0.2c0.1,0.1,0.1,0.3,0.1,0.5v7.4c0,0.2,0,0.4-0.1,0.5
		c-0.1,0.1-0.3,0.2-0.5,0.2h-0.7v0.2h3.6v-0.2H146c-0.2,0-0.4-0.1-0.5-0.2c-0.1-0.1-0.1-0.3-0.1-0.5v-7.4c0-0.2,0-0.4,0.1-0.5
		c0.1-0.1,0.3-0.2,0.5-0.2h0.7v-0.2h-6.9v0.2h0.8c0.3,0,0.5,0.1,0.6,0.3c0.1,0.2,0.2,0.4,0.2,0.7c0,0.5-0.1,1.5-0.3,2.8
		c-0.2,1.4-0.5,2.4-0.7,3.1c-0.2,0.7-0.5,1.2-0.7,1.5c-0.2,0.3-0.4,0.4-0.6,0.4c-0.2,0-0.3-0.1-0.3-0.4l0,0l0-0.2v-0.2
		c0-0.2,0-0.3-0.1-0.4C138.5,24.2,138.3,24.2,138.1,24.2z"/>
</g>
<g>
	<path fill="#C6C6C6" d="M165.8,26h-3.4v-0.4h0.5c0.2,0,0.3,0,0.4-0.1c0.1,0,0.1-0.2,0.1-0.3c0-0.1,0-0.3-0.1-0.5
		c-0.1-0.2-0.1-0.4-0.2-0.5l-0.7-1.9h-3l-0.3,0.8c-0.1,0.3-0.2,0.6-0.3,0.9c-0.1,0.4-0.2,0.7-0.2,0.9c0,0.2,0,0.3,0.1,0.4
		c0.1,0.1,0.2,0.2,0.3,0.2h0.5V26h-2.7v-0.4h0.3c0.2,0,0.4-0.2,0.7-0.5c0.4-0.5,0.8-1.4,1.3-2.8l2.2-5.9h0.4l3,8.4
		c0.1,0.2,0.2,0.4,0.2,0.5c0.2,0.2,0.4,0.3,0.7,0.3h0.3V26L165.8,26z M162.4,21.9l-1.4-3.9l-1.4,3.9H162.4L162.4,21.9z"/>
</g>
<g>
	<path fill="#C6C6C6" d="M165.9,26.1h-3.6v-0.6h0.6c0.2,0,0.3,0,0.4-0.1c0.1,0,0.1-0.1,0.1-0.2c0-0.1,0-0.3-0.1-0.5
		c-0.1-0.2-0.1-0.4-0.2-0.5l-0.7-1.8h-2.9l-0.6,1.7c-0.1,0.4-0.2,0.7-0.2,0.9c0,0.2,0,0.3,0.1,0.4c0.1,0.1,0.1,0.1,0.2,0.1h0.6v0.6
		h-2.9v-0.6h0.4c0.2,0,0.4-0.2,0.6-0.5c0.3-0.5,0.8-1.4,1.2-2.7l2.2-6h0.6l0,0.1l3,8.4c0.1,0.2,0.2,0.4,0.2,0.5
		c0.1,0.2,0.3,0.3,0.6,0.3h0.4V26.1z M162.5,25.9h3.2v-0.2h-0.2c-0.3,0-0.6-0.1-0.8-0.4c-0.1-0.1-0.2-0.3-0.3-0.5l-3-8.3h-0.3
		l-2.2,5.8c-0.5,1.3-0.9,2.2-1.3,2.8c-0.3,0.4-0.5,0.6-0.8,0.6h-0.1v0.2h2.5v-0.2H159c-0.1,0-0.3,0-0.4-0.2
		c-0.1-0.1-0.1-0.3-0.1-0.5c0-0.2,0.1-0.5,0.2-0.9l0.7-1.8h3.2l0.7,1.9c0,0.1,0.1,0.3,0.2,0.5c0.1,0.2,0.1,0.4,0.1,0.6
		c0,0.2-0.1,0.4-0.2,0.4c-0.1,0.1-0.3,0.1-0.4,0.1h-0.4V25.9z M162.5,22.1h-3.1l1.6-4.3L162.5,22.1z M159.7,21.8h2.5l-1.2-3.4
		L159.7,21.8z"/>
</g>
<g>
	<path fill="#C6C6C6" d="M183.3,23.3c-0.4,0.9-1,1.6-1.7,2.1c-0.6,0.4-1.3,0.6-2.2,0.6c-1.3,0-2.4-0.4-3.2-1.2
		c-0.9-0.9-1.4-2.1-1.4-3.6c0-1.4,0.4-2.5,1.2-3.5c0.9-1,2-1.5,3.5-1.5c1.1,0,2,0.2,2.7,0.7l0-0.5h0.4l0.2,2.6h-0.4l0-0.3
		c0-0.5-0.3-1-0.8-1.4c-0.6-0.4-1.3-0.7-2.1-0.7c-1.1,0-1.9,0.5-2.5,1.5c-0.5,0.8-0.7,1.9-0.7,3.1c0,1.4,0.4,2.5,1.1,3.2
		c0.7,0.7,1.5,1,2.5,1c0.6,0,1.2-0.2,1.7-0.6c0.5-0.4,1-1,1.4-1.8L183.3,23.3L183.3,23.3z"/>
</g>
<g>
	<path fill="#C6C6C6" d="M179.5,26.1c-1.3,0-2.4-0.4-3.3-1.2c-1-0.9-1.4-2.1-1.4-3.6c0-1.4,0.4-2.6,1.2-3.5c0.9-1,2.1-1.6,3.6-1.6
		c1,0,1.9,0.2,2.6,0.6l0-0.4h0.6l0,0.1l0.2,2.7h-0.6l0-0.4c0-0.5-0.3-0.9-0.8-1.3c-0.5-0.4-1.2-0.6-2-0.6c-1.1,0-1.9,0.5-2.4,1.4
		c-0.5,0.8-0.7,1.9-0.7,3.1c0,1.4,0.4,2.4,1.1,3.2c0.6,0.7,1.5,1,2.4,1c0.6,0,1.2-0.2,1.7-0.6c0.5-0.4,0.9-1,1.3-1.7l0-0.1l0.5,0.3
		l0,0.1c-0.4,1-1,1.7-1.7,2.1C181.1,25.9,180.3,26.1,179.5,26.1z M179.5,16.3c-1.4,0-2.6,0.5-3.4,1.5c-0.8,0.9-1.2,2.1-1.2,3.4
		c0,1.4,0.5,2.6,1.4,3.5c0.8,0.8,1.9,1.2,3.2,1.2c0.8,0,1.5-0.2,2.1-0.6c0.7-0.4,1.2-1.1,1.6-2l-0.1-0.1c-0.4,0.8-0.8,1.3-1.3,1.7
		c-0.5,0.4-1.1,0.6-1.8,0.6c-1,0-1.9-0.4-2.6-1.1c-0.8-0.8-1.1-1.9-1.1-3.3c0-1.3,0.3-2.3,0.8-3.2c0.6-1,1.5-1.5,2.6-1.5
		c0.8,0,1.5,0.2,2.1,0.7c0.6,0.4,0.9,0.9,0.9,1.5l0,0.2h0.2l-0.2-2.3h-0.2l0,0.6l-0.2-0.1C181.5,16.5,180.6,16.3,179.5,16.3z"/>
</g>
<g>
	<path fill="#C6C6C6" d="M200.5,23.3c-0.4,0.9-1,1.6-1.7,2.1c-0.6,0.4-1.3,0.6-2.2,0.6c-1.3,0-2.4-0.4-3.2-1.2
		c-0.9-0.9-1.4-2.1-1.4-3.6c0-1.4,0.4-2.5,1.2-3.5c0.9-1,2-1.5,3.5-1.5c1.1,0,2,0.2,2.7,0.7l0-0.5h0.4L200,19h-0.4l0-0.3
		c0-0.5-0.3-1-0.8-1.4c-0.6-0.4-1.3-0.7-2-0.7c-1.1,0-1.9,0.5-2.5,1.5c-0.5,0.8-0.7,1.9-0.7,3.1c0,1.4,0.4,2.5,1.1,3.2
		c0.7,0.7,1.5,1,2.5,1c0.6,0,1.2-0.2,1.7-0.6c0.5-0.4,1-1,1.4-1.8L200.5,23.3L200.5,23.3z"/>
</g>
<g>
	<path fill="#C6C6C6" d="M196.6,26.1c-1.3,0-2.4-0.4-3.3-1.2c-1-0.9-1.4-2.1-1.4-3.6c0-1.4,0.4-2.6,1.2-3.5c0.9-1,2.1-1.6,3.6-1.6
		c1,0,1.9,0.2,2.6,0.6l0-0.4h0.6l0.2,2.8h-0.6l0-0.4c0-0.5-0.3-0.9-0.8-1.3c-0.5-0.4-1.2-0.6-2-0.6c-1.1,0-1.9,0.5-2.4,1.4
		c-0.5,0.8-0.7,1.9-0.7,3.1c0,1.4,0.4,2.4,1.1,3.2c0.6,0.7,1.5,1,2.4,1c0.6,0,1.2-0.2,1.7-0.6c0.5-0.4,0.9-1,1.3-1.7l0-0.1l0.5,0.3
		l0,0.1c-0.4,1-1,1.7-1.7,2.1C198.2,25.9,197.5,26.1,196.6,26.1z M196.7,16.3c-1.4,0-2.6,0.5-3.4,1.5c-0.8,0.9-1.2,2.1-1.2,3.4
		c0,1.4,0.5,2.6,1.4,3.5c0.8,0.8,1.9,1.2,3.2,1.2c0.8,0,1.5-0.2,2.1-0.6c0.7-0.4,1.2-1.1,1.6-2l-0.1-0.1c-0.4,0.8-0.8,1.3-1.3,1.7
		c-0.5,0.4-1.1,0.6-1.8,0.6c-1,0-1.9-0.4-2.6-1.1c-0.8-0.8-1.1-1.9-1.1-3.3c0-1.3,0.3-2.3,0.8-3.2c0.6-1,1.5-1.5,2.6-1.5
		c0.8,0,1.5,0.2,2.1,0.7c0.6,0.4,0.9,0.9,0.9,1.5l0,0.2h0.2l-0.2-2.3h-0.2l0,0.6l-0.2-0.1C198.7,16.5,197.8,16.3,196.7,16.3z"/>
</g>
<g>
	<polygon fill="#706F6F" points="3.2,33.7 2.7,33.7 2.7,30.8 1.8,33.7 1.4,33.7 0.4,30.8 0.4,33.7 0,33.7 0,30.3 0.7,30.3 1.6,33.1 
		2.5,30.3 3.2,30.3 3.2,33.7 	"/>
</g>
<g>
	<path fill="#706F6F" d="M22,32.3l-0.6-1.6l-0.6,1.6H22L22,32.3z M23,33.7h-0.5l-0.4-1h-1.4l-0.4,1h-0.5l1.3-3.4h0.5L23,33.7
		L23,33.7z"/>
</g>
<g>
	<path fill="#706F6F" d="M40.9,33.7c-0.5,0-0.8-0.1-1.1-0.3c-0.2-0.2-0.4-0.5-0.4-0.8h0.4c0,0.3,0.1,0.4,0.3,0.6
		c0.2,0.1,0.4,0.2,0.7,0.2c0.3,0,0.5-0.1,0.6-0.2c0.2-0.1,0.2-0.2,0.2-0.4c0-0.2-0.1-0.3-0.2-0.4c-0.2-0.1-0.4-0.2-0.8-0.2
		c-0.4-0.1-0.7-0.2-0.8-0.3c-0.2-0.1-0.3-0.3-0.3-0.6c0-0.3,0.1-0.5,0.3-0.7c0.2-0.2,0.5-0.3,0.9-0.3c0.4,0,0.7,0.1,0.9,0.3
		c0.2,0.2,0.4,0.4,0.4,0.7h-0.4c0-0.4-0.3-0.6-0.8-0.6c-0.2,0-0.4,0-0.6,0.1C40.1,30.9,40,31,40,31.1c0,0.1,0.1,0.2,0.2,0.3
		c0.1,0.1,0.3,0.1,0.6,0.2c0.3,0.1,0.5,0.1,0.7,0.2c0.2,0.1,0.3,0.2,0.5,0.3c0.1,0.1,0.2,0.3,0.2,0.5c0,0.3-0.1,0.5-0.3,0.7
		C41.6,33.6,41.3,33.7,40.9,33.7L40.9,33.7z"/>
</g>
<g>
	<polygon fill="#706F6F" points="61.5,30.7 60.4,30.7 60.4,33.7 59.9,33.7 59.9,30.7 58.8,30.7 58.8,30.3 61.5,30.3 61.5,30.7 	"/>
</g>
<g>
	<polygon fill="#706F6F" points="80.8,33.7 78.2,33.7 78.2,30.3 80.7,30.3 80.7,30.7 78.7,30.7 78.7,31.7 80.5,31.7 80.5,32.1 
		78.7,32.1 78.7,33.3 80.8,33.3 80.8,33.7 	"/>
</g>
<g>
	<path fill="#706F6F" d="M100.5,33.7H100l-0.3-0.9c-0.1-0.2-0.2-0.3-0.3-0.4c-0.1-0.1-0.3-0.2-0.5-0.2h-0.8v1.4h-0.4v-3.4h1.5
		c0.3,0,0.5,0,0.6,0.1c0.2,0,0.3,0.2,0.4,0.3c0.1,0.2,0.2,0.3,0.2,0.5c0,0.2-0.1,0.4-0.2,0.6c-0.1,0.2-0.3,0.3-0.6,0.3v0
		c0.2,0.1,0.4,0.3,0.5,0.6L100.5,33.7L100.5,33.7z M98.1,31.8h1c0.3,0,0.5,0,0.6-0.1c0.1-0.1,0.2-0.2,0.2-0.5c0-0.4-0.2-0.6-0.7-0.6
		h-1.1V31.8L98.1,31.8z"/>
</g>
<g>
	<path fill="#706F6F" d="M121.3,33.7c-0.5,0-0.9-0.2-1.1-0.5c-0.3-0.3-0.4-0.7-0.4-1.3c0-0.5,0.1-1,0.4-1.3c0.3-0.3,0.7-0.5,1.1-0.5
		c0.4,0,0.7,0.1,0.9,0.3c0.3,0.2,0.4,0.5,0.4,0.8h-0.5c0-0.2-0.1-0.4-0.3-0.5c-0.2-0.1-0.4-0.2-0.6-0.2c-0.3,0-0.6,0.1-0.8,0.4
		c-0.2,0.2-0.3,0.6-0.3,1c0,0.4,0.1,0.8,0.3,1c0.2,0.2,0.5,0.4,0.8,0.4c0.3,0,0.5-0.1,0.6-0.2c0.2-0.1,0.3-0.3,0.3-0.6h0.5
		c0,0.4-0.2,0.6-0.4,0.8C122,33.6,121.7,33.7,121.3,33.7L121.3,33.7z"/>
</g>
<g>
	<polygon fill="#706F6F" points="141.6,33.7 139.5,33.7 139.5,30.3 140,30.3 140,33.3 141.6,33.3 141.6,33.7 	"/>
</g>
<g>
	<path fill="#706F6F" d="M160.2,32.3l-0.6-1.6l-0.6,1.6H160.2L160.2,32.3z M161.2,33.7h-0.5l-0.4-1h-1.4l-0.4,1h-0.5l1.3-3.4h0.5
		L161.2,33.7L161.2,33.7z"/>
</g>
<g>
	<path fill="#706F6F" d="M179.2,33.7c-0.5,0-0.8-0.1-1.1-0.3c-0.2-0.2-0.4-0.5-0.4-0.8h0.4c0,0.3,0.1,0.4,0.3,0.6
		c0.2,0.1,0.4,0.2,0.7,0.2c0.3,0,0.5-0.1,0.6-0.2c0.2-0.1,0.2-0.2,0.2-0.4c0-0.2-0.1-0.3-0.2-0.4c-0.2-0.1-0.4-0.2-0.8-0.2
		c-0.4-0.1-0.7-0.2-0.8-0.3c-0.2-0.1-0.3-0.3-0.3-0.6c0-0.3,0.1-0.5,0.3-0.7c0.2-0.2,0.5-0.3,0.9-0.3c0.4,0,0.7,0.1,0.9,0.3
		c0.2,0.2,0.4,0.4,0.4,0.7h-0.4c0-0.4-0.3-0.6-0.8-0.6c-0.2,0-0.4,0-0.6,0.1c-0.1,0.1-0.2,0.2-0.2,0.4c0,0.1,0.1,0.2,0.2,0.3
		c0.1,0.1,0.3,0.1,0.6,0.2c0.3,0.1,0.5,0.1,0.7,0.2c0.2,0.1,0.3,0.2,0.5,0.3c0.1,0.1,0.2,0.3,0.2,0.5c0,0.3-0.1,0.5-0.3,0.7
		C179.8,33.6,179.5,33.7,179.2,33.7L179.2,33.7z"/>
</g>
<g>
	<path fill="#706F6F" d="M198.9,33.7c-0.5,0-0.8-0.1-1.1-0.3c-0.2-0.2-0.4-0.5-0.4-0.8h0.4c0,0.3,0.1,0.4,0.3,0.6
		c0.2,0.1,0.4,0.2,0.7,0.2c0.3,0,0.5-0.1,0.6-0.2c0.2-0.1,0.2-0.2,0.2-0.4c0-0.2-0.1-0.3-0.2-0.4c-0.2-0.1-0.4-0.2-0.8-0.2
		c-0.4-0.1-0.7-0.2-0.8-0.3c-0.2-0.1-0.3-0.3-0.3-0.6c0-0.3,0.1-0.5,0.3-0.7c0.2-0.2,0.5-0.3,0.9-0.3c0.4,0,0.7,0.1,0.9,0.3
		c0.2,0.2,0.4,0.4,0.4,0.7h-0.4c0-0.4-0.3-0.6-0.8-0.6c-0.2,0-0.4,0-0.6,0.1c-0.1,0.1-0.2,0.2-0.2,0.4c0,0.1,0.1,0.2,0.2,0.3
		c0.1,0.1,0.3,0.1,0.6,0.2c0.3,0.1,0.5,0.1,0.7,0.2c0.2,0.1,0.3,0.2,0.5,0.3c0.1,0.1,0.2,0.3,0.2,0.5c0,0.3-0.1,0.5-0.3,0.7
		C199.5,33.6,199.2,33.7,198.9,33.7L198.9,33.7z"/>
</g>
<g>
	<polygon fill="#706F6F" points="3.2,12.4 2.8,12.4 2.8,9.7 1.9,12.4 1.6,12.4 0.7,9.7 0.7,12.4 0.3,12.4 0.3,9.3 0.9,9.3 1.8,11.9 
		2.6,9.3 3.2,9.3 3.2,12.4 	"/>
</g>
<g>
	<polygon fill="#706F6F" points="9.8,12.4 7.5,12.4 7.5,9.3 9.7,9.3 9.7,9.6 7.9,9.6 7.9,10.6 9.6,10.6 9.6,11 7.9,11 7.9,12 
		9.8,12 9.8,12.4 	"/>
</g>
<g>
	<polygon fill="#706F6F" points="17.5,12.4 17,12.4 15.8,10.9 15.8,12.4 15.4,12.4 15.4,10.9 14.1,12.4 13.6,12.4 15.1,10.7 
		13.6,9.3 14.2,9.3 15.4,10.5 15.4,9.3 15.8,9.3 15.8,10.5 16.9,9.3 17.5,9.3 16,10.7 17.5,12.4 	"/>
</g>
<g>
	<path fill="#706F6F" d="M24,12h0.4v1.1H24v-0.7h-2.4v0.7h-0.4V12h0.3c0.1-0.2,0.2-0.4,0.3-0.8c0.1-0.3,0.1-0.8,0.1-1.5V9.3H24V12
		L24,12z M23.6,12V9.6h-1.3v0.2c0,0.6,0,1.1-0.1,1.4c-0.1,0.3-0.2,0.6-0.3,0.8H23.6L23.6,12z"/>
</g>
<g>
	<path fill="#706F6F" d="M30.8,9.3l-1.2,2.3c-0.2,0.4-0.4,0.6-0.5,0.7c-0.1,0.1-0.3,0.2-0.4,0.2c-0.1,0-0.3,0-0.4-0.1V12
		c0.1,0,0.2,0.1,0.4,0.1c0.2,0,0.4-0.2,0.5-0.5l-0.6-1.2L28,9.3h0.5l0.5,0.9l0.5,0.9l0.9-1.9H30.8L30.8,9.3z"/>
</g>
<g>
	<polygon fill="#706F6F" points="37.2,12.4 36.8,12.4 36.8,10.9 35.1,10.9 35.1,12.4 34.7,12.4 34.7,9.3 35.1,9.3 35.1,10.6 
		36.8,10.6 36.8,9.3 37.2,9.3 37.2,12.4 	"/>
</g>
<g>
	<path fill="#706F6F" d="M43,11.1l-0.6-1.5L42,11.1H43L43,11.1z M44,12.4h-0.5l-0.4-1h-1.3l-0.3,1h-0.4l1.2-3.2h0.5L44,12.4L44,12.4
		z"/>
</g>
<g>
	<path fill="#706F6F" d="M47.9,9.3h1.2c0.3,0,0.5,0,0.6,0.1c0.2,0,0.3,0.2,0.4,0.3c0.1,0.2,0.2,0.3,0.2,0.5c0,0.3-0.1,0.6-0.3,0.7
		c-0.2,0.2-0.5,0.2-0.9,0.2h-0.8v1.3h-0.4V9.3L47.9,9.3z M48.3,10.8h0.8c0.3,0,0.5,0,0.6-0.2c0.1-0.1,0.2-0.2,0.2-0.4
		c0-0.1,0-0.2-0.1-0.3c-0.1-0.1-0.1-0.2-0.2-0.2c-0.1,0-0.2,0-0.4,0h-0.8V10.8L48.3,10.8z"/>
</g>
<g>
	<path fill="#706F6F" d="M55.7,9.2c0.4,0,0.8,0.1,1.1,0.4c0.3,0.3,0.4,0.7,0.4,1.2c0,0.5-0.1,0.9-0.4,1.2c-0.3,0.3-0.6,0.4-1.1,0.4
		c-0.4,0-0.8-0.1-1.1-0.5c-0.3-0.3-0.4-0.7-0.4-1.2c0-0.5,0.1-0.9,0.4-1.2C54.9,9.4,55.3,9.2,55.7,9.2L55.7,9.2z M55.7,12.1
		c0.3,0,0.6-0.1,0.8-0.3c0.2-0.2,0.3-0.5,0.3-0.9c0-0.4-0.1-0.7-0.3-0.9c-0.2-0.2-0.5-0.3-0.8-0.3c-0.3,0-0.6,0.1-0.8,0.3
		c-0.2,0.2-0.3,0.5-0.3,0.9c0,0.4,0.1,0.7,0.3,0.9C55.1,12,55.4,12.1,55.7,12.1L55.7,12.1z"/>
</g>
<g>
	<path fill="#706F6F" d="M63.8,12h0.4v1.1h-0.4v-0.7h-2.4v0.7H61V12h0.3c0.1-0.2,0.2-0.4,0.3-0.8c0.1-0.3,0.1-0.8,0.1-1.5V9.3h2.2
		V12L63.8,12z M63.4,12V9.6h-1.3v0.2c0,0.6,0,1.1-0.1,1.4c-0.1,0.3-0.2,0.6-0.3,0.8H63.4L63.4,12z"/>
</g>
<g>
	<polygon fill="#706F6F" points="70.7,12.4 70.3,12.4 70.3,10.9 68.6,10.9 68.6,12.4 68.2,12.4 68.2,9.3 68.6,9.3 68.6,10.6 
		70.3,10.6 70.3,9.3 70.7,9.3 70.7,12.4 	"/>
</g>
<g>
	<path fill="#706F6F" d="M75.3,10.6h0.7c0.8,0,1.2,0.3,1.2,0.9c0,0.3-0.1,0.5-0.3,0.7c-0.2,0.2-0.5,0.2-0.9,0.2h-1.2V9.3h0.4V10.6
		L75.3,10.6z M75.3,12h0.8c0.5,0,0.8-0.2,0.8-0.5c0-0.2-0.1-0.3-0.2-0.4C76.6,11,76.4,11,76.1,11h-0.7V12L75.3,12z M78.1,12.4h-0.4
		V9.3h0.4V12.4L78.1,12.4z"/>
</g>
<g>
	<path fill="#706F6F" d="M84.8,12.4h-0.4V9.9l-1.7,2.5h-0.4V9.3h0.4v2.5l1.7-2.5h0.4V12.4L84.8,12.4z M84.2,8.5
		c0,0.2-0.1,0.3-0.2,0.4C83.9,9,83.8,9,83.6,9c-0.2,0-0.3,0-0.4-0.1C83,8.8,83,8.7,82.9,8.5h0.3c0,0.2,0.2,0.3,0.4,0.3
		c0.2,0,0.3-0.1,0.4-0.3H84.2L84.2,8.5z"/>
</g>
<g>
	<path fill="#706F6F" d="M93.1,9.6c0.5,0,0.8,0.1,1.1,0.3c0.3,0.2,0.4,0.5,0.4,0.9c0,0.4-0.1,0.7-0.4,0.9C94,11.9,93.6,12,93.1,12
		v0.4h-0.4V12c-0.5,0-0.8-0.1-1.1-0.3c-0.3-0.2-0.4-0.5-0.4-0.9c0-0.4,0.1-0.7,0.4-0.9c0.3-0.2,0.6-0.3,1.1-0.3V9.3h0.4V9.6
		L93.1,9.6z M93.1,11.7c0.3,0,0.6-0.1,0.8-0.2c0.2-0.1,0.3-0.4,0.3-0.7c0-0.3-0.1-0.5-0.3-0.7C93.7,10,93.5,10,93.1,10V11.7
		L93.1,11.7z M92.7,11.7V10c-0.3,0-0.6,0.1-0.8,0.2c-0.2,0.1-0.3,0.4-0.3,0.7c0,0.3,0.1,0.5,0.3,0.7C92.1,11.6,92.4,11.7,92.7,11.7
		L92.7,11.7z"/>
</g>
<g>
	<polygon fill="#706F6F" points="101,12.4 98.7,12.4 98.7,9.3 100.9,9.3 100.9,9.6 99.1,9.6 99.1,10.6 100.8,10.6 100.8,11 99.1,11 
		99.1,12 101,12 101,12.4 	"/>
</g>
<g>
	<path fill="#706F6F" d="M106.4,12.5c-0.4,0-0.8-0.1-1.1-0.4c-0.3-0.3-0.4-0.7-0.4-1.2c0-0.5,0.1-0.9,0.4-1.2
		c0.3-0.3,0.6-0.4,1.1-0.4c0.3,0,0.6,0.1,0.9,0.3c0.2,0.2,0.4,0.4,0.4,0.7h-0.4c0-0.2-0.1-0.4-0.3-0.5c-0.2-0.1-0.4-0.2-0.6-0.2
		c-0.3,0-0.6,0.1-0.8,0.3c-0.2,0.2-0.3,0.5-0.3,0.9c0,0.4,0.1,0.7,0.3,0.9c0.2,0.2,0.4,0.3,0.8,0.3c0.2,0,0.4-0.1,0.6-0.2
		c0.2-0.1,0.2-0.3,0.3-0.5h0.4c0,0.3-0.2,0.6-0.4,0.8C107.1,12.4,106.8,12.5,106.4,12.5L106.4,12.5z"/>
</g>
<g>
	<polygon fill="#706F6F" points="114.1,9.6 113,9.6 113,12.4 112.6,12.4 112.6,9.6 111.6,9.6 111.6,9.3 114.1,9.3 114.1,9.6 	"/>
</g>
<g>
	<polygon fill="#706F6F" points="120.5,12.4 120.1,12.4 120.1,9.9 118.5,12.4 118,12.4 118,9.3 118.4,9.3 118.4,11.8 120.1,9.3 
		120.5,9.3 120.5,12.4 	"/>
</g>
<g>
	<path fill="#706F6F" d="M127.1,11.5c0,0.3-0.1,0.5-0.3,0.7c-0.2,0.2-0.5,0.2-0.9,0.2h-1.2V9.3h1.1c0.3,0,0.6,0.1,0.8,0.2
		c0.2,0.1,0.3,0.3,0.3,0.6c0,0.3-0.2,0.5-0.5,0.7c0.2,0.1,0.4,0.1,0.5,0.3C127.1,11.2,127.1,11.3,127.1,11.5L127.1,11.5z
		 M125.2,10.6h0.7c0.2,0,0.4,0,0.5-0.1c0.1-0.1,0.2-0.2,0.2-0.4c0-0.2-0.1-0.3-0.2-0.3c-0.1-0.1-0.3-0.1-0.6-0.1h-0.7V10.6
		L125.2,10.6z M125.2,12h0.8c0.5,0,0.8-0.2,0.8-0.5c0-0.2-0.1-0.3-0.2-0.4c-0.1-0.1-0.3-0.1-0.6-0.1h-0.7V12L125.2,12z"/>
</g>
<g>
	<path fill="#706F6F" d="M132.8,11.1l-0.6-1.5l-0.5,1.5H132.8L132.8,11.1z M133.8,12.4h-0.5l-0.4-1h-1.3l-0.3,1h-0.4l1.2-3.2h0.5
		L133.8,12.4L133.8,12.4z"/>
</g>
<g>
	<path fill="#706F6F" d="M140.1,12.4h-0.4V9.6h-1.4v2c0,0.6-0.2,0.9-0.6,0.9c-0.1,0-0.2,0-0.3,0v-0.4c0.1,0,0.1,0,0.2,0
		c0.1,0,0.2,0,0.2-0.1c0-0.1,0.1-0.2,0.1-0.4V9.3h2.2V12.4L140.1,12.4z"/>
</g>
<g>
	<path fill="#706F6F" d="M144.7,10.6h0.7c0.8,0,1.2,0.3,1.2,0.9c0,0.3-0.1,0.5-0.3,0.7c-0.2,0.2-0.5,0.2-0.9,0.2h-1.2V9.3h0.4V10.6
		L144.7,10.6z M144.7,12h0.8c0.5,0,0.8-0.2,0.8-0.5c0-0.2-0.1-0.3-0.2-0.4c-0.1-0.1-0.3-0.1-0.6-0.1h-0.7V12L144.7,12z"/>
</g>
<g>
	<polygon fill="#706F6F" points="154.4,12.4 154,12.4 154,9.9 152.3,12.4 151.9,12.4 151.9,9.3 152.3,9.3 152.3,11.8 153.9,9.3 
		154.4,9.3 154.4,12.4 	"/>
</g>
<g>
	<path fill="#706F6F" d="M159.9,12.5c-0.4,0-0.8-0.1-1.1-0.4c-0.3-0.3-0.4-0.7-0.4-1.2c0-0.5,0.1-0.9,0.4-1.2
		c0.3-0.3,0.6-0.4,1.1-0.4c0.3,0,0.6,0.1,0.9,0.3c0.2,0.2,0.4,0.4,0.4,0.7h-0.4c0-0.2-0.1-0.4-0.3-0.5c-0.2-0.1-0.4-0.2-0.6-0.2
		c-0.3,0-0.6,0.1-0.8,0.3c-0.2,0.2-0.3,0.5-0.3,0.9c0,0.4,0.1,0.7,0.3,0.9c0.2,0.2,0.4,0.3,0.8,0.3c0.2,0,0.4-0.1,0.6-0.2
		c0.2-0.1,0.2-0.3,0.3-0.5h0.4c0,0.3-0.2,0.6-0.4,0.8C160.6,12.4,160.3,12.5,159.9,12.5L159.9,12.5z"/>
</g>
<g>
	<polygon fill="#706F6F" points="167.9,12.4 167.3,12.4 166.2,10.8 165.7,11.3 165.7,12.4 165.3,12.4 165.3,9.3 165.7,9.3 
		165.7,10.8 167.3,9.3 167.8,9.3 166.5,10.6 167.9,12.4 	"/>
</g>
<g>
	<path fill="#706F6F" d="M174.2,9.3l-1.2,2.3c-0.2,0.4-0.4,0.6-0.5,0.7c-0.1,0.1-0.3,0.2-0.4,0.2c-0.1,0-0.3,0-0.4-0.1V12
		c0.1,0,0.2,0.1,0.4,0.1c0.2,0,0.4-0.2,0.5-0.5l-0.6-1.2l-0.6-1.2h0.5l0.5,0.9l0.5,0.9l0.9-1.9H174.2L174.2,9.3z"/>
</g>
<g>
	<path fill="#706F6F" d="M179.4,12.5c-0.4,0-0.8-0.1-1.1-0.4c-0.3-0.3-0.4-0.7-0.4-1.2c0-0.5,0.1-0.9,0.4-1.2
		c0.3-0.3,0.6-0.4,1.1-0.4c0.3,0,0.6,0.1,0.9,0.3c0.2,0.2,0.4,0.4,0.4,0.7h-0.4c0-0.2-0.1-0.4-0.3-0.5c-0.2-0.1-0.4-0.2-0.6-0.2
		c-0.3,0-0.6,0.1-0.8,0.3c-0.2,0.2-0.3,0.5-0.3,0.9c0,0.4,0.1,0.7,0.3,0.9c0.2,0.2,0.4,0.3,0.8,0.3c0.2,0,0.4-0.1,0.6-0.2
		c0.2-0.1,0.2-0.3,0.3-0.5h0.4c0,0.3-0.2,0.6-0.4,0.8C180.1,12.4,179.8,12.5,179.4,12.5L179.4,12.5z"/>
</g>
<g>
	<path fill="#706F6F" d="M186.1,12.5c-0.4,0-0.8-0.1-1.1-0.4c-0.3-0.3-0.4-0.7-0.4-1.2c0-0.5,0.1-0.9,0.4-1.2
		c0.3-0.3,0.6-0.4,1.1-0.4c0.3,0,0.6,0.1,0.9,0.3c0.2,0.2,0.4,0.4,0.4,0.7H187c0-0.2-0.1-0.4-0.3-0.5c-0.2-0.1-0.4-0.2-0.6-0.2
		c-0.3,0-0.6,0.1-0.8,0.3c-0.2,0.2-0.3,0.5-0.3,0.9c0,0.4,0.1,0.7,0.3,0.9c0.2,0.2,0.4,0.3,0.8,0.3c0.2,0,0.4-0.1,0.6-0.2
		c0.2-0.1,0.2-0.3,0.3-0.5h0.4c0,0.3-0.2,0.6-0.4,0.8C186.8,12.4,186.5,12.5,186.1,12.5L186.1,12.5z"/>
</g>
<g>
	<polygon fill="#706F6F" points="193.8,9.6 192.7,9.6 192.7,12.4 192.3,12.4 192.3,9.6 191.3,9.6 191.3,9.3 193.8,9.3 193.8,9.6 	
		"/>
</g>
<g>
	<path fill="#706F6F" d="M200.1,11.5c0,0.3-0.1,0.5-0.3,0.7c-0.2,0.2-0.5,0.2-0.9,0.2h-1.2V9.3h1.1c0.3,0,0.6,0.1,0.8,0.2
		c0.2,0.1,0.3,0.3,0.3,0.6c0,0.3-0.2,0.5-0.5,0.7c0.2,0.1,0.4,0.1,0.5,0.3C200,11.2,200.1,11.3,200.1,11.5L200.1,11.5z M198.2,10.6
		h0.7c0.2,0,0.4,0,0.5-0.1c0.1-0.1,0.2-0.2,0.2-0.4c0-0.2-0.1-0.3-0.2-0.3c-0.1-0.1-0.3-0.1-0.6-0.1h-0.7V10.6L198.2,10.6z
		 M198.2,12h0.8c0.5,0,0.8-0.2,0.8-0.5c0-0.2-0.1-0.3-0.2-0.4c-0.1-0.1-0.3-0.1-0.6-0.1h-0.7V12L198.2,12z"/>
</g>
<g>
	<rect x="0" y="27.7" fill="#BE1D20" width="200.1" height="0.2"/>
</g>
<g>
	<g>
		<path fill="#EF7D00" d="M237.4,42.2c-11.8,0-21.3-9.5-21.3-21.1c0-11.6,9.6-21.1,21.3-21.1c11.8,0,21.3,9.5,21.3,21.1
			C258.7,32.7,249.2,42.2,237.4,42.2z M237.4,0.5c-11.5,0-20.9,9.3-20.9,20.6c0,11.4,9.4,20.6,20.9,20.6c11.5,0,20.9-9.3,20.9-20.6
			C258.3,9.7,248.9,0.5,237.4,0.5z"/>
	</g>
	<g>
		<polygon fill-rule="evenodd" clip-rule="evenodd" fill="#2F2A84" points="244.2,36.3 244.1,36.8 243.9,37.2 243.6,37.7 
			243.3,38.1 243,38.5 242.7,38.8 242.3,39.2 242,39.5 241.6,39.8 241.1,40.1 240.7,40.3 240.2,40.5 239.7,40.7 239.2,40.9 
			238.7,41 238.2,41.1 237.7,41.1 237.2,41.1 236.6,41.1 236.1,41 235.6,40.9 235.1,40.7 234.6,40.5 234.1,40.3 233.6,40 
			233.1,39.7 232.7,39.3 232.2,38.9 231.8,38.4 231.4,37.9 231,37.3 230.7,36.7 230.4,36 230.1,35.3 229.9,34.6 229.7,33.9 
			229.6,33.2 229.5,32.5 229.5,31.8 229.5,31 229.5,30.3 229.6,29.6 229.7,28.8 229.9,28.1 230.1,27.4 230.3,26.7 230.5,26 
			230.8,25.4 231.1,24.7 231.4,24.1 231.7,23.5 232.1,22.9 232.5,22.4 232.8,21.9 233.3,21.4 233.7,21 234.1,20.6 234.6,20.3 
			235,20 235.5,19.7 236,19.5 236.4,19.4 236.9,19.3 237.4,19.3 236.8,19.4 236.3,19.6 235.8,19.9 235.5,20.3 235.4,20.7 
			235.2,21.2 235.3,21.8 235.4,22.4 235.6,23 235.9,23.7 236.3,24.3 236.9,25 237.5,25.6 238.2,26.2 239.1,26.8 240,27.4 
			240.4,27.6 240.8,27.8 241.2,28.1 241.7,28.4 242.2,28.8 242.6,29.2 243,29.7 243.4,30.2 243.8,30.7 244.1,31.4 244.3,32 
			244.5,32.7 244.6,33.5 244.6,34.4 244.5,35.3 244.2,36.3 		"/>
	</g>
	<g>
		<polygon fill-rule="evenodd" clip-rule="evenodd" fill="#E40F1B" points="222,27.8 221.6,27.7 221.1,27.5 220.7,27.2 220.3,27 
			219.8,26.7 219.5,26.4 219.1,26 218.8,25.6 218.5,25.2 218.2,24.8 218,24.3 217.8,23.9 217.6,23.4 217.4,22.9 217.3,22.4 
			217.2,21.9 217.2,21.4 217.2,20.9 217.2,20.3 217.3,19.8 217.4,19.3 217.6,18.8 217.7,18.3 218,17.8 218.3,17.3 218.6,16.9 
			219,16.4 219.4,16 219.9,15.5 220.4,15.1 221,14.8 221.7,14.4 222.3,14.1 223,13.9 223.7,13.7 224.4,13.5 225.2,13.4 225.9,13.3 
			226.6,13.3 227.4,13.3 228.1,13.3 228.8,13.4 229.6,13.5 230.3,13.6 231,13.8 231.7,14 232.4,14.3 233.1,14.5 233.7,14.8 
			234.4,15.1 235,15.5 235.5,15.8 236.1,16.2 236.6,16.6 237.1,17 237.5,17.4 237.9,17.8 238.2,18.3 238.5,18.7 238.8,19.2 
			239,19.7 239.1,20.1 239.2,20.6 239.2,21.1 239.1,20.5 238.9,20 238.6,19.6 238.2,19.3 237.8,19.1 237.3,19 236.7,19 236.1,19.1 
			235.5,19.3 234.8,19.6 234.1,20 233.5,20.6 232.8,21.2 232.2,21.9 231.6,22.8 231.1,23.7 230.8,24.1 230.6,24.5 230.3,24.9 
			230,25.4 229.6,25.8 229.2,26.2 228.7,26.7 228.2,27.1 227.6,27.4 227,27.7 226.4,28 225.6,28.1 224.8,28.2 224,28.2 223,28.1 
			222,27.8 		"/>
	</g>
	<g>
		<polygon fill-rule="evenodd" clip-rule="evenodd" fill="#0F753C" points="252.8,14.3 253.2,14.5 253.7,14.7 254.1,14.9 
			254.6,15.2 255,15.5 255.3,15.8 255.7,16.2 256,16.6 256.3,17 256.6,17.4 256.8,17.9 257,18.3 257.2,18.8 257.4,19.3 257.5,19.8 
			257.6,20.3 257.6,20.8 257.6,21.3 257.6,21.8 257.5,22.4 257.4,22.9 257.3,23.4 257.1,23.9 256.8,24.4 256.5,24.9 256.2,25.3 
			255.8,25.8 255.4,26.2 254.9,26.7 254.4,27.1 253.8,27.4 253.2,27.8 252.5,28.1 251.8,28.3 251.1,28.5 250.4,28.7 249.7,28.8 
			248.9,28.9 248.2,28.9 247.4,28.9 246.7,28.9 246,28.8 245.2,28.7 244.5,28.6 243.8,28.4 243.1,28.2 242.4,27.9 241.7,27.7 
			241.1,27.4 240.4,27.1 239.8,26.7 239.3,26.4 238.7,26 238.2,25.6 237.8,25.2 237.3,24.8 236.9,24.4 236.6,23.9 236.3,23.5 
			236,23 235.9,22.5 235.7,22.1 235.6,21.6 235.6,21.1 235.7,21.7 235.9,22.2 236.2,22.6 236.6,22.9 237,23.1 237.5,23.2 
			238.1,23.2 238.7,23.1 239.4,22.9 240,22.6 240.7,22.2 241.3,21.6 242,21 242.6,20.3 243.2,19.4 243.8,18.5 244,18.1 244.2,17.7 
			244.5,17.3 244.8,16.8 245.2,16.4 245.6,16 246.1,15.5 246.6,15.1 247.2,14.8 247.8,14.5 248.4,14.2 249.2,14.1 250,14 250.8,14 
			251.8,14.1 252.8,14.3 		"/>
	</g>
	<g>
		<polygon fill-rule="evenodd" clip-rule="evenodd" fill="#FBC800" points="230.6,5.9 230.8,5.4 231,5 231.2,4.5 231.5,4.1 
			231.8,3.7 232.1,3.3 232.5,3 232.9,2.7 233.3,2.4 233.7,2.1 234.2,1.9 234.6,1.7 235.1,1.5 235.6,1.3 236.1,1.2 236.6,1.1 
			237.1,1.1 237.6,1.1 238.2,1.1 238.7,1.2 239.2,1.3 239.7,1.4 240.2,1.6 240.7,1.9 241.2,2.2 241.7,2.5 242.2,2.9 242.6,3.3 
			243,3.8 243.4,4.3 243.8,4.9 244.2,5.5 244.5,6.2 244.7,6.9 244.9,7.6 245.1,8.3 245.2,9 245.3,9.7 245.3,10.4 245.3,11.2 
			245.3,11.9 245.2,12.6 245.1,13.4 244.9,14.1 244.8,14.8 244.5,15.5 244.3,16.2 244,16.8 243.7,17.5 243.4,18.1 243.1,18.7 
			242.7,19.3 242.4,19.8 242,20.3 241.6,20.8 241.1,21.2 240.7,21.6 240.2,21.9 239.8,22.2 239.3,22.4 238.8,22.6 238.4,22.8 
			237.9,22.9 237.4,22.9 238,22.8 238.5,22.6 239,22.3 239.3,21.9 239.5,21.5 239.6,21 239.6,20.4 239.4,19.8 239.2,19.2 
			238.9,18.5 238.5,17.9 238,17.2 237.3,16.6 236.6,16 235.7,15.4 234.8,14.8 234.4,14.6 234,14.4 233.6,14.1 233.1,13.8 
			232.7,13.4 232.2,13 231.8,12.5 231.4,12 231,11.4 230.7,10.8 230.5,10.2 230.3,9.4 230.2,8.6 230.2,7.8 230.4,6.9 230.6,5.9 		
			"/>
	</g>
</g>
</svg>
