<svg xmlns="http://www.w3.org/2000/svg" viewBox="0 0 242.08 30.48"><defs><style>.cls-1{fill:#da231c;}.cls-2{fill:none;stroke:#da231c;stroke-miterlimit:22.93;stroke-width:0.22px;}.cls-3{fill:#706f6f;}</style></defs><title>title</title><g id="Слой_2" data-name="Слой 2"><g id="Layer_1" data-name="Layer 1"><path class="cls-1" d="M14,21.13H9.44v-.45h.92a.56.56,0,0,0,.48-.19.91.91,0,0,0,.14-.54V11.23l-4.16,9.9H6.39L2.07,10.9v5.4a18.94,18.94,0,0,0,.16,3q.26,1.39,1,1.39h.37v.45H.07v-.45H.38q.7,0,1-1.39a18.07,18.07,0,0,0,.18-3V11a.9.9,0,0,0-.21-.7.61.61,0,0,0-.41-.11H.07V9.78H3.35l3.84,9.12,3.87-9.12H14v.45h-.92a.56.56,0,0,0-.48.19.9.9,0,0,0-.14.54v9a.91.91,0,0,0,.14.54.56.56,0,0,0,.48.19H14v.45Z"/><text></text><path class="cls-1" d="M124.79,13.25a3,3,0,0,1-1.31,2.56,5.73,5.73,0,0,1-3.35.88,9.39,9.39,0,0,1-1.47-.13v3.39a.91.91,0,0,0,.14.54.56.56,0,0,0,.48.19h1.25v.45h-4.89v-.45h.92a.55.55,0,0,0,.48-.19.91.91,0,0,0,.14-.54V11a.93.93,0,0,0-.13-.54.55.55,0,0,0-.48-.19h-.93V9.78h4.14a6,6,0,0,1,4.11,1.13,3,3,0,0,1,.92,2.33Zm-1.62,0a3.18,3.18,0,0,0-.65-2.07,2.79,2.79,0,0,0-2.3-.94,3.66,3.66,0,0,0-.86.09,3,3,0,0,0-.71.27v5.48l.53.09a4.56,4.56,0,0,0,.66.06,3.79,3.79,0,0,0,2.22-.63,2.65,2.65,0,0,0,1.12-2.33Z"/><path class="cls-2" d="M124.79,13.25a3,3,0,0,1-1.31,2.56,5.73,5.73,0,0,1-3.35.88,9.39,9.39,0,0,1-1.47-.13v3.39a.91.91,0,0,0,.14.54.56.56,0,0,0,.48.19h1.25v.45h-4.89v-.45h.92a.55.55,0,0,0,.48-.19.91.91,0,0,0,.14-.54V11a.93.93,0,0,0-.13-.54.55.55,0,0,0-.48-.19h-.93V9.78h4.14a6,6,0,0,1,4.11,1.13,3,3,0,0,1,.92,2.33Zm-1.62,0a3.18,3.18,0,0,0-.65-2.07,2.79,2.79,0,0,0-2.3-.94,3.66,3.66,0,0,0-.86.09,3,3,0,0,0-.71.27v5.48l.53.09a4.56,4.56,0,0,0,.66.06,3.79,3.79,0,0,0,2.22-.63,2.65,2.65,0,0,0,1.12-2.33Z"/><path class="cls-1" d="M37.4,21.13H33.25v-.45h.65a1.14,1.14,0,0,0,.49-.08c.11-.05.16-.19.16-.39a2,2,0,0,0-.14-.64c-.1-.27-.17-.46-.21-.59l-.82-2.27H29.7l-.37,1-.42,1.13a3.53,3.53,0,0,0-.26,1.09,1,1,0,0,0,.13.53.39.39,0,0,0,.34.21h.65v.45H26.48v-.45h.31c.26,0,.53-.21.81-.63a16.83,16.83,0,0,0,1.52-3.34l2.64-7.15h.52l3.65,10.13a2.79,2.79,0,0,0,.29.62,1,1,0,0,0,.83.37h.36v.45Zm-4.17-4.88-1.68-4.67-1.69,4.67Z"/><path class="cls-2" d="M37.4,21.13H33.25v-.45h.65a1.14,1.14,0,0,0,.49-.08c.11-.05.16-.19.16-.39a2,2,0,0,0-.14-.64c-.1-.27-.17-.46-.21-.59l-.82-2.27H29.7l-.37,1-.42,1.13a3.53,3.53,0,0,0-.26,1.09,1,1,0,0,0,.13.53.39.39,0,0,0,.34.21h.65v.45H26.48v-.45h.31c.26,0,.53-.21.81-.63a16.83,16.83,0,0,0,1.52-3.34l2.64-7.15h.52l3.65,10.13a2.79,2.79,0,0,0,.29.62,1,1,0,0,0,.83.37h.36v.45Zm-4.17-4.88-1.68-4.67-1.69,4.67Z"/><path class="cls-1" d="M59,17.89A5.77,5.77,0,0,1,57,20.41a4.74,4.74,0,0,1-2.61.71,5.51,5.51,0,0,1-3.92-1.47,5.62,5.62,0,0,1-1.7-4.29,6.24,6.24,0,0,1,1.44-4.18,5.29,5.29,0,0,1,4.24-1.85,6.14,6.14,0,0,1,3.29.79l0-.57h.52l.23,3.09h-.52l0-.39a2.11,2.11,0,0,0-1-1.68,4,4,0,0,0-2.48-.79,3.3,3.3,0,0,0-3,1.8,7.46,7.46,0,0,0-.89,3.79,5.38,5.38,0,0,0,1.34,3.92,4,4,0,0,0,3,1.23A3.41,3.41,0,0,0,57,19.82a5.72,5.72,0,0,0,1.64-2.15l.4.21Z"/><path class="cls-2" d="M59,17.89A5.77,5.77,0,0,1,57,20.41a4.74,4.74,0,0,1-2.61.71,5.51,5.51,0,0,1-3.92-1.47,5.62,5.62,0,0,1-1.7-4.29,6.24,6.24,0,0,1,1.44-4.18,5.29,5.29,0,0,1,4.24-1.85,6.14,6.14,0,0,1,3.29.79l0-.57h.52l.23,3.09h-.52l0-.39a2.11,2.11,0,0,0-1-1.68,4,4,0,0,0-2.48-.79,3.3,3.3,0,0,0-3,1.8,7.46,7.46,0,0,0-.89,3.79,5.38,5.38,0,0,0,1.34,3.92,4,4,0,0,0,3,1.23A3.41,3.41,0,0,0,57,19.82a5.72,5.72,0,0,0,1.64-2.15l.4.21Z"/><path class="cls-1" d="M80.29,12.31h-.52v-.37q0-.65-1-1.17a4.21,4.21,0,0,0-2-.53,2.39,2.39,0,0,0-.54,0,.24.24,0,0,0-.21.26v9.4a.91.91,0,0,0,.14.54.56.56,0,0,0,.48.19h.92v.45H73v-.45h.92a.56.56,0,0,0,.48-.19.9.9,0,0,0,.14-.54v-9.4c0-.13-.08-.21-.23-.25a2.18,2.18,0,0,0-.51-.06,4.22,4.22,0,0,0-2,.53q-1,.53-1,1.17v.37h-.52V9.78h10v2.53Z"/><path class="cls-2" d="M80.29,12.31h-.52v-.37q0-.65-1-1.17a4.21,4.21,0,0,0-2-.53,2.39,2.39,0,0,0-.54,0,.24.24,0,0,0-.21.26v9.4a.91.91,0,0,0,.14.54.56.56,0,0,0,.48.19h.92v.45H73v-.45h.92a.56.56,0,0,0,.48-.19.9.9,0,0,0,.14-.54v-9.4c0-.13-.08-.21-.23-.25a2.18,2.18,0,0,0-.51-.06,4.22,4.22,0,0,0-2,.53q-1,.53-1,1.17v.37h-.52V9.78h10v2.53Z"/><path class="cls-1" d="M102.71,18.62l-.54,2.51h-8.7v-.45h.92a.56.56,0,0,0,.48-.19.91.91,0,0,0,.14-.54V11a.91.91,0,0,0-.14-.54.56.56,0,0,0-.48-.19h-.92V9.78h8.62l.19,2.3h-.52l-.06-.49c0-.36-.31-.65-.79-.87a8,8,0,0,0-3.22-.49h-.57a.55.55,0,0,0-.47.2.87.87,0,0,0-.15.53v4h.73a6.51,6.51,0,0,0,2.51-.31.63.63,0,0,0,.34-.62v-.41h.52v3.11h-.52v-.4a.64.64,0,0,0-.34-.62,6.5,6.5,0,0,0-2.51-.31H96.5v4.55a.91.91,0,0,0,.14.54.56.56,0,0,0,.48.19h.23a10.07,10.07,0,0,0,3.56-.48c.7-.28,1.1-.67,1.2-1.17l.08-.4Z"/><path class="cls-2" d="M102.71,18.62l-.54,2.51h-8.7v-.45h.92a.56.56,0,0,0,.48-.19.91.91,0,0,0,.14-.54V11a.91.91,0,0,0-.14-.54.56.56,0,0,0-.48-.19h-.92V9.78h8.62l.19,2.3h-.52l-.06-.49c0-.36-.31-.65-.79-.87a8,8,0,0,0-3.22-.49h-.57a.55.55,0,0,0-.47.2.87.87,0,0,0-.15.53v4h.73a6.51,6.51,0,0,0,2.51-.31.63.63,0,0,0,.34-.62v-.41h.52v3.11h-.52v-.4a.64.64,0,0,0-.34-.62,6.5,6.5,0,0,0-2.51-.31H96.5v4.55a.91.91,0,0,0,.14.54.56.56,0,0,0,.48.19h.23a10.07,10.07,0,0,0,3.56-.48c.7-.28,1.1-.67,1.2-1.17l.08-.4Z"/><path class="cls-3" d="M154.73,19.72q-.13,1.41-1.34,1.41t-2.31-1.84q-.86-1.62-1.7-3.25a2.41,2.41,0,0,0-.69-.78,1.68,1.68,0,0,0-1-.26h-.65v4.72a.9.9,0,0,0,.14.54.55.55,0,0,0,.48.19h.92v.45H144v-.45H145a.56.56,0,0,0,.48-.19.9.9,0,0,0,.14-.54v-9a.91.91,0,0,0-.14-.54A.56.56,0,0,0,145,10H144V9.58h4.56V10h-.92a.56.56,0,0,0-.48.19.9.9,0,0,0-.14.54v3.78h.65a1.65,1.65,0,0,0,1.16-.39,8.61,8.61,0,0,0,1.42-2.22,7.34,7.34,0,0,1,1.38-2.1,2,2,0,0,1,1.3-.49,1.21,1.21,0,0,1,.83.28,1,1,0,0,1,.31.74.82.82,0,0,1-.83.86.72.72,0,0,1-.56-.23.81.81,0,0,1-.21-.57V10.2c0-.15-.05-.23-.16-.23s-.5.36-.79,1.09a19.15,19.15,0,0,1-1,2.14,3.24,3.24,0,0,1-1.88,1.56v.08a3.76,3.76,0,0,1,1.94.84A5.55,5.55,0,0,1,152,17.24a17.84,17.84,0,0,1,.86,1.78c.14.33.29.67.44,1s.35.44.57.44a.38.38,0,0,0,.35-.23,1.06,1.06,0,0,0,.12-.5Z"/><path class="cls-3" d="M154.73,19.72q-.13,1.41-1.34,1.41t-2.31-1.84q-.86-1.62-1.7-3.25a2.41,2.41,0,0,0-.69-.78,1.68,1.68,0,0,0-1-.26h-.65v4.72a.9.9,0,0,0,.14.54.55.55,0,0,0,.48.19h.92v.45H144v-.45H145a.56.56,0,0,0,.48-.19.9.9,0,0,0,.14-.54v-9a.91.91,0,0,0-.14-.54A.56.56,0,0,0,145,10H144V9.58h4.56V10h-.92a.56.56,0,0,0-.48.19.9.9,0,0,0-.14.54v3.78h.65a1.65,1.65,0,0,0,1.16-.39,8.61,8.61,0,0,0,1.42-2.22,7.34,7.34,0,0,1,1.38-2.1,2,2,0,0,1,1.3-.49,1.21,1.21,0,0,1,.83.28,1,1,0,0,1,.31.74.82.82,0,0,1-.83.86.72.72,0,0,1-.56-.23.81.81,0,0,1-.21-.57V10.2c0-.15-.05-.23-.16-.23s-.5.36-.79,1.09a19.15,19.15,0,0,1-1,2.14,3.24,3.24,0,0,1-1.88,1.56v.08a3.76,3.76,0,0,1,1.94.84A5.55,5.55,0,0,1,152,17.24a17.84,17.84,0,0,1,.86,1.78c.14.33.29.67.44,1s.35.44.57.44a.38.38,0,0,0,.35-.23,1.06,1.06,0,0,0,.12-.5Z"/><path class="cls-3" d="M177.2,20.9h-4.56v-.45h.92a.55.55,0,0,0,.48-.19.9.9,0,0,0,.14-.54v-9a.91.91,0,0,0-.14-.54.56.56,0,0,0-.48-.19h-.92q-1.25,0-1.44.63-.23,1.8-.6,4.06a19.51,19.51,0,0,1-1.3,5q-.72,1.45-1.85,1.45a1.73,1.73,0,0,1-1.08-.32,1.18,1.18,0,0,1-.49-1,1,1,0,0,1,.25-.72.82.82,0,0,1,.64-.28.81.81,0,0,1,.66.25.88.88,0,0,1,.21.58v.24l-.06.21q0,.34.29.34a.83.83,0,0,0,.61-.42,6.84,6.84,0,0,0,.82-1.82,27.31,27.31,0,0,0,.82-3.75,25.49,25.49,0,0,0,.4-3.4,1.25,1.25,0,0,0-.2-.74.74.74,0,0,0-.64-.28h-1.07V9.58h8.59V10h-.92a.56.56,0,0,0-.48.19.9.9,0,0,0-.14.54v9a.89.89,0,0,0,.14.54.55.55,0,0,0,.48.19h.92v.45Z"/><path class="cls-3" d="M177.2,20.9h-4.56v-.45h.92a.55.55,0,0,0,.48-.19.9.9,0,0,0,.14-.54v-9a.91.91,0,0,0-.14-.54.56.56,0,0,0-.48-.19h-.92q-1.25,0-1.44.63-.23,1.8-.6,4.06a19.51,19.51,0,0,1-1.3,5q-.72,1.45-1.85,1.45a1.73,1.73,0,0,1-1.08-.32,1.18,1.18,0,0,1-.49-1,1,1,0,0,1,.25-.72.82.82,0,0,1,.64-.28.81.81,0,0,1,.66.25.88.88,0,0,1,.21.58v.24l-.06.21q0,.34.29.34a.83.83,0,0,0,.61-.42,6.84,6.84,0,0,0,.82-1.82,27.31,27.31,0,0,0,.82-3.75,25.49,25.49,0,0,0,.4-3.4,1.25,1.25,0,0,0-.2-.74.74.74,0,0,0-.64-.28h-1.07V9.58h8.59V10h-.92a.56.56,0,0,0-.48.19.9.9,0,0,0-.14.54v9a.89.89,0,0,0,.14.54.55.55,0,0,0,.48.19h.92v.45Z"/><path class="cls-3" d="M200.22,21.13h-4.14v-.45h.65a1.1,1.1,0,0,0,.48-.08c.11-.05.16-.18.16-.39a1.94,1.94,0,0,0-.14-.64L197,19l-.82-2.26h-3.67l-.37,1-.42,1.13a3.52,3.52,0,0,0-.26,1.09,1,1,0,0,0,.13.53.38.38,0,0,0,.34.21h.65v.45h-3.28v-.45h.31c.26,0,.53-.21.81-.63A17,17,0,0,0,192,16.71l2.64-7.13h.52l3.64,10.11a2.76,2.76,0,0,0,.29.61,1,1,0,0,0,.83.37h.35v.45Zm-4.16-4.87-1.68-4.66-1.68,4.66Z"/><path class="cls-3" d="M200.22,21.13h-4.14v-.45h.65a1.1,1.1,0,0,0,.48-.08c.11-.05.16-.18.16-.39a1.94,1.94,0,0,0-.14-.64L197,19l-.82-2.26h-3.67l-.37,1-.42,1.13a3.52,3.52,0,0,0-.26,1.09,1,1,0,0,0,.13.53.38.38,0,0,0,.34.21h.65v.45h-3.28v-.45h.31c.26,0,.53-.21.81-.63A17,17,0,0,0,192,16.71l2.64-7.13h.52l3.64,10.11a2.76,2.76,0,0,0,.29.61,1,1,0,0,0,.83.37h.35v.45Zm-4.16-4.87-1.68-4.66-1.68,4.66Z"/><path class="cls-3" d="M221.37,17.89a5.75,5.75,0,0,1-2.05,2.52,4.74,4.74,0,0,1-2.61.71,5.5,5.5,0,0,1-3.91-1.47,5.61,5.61,0,0,1-1.7-4.29,6.24,6.24,0,0,1,1.44-4.18,5.28,5.28,0,0,1,4.24-1.84,6.14,6.14,0,0,1,3.29.79l0-.57h.52l.23,3.09h-.52l0-.39a2.11,2.11,0,0,0-1-1.68,4,4,0,0,0-2.48-.79,3.29,3.29,0,0,0-3,1.8,7.44,7.44,0,0,0-.89,3.79,5.38,5.38,0,0,0,1.34,3.91,4.05,4.05,0,0,0,3,1.23,3.42,3.42,0,0,0,2.1-.7A5.7,5.7,0,0,0,221,17.68l.41.21Z"/><path class="cls-3" d="M221.37,17.89a5.75,5.75,0,0,1-2.05,2.52,4.74,4.74,0,0,1-2.61.71,5.5,5.5,0,0,1-3.91-1.47,5.61,5.61,0,0,1-1.7-4.29,6.24,6.24,0,0,1,1.44-4.18,5.28,5.28,0,0,1,4.24-1.84,6.14,6.14,0,0,1,3.29.79l0-.57h.52l.23,3.09h-.52l0-.39a2.11,2.11,0,0,0-1-1.68,4,4,0,0,0-2.48-.79,3.29,3.29,0,0,0-3,1.8,7.44,7.44,0,0,0-.89,3.79,5.38,5.38,0,0,0,1.34,3.91,4.05,4.05,0,0,0,3,1.23,3.42,3.42,0,0,0,2.1-.7A5.7,5.7,0,0,0,221,17.68l.41.21Z"/><path class="cls-3" d="M242.08,17.89A5.76,5.76,0,0,1,240,20.41a4.73,4.73,0,0,1-2.6.71,5.51,5.51,0,0,1-3.92-1.47,5.62,5.62,0,0,1-1.7-4.29,6.24,6.24,0,0,1,1.44-4.18,5.28,5.28,0,0,1,4.24-1.84,6.14,6.14,0,0,1,3.29.79l0-.57h.52l.22,3.09H241l0-.39a2.11,2.11,0,0,0-1-1.68,4,4,0,0,0-2.48-.79,3.3,3.3,0,0,0-3,1.8,7.46,7.46,0,0,0-.89,3.79,5.37,5.37,0,0,0,1.34,3.91,4,4,0,0,0,3,1.23,3.41,3.41,0,0,0,2.1-.7,5.7,5.7,0,0,0,1.63-2.14l.41.21Z"/><path class="cls-3" d="M242.08,17.89A5.76,5.76,0,0,1,240,20.41a4.73,4.73,0,0,1-2.6.71,5.51,5.51,0,0,1-3.92-1.47,5.62,5.62,0,0,1-1.7-4.29,6.24,6.24,0,0,1,1.44-4.18,5.28,5.28,0,0,1,4.24-1.84,6.14,6.14,0,0,1,3.29.79l0-.57h.52l.22,3.09H241l0-.39a2.11,2.11,0,0,0-1-1.68,4,4,0,0,0-2.48-.79,3.3,3.3,0,0,0-3,1.8,7.46,7.46,0,0,0-.89,3.79,5.37,5.37,0,0,0,1.34,3.91,4,4,0,0,0,3,1.23,3.41,3.41,0,0,0,2.1-.7,5.7,5.7,0,0,0,1.63-2.14l.41.21Z"/><polygon class="cls-3" points="3.83 30.41 3.32 30.41 3.32 26.94 2.16 30.41 1.67 30.41 0.51 26.94 0.51 30.41 0 30.41 0 26.33 0.81 26.33 1.91 29.73 3.02 26.33 3.83 26.33 3.83 30.41 3.83 30.41"/><path class="cls-3" d="M26.51,28.74l-.72-1.89-.68,1.89Zm1.24,1.67h-.61l-.47-1.24H25l-.45,1.24h-.57l1.57-4.08h.58l1.66,4.08Z"/><path class="cls-3" d="M49.4,30.48a1.86,1.86,0,0,1-1.29-.39,1.35,1.35,0,0,1-.45-1h.52a.85.85,0,0,0,.38.67,1.48,1.48,0,0,0,.82.22,1.28,1.28,0,0,0,.73-.19.58.58,0,0,0,.28-.51.51.51,0,0,0-.29-.49,4,4,0,0,0-1-.3,2.3,2.3,0,0,1-1-.41.89.89,0,0,1-.3-.7,1,1,0,0,1,.39-.81,1.63,1.63,0,0,1,1.05-.32,1.8,1.8,0,0,1,1.11.32,1.13,1.13,0,0,1,.45.9h-.53c-.05-.49-.39-.74-1-.74a1.23,1.23,0,0,0-.7.17.52.52,0,0,0-.25.45.42.42,0,0,0,.2.38,2.52,2.52,0,0,0,.74.25,7.06,7.06,0,0,1,.86.24,1.37,1.37,0,0,1,.55.36.93.93,0,0,1,.23.66,1.09,1.09,0,0,1-.42.87,1.65,1.65,0,0,1-1.09.35Z"/><polygon class="cls-3" points="74.22 26.82 72.87 26.82 72.87 30.41 72.33 30.41 72.33 26.82 70.99 26.82 70.99 26.33 74.22 26.33 74.22 26.82 74.22 26.82"/><polygon class="cls-3" points="97.5 30.41 94.46 30.41 94.46 26.33 97.41 26.33 97.41 26.82 95 26.82 95 28.06 97.25 28.06 97.25 28.54 95 28.54 95 29.92 97.5 29.92 97.5 30.41 97.5 30.41"/><path class="cls-3" d="M121.32,30.41h-.58l-.38-1.09a1,1,0,0,0-.34-.47.88.88,0,0,0-.55-.18h-1v1.74h-.54V26.33h1.8a2.62,2.62,0,0,1,.77.09.87.87,0,0,1,.49.39,1.2,1.2,0,0,1,.19.66,1,1,0,0,1-.24.71,1.15,1.15,0,0,1-.67.37h0a1.1,1.1,0,0,1,.65.74l.41,1.11Zm-2.86-2.23h1.2a1.29,1.29,0,0,0,.73-.16.62.62,0,0,0,.23-.55c0-.46-.29-.69-.87-.69h-1.29v1.4Z"/><path class="cls-3" d="M146.42,30.48a1.77,1.77,0,0,1-1.38-.57,2.56,2.56,0,0,1,0-3.08,1.77,1.77,0,0,1,1.38-.57,1.8,1.8,0,0,1,1.13.36,1.31,1.31,0,0,1,.53.95h-.56a.83.83,0,0,0-.33-.62,1.36,1.36,0,0,0-1.74.2,2.24,2.24,0,0,0,0,2.44,1.2,1.2,0,0,0,1,.43,1.22,1.22,0,0,0,.77-.23.91.91,0,0,0,.33-.67h.56a1.36,1.36,0,0,1-.51,1,1.79,1.79,0,0,1-1.15.36Z"/><polygon class="cls-3" points="171.01 30.41 168.49 30.41 168.49 26.33 169.03 26.33 169.03 29.92 171.01 29.92 171.01 30.41 171.01 30.41"/><path class="cls-3" d="M193.42,28.74l-.72-1.89L192,28.74Zm1.24,1.67h-.61l-.47-1.24h-1.71l-.45,1.24h-.57l1.56-4.08H193l1.66,4.08Z"/><path class="cls-3" d="M216.31,30.48a1.87,1.87,0,0,1-1.29-.39,1.35,1.35,0,0,1-.45-1h.52a.86.86,0,0,0,.38.67,1.48,1.48,0,0,0,.82.22,1.28,1.28,0,0,0,.73-.19.58.58,0,0,0,.28-.51.51.51,0,0,0-.28-.49,4,4,0,0,0-1-.3,2.32,2.32,0,0,1-1-.41.89.89,0,0,1-.3-.7,1,1,0,0,1,.4-.81,1.64,1.64,0,0,1,1.05-.32,1.8,1.8,0,0,1,1.11.32,1.14,1.14,0,0,1,.45.9h-.53c-.05-.49-.39-.74-1-.74a1.23,1.23,0,0,0-.7.17.52.52,0,0,0-.25.45.43.43,0,0,0,.2.38,2.54,2.54,0,0,0,.74.25,7,7,0,0,1,.86.24,1.38,1.38,0,0,1,.55.36.93.93,0,0,1,.23.66,1.08,1.08,0,0,1-.42.87,1.65,1.65,0,0,1-1.09.35Z"/><path class="cls-3" d="M240.1,30.48a1.86,1.86,0,0,1-1.29-.39,1.35,1.35,0,0,1-.45-1h.52a.85.85,0,0,0,.38.67,1.47,1.47,0,0,0,.81.22,1.28,1.28,0,0,0,.73-.19.58.58,0,0,0,.28-.51.51.51,0,0,0-.28-.49,4,4,0,0,0-1-.3,2.31,2.31,0,0,1-1-.41.88.88,0,0,1-.3-.7,1,1,0,0,1,.4-.81,1.64,1.64,0,0,1,1.05-.32,1.8,1.8,0,0,1,1.11.32,1.14,1.14,0,0,1,.45.9H241c-.05-.49-.39-.74-1-.74a1.23,1.23,0,0,0-.7.17.52.52,0,0,0-.25.45.43.43,0,0,0,.2.38A2.53,2.53,0,0,0,240,28a7,7,0,0,1,.86.24,1.39,1.39,0,0,1,.55.36.94.94,0,0,1,.23.66,1.08,1.08,0,0,1-.42.87,1.65,1.65,0,0,1-1.09.35Z"/><polygon class="cls-3" points="3.91 4.76 3.43 4.76 3.43 1.51 2.34 4.76 1.89 4.76 0.8 1.51 0.8 4.76 0.32 4.76 0.32 0.94 1.08 0.94 2.12 4.12 3.15 0.94 3.91 0.94 3.91 4.76 3.91 4.76"/><polygon class="cls-3" points="11.86 4.76 9.01 4.76 9.01 0.94 11.77 0.94 11.77 1.39 9.52 1.39 9.52 2.56 11.62 2.56 11.62 3.01 9.52 3.01 9.52 4.3 11.86 4.3 11.86 4.76 11.86 4.76"/><polygon class="cls-3" points="21.17 4.76 20.5 4.76 19.04 2.91 19.04 4.76 18.54 4.76 18.54 2.91 17.07 4.76 16.4 4.76 18.22 2.63 16.48 0.94 17.16 0.94 18.54 2.4 18.54 0.94 19.04 0.94 19.04 2.4 20.42 0.94 21.1 0.94 19.35 2.63 21.17 4.76 21.17 4.76"/><path class="cls-3" d="M29,4.3h.5V5.65H29V4.76H26v.89h-.5V4.3h.35a3.27,3.27,0,0,0,.33-.92,8.94,8.94,0,0,0,.13-1.78V.94H29V4.3Zm-.51,0V1.39h-1.6v.26a8.7,8.7,0,0,1-.12,1.68,3.43,3.43,0,0,1-.34,1Z"/><path class="cls-3" d="M37.22.94,35.77,3.73a3.2,3.2,0,0,1-.6.88.78.78,0,0,1-.51.21,1.68,1.68,0,0,1-.48-.07V4.28a.92.92,0,0,0,.43.08c.22,0,.44-.21.66-.64l-.72-1.39L33.84.94h.57L35,2.07l.56,1.14L36.64.94Z"/><polygon class="cls-3" points="44.9 4.76 44.39 4.76 44.39 2.96 42.41 2.96 42.41 4.76 41.9 4.76 41.9 0.94 42.41 0.94 42.41 2.51 44.39 2.51 44.39 0.94 44.9 0.94 44.9 4.76 44.9 4.76"/><path class="cls-3" d="M52,3.19,51.3,1.42l-.64,1.77Zm1.16,1.56h-.57l-.44-1.16h-1.6L50.1,4.76h-.53L51,.94h.54l1.56,3.82Z"/><path class="cls-3" d="M57.8.94h1.42A3,3,0,0,1,60,1a.84.84,0,0,1,.5.38,1.18,1.18,0,0,1,.18.65,1.06,1.06,0,0,1-.37.88,1.64,1.64,0,0,1-1.06.3h-1V4.76H57.8V.94Zm.51,1.84h1A1.05,1.05,0,0,0,60,2.6a.67.67,0,0,0,.21-.53.74.74,0,0,0-.11-.41.5.5,0,0,0-.29-.22,2.07,2.07,0,0,0-.51,0h-1V2.78Z"/><path class="cls-3" d="M67.26.88a1.72,1.72,0,0,1,1.31.54,2,2,0,0,1,.51,1.43,2,2,0,0,1-.51,1.43,1.86,1.86,0,0,1-2.63,0,2,2,0,0,1-.51-1.43,2,2,0,0,1,.51-1.43A1.73,1.73,0,0,1,67.26.88Zm0,3.51A1.2,1.2,0,0,0,68.19,4a1.63,1.63,0,0,0,.37-1.13,1.64,1.64,0,0,0-.36-1.14,1.2,1.2,0,0,0-.93-.41,1.21,1.21,0,0,0-.94.41,1.62,1.62,0,0,0-.37,1.14A1.64,1.64,0,0,0,66.32,4a1.21,1.21,0,0,0,.94.41Z"/><path class="cls-3" d="M77.08,4.3h.5V5.65h-.5V4.76H74.17v.89h-.51V4.3H74a3.2,3.2,0,0,0,.33-.92,8.79,8.79,0,0,0,.13-1.78V.94h2.62V4.3Zm-.51,0V1.39H75v.26a8.72,8.72,0,0,1-.12,1.68,3.43,3.43,0,0,1-.34,1Z"/><polygon class="cls-3" points="85.37 4.76 84.86 4.76 84.86 2.96 82.88 2.96 82.88 4.76 82.37 4.76 82.37 0.94 82.88 0.94 82.88 2.51 84.86 2.51 84.86 0.94 85.37 0.94 85.37 4.76 85.37 4.76"/><path class="cls-3" d="M91,2.54h.85q1.5,0,1.5,1.11a1,1,0,0,1-.36.82,1.68,1.68,0,0,1-1.06.29H90.47V.94H91v1.6ZM91,4.3h.92q.91,0,.91-.65a.58.58,0,0,0-.21-.5A1.33,1.33,0,0,0,91.83,3H91V4.3Zm3.35.45h-.51V.94h.51V4.76Z"/><path class="cls-3" d="M102.42,4.76h-.48V1.69l-2,3.07h-.52V.94h.48V4l2-3.06h.52V4.76ZM101.7,0a.71.71,0,0,1-.24.5.79.79,0,0,1-.53.18.78.78,0,0,1-.53-.18.7.7,0,0,1-.23-.5h.32a.4.4,0,0,0,.45.35.41.41,0,0,0,.45-.35Z"/><path class="cls-3" d="M112.44,1.35a1.91,1.91,0,0,1,1.3.4,1.36,1.36,0,0,1,.46,1.08,1.32,1.32,0,0,1-.46,1.06,2,2,0,0,1-1.3.39v.5h-.51v-.5a2,2,0,0,1-1.3-.39,1.32,1.32,0,0,1-.46-1.06,1.36,1.36,0,0,1,.46-1.08,1.91,1.91,0,0,1,1.3-.4V.94h.51v.41Zm0,2.51a1.5,1.5,0,0,0,.93-.24,1,1,0,0,0,.31-.8,1,1,0,0,0-.31-.79,1.46,1.46,0,0,0-.93-.25V3.85Zm-.51,0V1.77A1.46,1.46,0,0,0,111,2a1,1,0,0,0-.31.79,1,1,0,0,0,.31.8,1.5,1.5,0,0,0,.93.24Z"/><polygon class="cls-3" points="121.97 4.76 119.13 4.76 119.13 0.94 121.88 0.94 121.88 1.39 119.63 1.39 119.63 2.56 121.74 2.56 121.74 3.01 119.63 3.01 119.63 4.3 121.97 4.3 121.97 4.76 121.97 4.76"/><path class="cls-3" d="M128.53,4.82a1.66,1.66,0,0,1-1.29-.53,2.06,2.06,0,0,1-.48-1.44,2.06,2.06,0,0,1,.48-1.44,1.66,1.66,0,0,1,1.29-.53,1.69,1.69,0,0,1,1.06.34,1.23,1.23,0,0,1,.49.88h-.52a.77.77,0,0,0-.31-.58,1.16,1.16,0,0,0-.71-.21,1.14,1.14,0,0,0-.92.4,1.72,1.72,0,0,0-.34,1.14A1.72,1.72,0,0,0,127.61,4a1.12,1.12,0,0,0,.91.4,1.14,1.14,0,0,0,.72-.22.85.85,0,0,0,.31-.62h.52a1.28,1.28,0,0,1-.48.94,1.68,1.68,0,0,1-1.07.33Z"/><polygon class="cls-3" points="137.74 1.39 136.48 1.39 136.48 4.76 135.97 4.76 135.97 1.39 134.72 1.39 134.72 0.94 137.74 0.94 137.74 1.39 137.74 1.39"/><polygon class="cls-3" points="145.53 4.76 145.04 4.76 145.04 1.69 143.05 4.76 142.53 4.76 142.53 0.94 143.01 0.94 143.01 4 145.01 0.94 145.53 0.94 145.53 4.76 145.53 4.76"/><path class="cls-3" d="M153.48,3.65a1,1,0,0,1-.36.82,1.68,1.68,0,0,1-1.06.29h-1.43V.94H152a1.57,1.57,0,0,1,1,.26.84.84,0,0,1,.35.71.86.86,0,0,1-.55.82.91.91,0,0,1,.74.92Zm-2.35-1.11H152a1.1,1.1,0,0,0,.62-.13.5.5,0,0,0,.2-.45.49.49,0,0,0-.19-.42,1.16,1.16,0,0,0-.67-.14h-.8V2.54Zm0,1.76h.92q.91,0,.91-.65a.58.58,0,0,0-.21-.5A1.33,1.33,0,0,0,152,3h-.86V4.3Z"/><path class="cls-3" d="M160.4,3.19l-.67-1.77-.64,1.77Zm1.16,1.56H161l-.44-1.16H159l-.42,1.16H158L159.46.94H160l1.56,3.82Z"/><path class="cls-3" d="M169.14,4.76h-.51V1.39H167V3.78q0,1-.75,1a2,2,0,0,1-.37,0V4.33a1,1,0,0,0,.27,0,.29.29,0,0,0,.27-.13.9.9,0,0,0,.08-.43V.94h2.69V4.76Z"/><path class="cls-3" d="M174.74,2.54h.85q1.5,0,1.5,1.11a1,1,0,0,1-.36.82,1.69,1.69,0,0,1-1.06.29h-1.43V.94h.51v1.6Zm0,1.76h.92q.91,0,.91-.65a.59.59,0,0,0-.21-.5A1.34,1.34,0,0,0,175.6,3h-.85V4.3Z"/><polygon class="cls-3" points="186.39 4.76 185.91 4.76 185.91 1.69 183.91 4.76 183.39 4.76 183.39 0.94 183.87 0.94 183.87 4 185.87 0.94 186.39 0.94 186.39 4.76 186.39 4.76"/><path class="cls-3" d="M193.09,4.82a1.66,1.66,0,0,1-1.29-.53,2.06,2.06,0,0,1-.48-1.44,2.06,2.06,0,0,1,.48-1.44,1.66,1.66,0,0,1,1.29-.53,1.7,1.7,0,0,1,1.06.34,1.22,1.22,0,0,1,.49.88h-.52a.78.78,0,0,0-.32-.58,1.27,1.27,0,0,0-1.63.19,1.73,1.73,0,0,0-.34,1.14A1.72,1.72,0,0,0,192.17,4a1.12,1.12,0,0,0,.91.4,1.13,1.13,0,0,0,.72-.22.87.87,0,0,0,.31-.62h.52a1.28,1.28,0,0,1-.48.94,1.68,1.68,0,0,1-1.07.33Z"/><polygon class="cls-3" points="202.71 4.76 202.04 4.76 200.68 2.85 200.09 3.43 200.09 4.76 199.59 4.76 199.59 0.94 200.09 0.94 200.09 2.83 201.95 0.94 202.63 0.94 201.04 2.51 202.71 4.76 202.71 4.76"/><path class="cls-3" d="M210.36.94l-1.44,2.79a3.18,3.18,0,0,1-.6.88.78.78,0,0,1-.51.21,1.68,1.68,0,0,1-.48-.07V4.28a.91.91,0,0,0,.43.08c.22,0,.44-.21.66-.64l-.72-1.39L207,.94h.57l.56,1.13.56,1.14L209.79.94Z"/><path class="cls-3" d="M216.65,4.82a1.66,1.66,0,0,1-1.29-.53,2.06,2.06,0,0,1-.48-1.44,2.06,2.06,0,0,1,.48-1.44,1.66,1.66,0,0,1,1.29-.53,1.69,1.69,0,0,1,1.06.34,1.22,1.22,0,0,1,.49.88h-.52a.78.78,0,0,0-.31-.58,1.16,1.16,0,0,0-.71-.21,1.14,1.14,0,0,0-.92.4,1.73,1.73,0,0,0-.34,1.14A1.72,1.72,0,0,0,215.73,4a1.12,1.12,0,0,0,.91.4,1.14,1.14,0,0,0,.73-.22.86.86,0,0,0,.31-.62h.52a1.27,1.27,0,0,1-.48.94,1.68,1.68,0,0,1-1.07.33Z"/><path class="cls-3" d="M224.74,4.82a1.65,1.65,0,0,1-1.29-.53A2,2,0,0,1,223,2.85a2,2,0,0,1,.49-1.44,1.65,1.65,0,0,1,1.29-.53,1.69,1.69,0,0,1,1.06.34,1.23,1.23,0,0,1,.49.88h-.52a.77.77,0,0,0-.31-.58,1.15,1.15,0,0,0-.71-.21,1.14,1.14,0,0,0-.92.4,1.72,1.72,0,0,0-.34,1.14A1.73,1.73,0,0,0,223.83,4a1.12,1.12,0,0,0,.91.4,1.14,1.14,0,0,0,.73-.22.85.85,0,0,0,.31-.62h.52a1.28,1.28,0,0,1-.48.94,1.68,1.68,0,0,1-1.07.33Z"/><polygon class="cls-3" points="233.96 1.39 232.69 1.39 232.69 4.76 232.18 4.76 232.18 1.39 230.93 1.39 230.93 0.94 233.96 0.94 233.96 1.39 233.96 1.39"/><path class="cls-3" d="M241.6,3.65a1,1,0,0,1-.37.82,1.68,1.68,0,0,1-1.06.29h-1.43V.94h1.36a1.57,1.57,0,0,1,1,.26.84.84,0,0,1,.35.71.86.86,0,0,1-.55.82.91.91,0,0,1,.74.92Zm-2.35-1.11h.85a1.1,1.1,0,0,0,.61-.13.5.5,0,0,0,.2-.45.49.49,0,0,0-.19-.42,1.17,1.17,0,0,0-.67-.14h-.8V2.54Zm0,1.76h.92q.91,0,.91-.65a.58.58,0,0,0-.21-.5A1.33,1.33,0,0,0,240.1,3h-.85V4.3Z"/><rect class="cls-1" y="22.99" width="241.61" height="0.6"/></g></g></svg>